<svg xmlns="http://www.w3.org/2000/svg" width="61" height="61" viewBox="0 0 61 61">
  <g id="Group_92" data-name="Group 92" transform="translate(-516.31 -340.194)">
    <g id="Group_46" data-name="Group 46" transform="translate(516.31 340.194)">
      <g id="Group_104" data-name="Group 104">
        <path id="Path_295" data-name="Path 295" d="M30.5,0A30.5,30.5,0,1,1,0,30.5,30.5,30.5,0,0,1,30.5,0Z" fill="#fff"/>
      </g>
    </g>
    <g id="_000000ff" data-name="#000000ff" transform="translate(514.779 335.001)">
      <path id="Path_353" data-name="Path 353" d="M36.636,19.271c.288.025.621-.136.858.107q2.408,2.436,4.8,4.883a.635.635,0,0,1,.153.667c-.011,1.41,0,2.821-.006,4.232,1.737-1.79,3.492-3.56,5.24-5.339a1.284,1.284,0,0,1,1.253-.349,1.431,1.431,0,0,1,.658.414c.633.648,1.274,1.287,1.9,1.941a1.337,1.337,0,0,1-.031,1.772q-4.378,4.471-8.772,8.925a1.767,1.767,0,0,0-.245.271c-.007,4.38,0,8.762,0,13.143a2.073,2.073,0,0,1-.548,1.4,2.019,2.019,0,0,1-1.522.623q-9.351,0-18.7,0a1.993,1.993,0,0,1-1.738-1.017,2.2,2.2,0,0,1-.259-1.08q0-14.247,0-28.5a2,2,0,0,1,2.059-2.1h14.9M21.018,21.3q0,14.146,0,28.291a1.355,1.355,0,0,0,.1.71.671.671,0,0,0,.624.3q9.352,0,18.7,0a.643.643,0,0,0,.66-.663c.01-3.927-.009-7.853.009-11.78-1.619,1.617-3.2,3.275-4.828,4.882-.091-.086-.175-.182-.269-.265q-1.811.595-3.616,1.2a.693.693,0,0,1-.66.493q-2.009,0-4.018,0a.649.649,0,0,1-.581-.3.693.693,0,0,1,.46-1.048c1.286-.019,2.573,0,3.86-.01.4-1.248.815-2.495,1.205-3.747-.059-.062-.118-.123-.179-.183.086-.174.279-.292.4-.448q2.929-2.973,5.853-5.951c.785-.809,1.592-1.6,2.363-2.419q0-2.459,0-4.919c-1.31,0-2.62,0-3.929,0A.761.761,0,0,1,36.436,25a1.849,1.849,0,0,0-.044-.313c0-1.352,0-2.7,0-4.054q-7.358,0-14.716,0a.642.642,0,0,0-.657.664m16.771.363c0,.779,0,1.558,0,2.338.767,0,1.533,0,2.3,0q-1.149-1.173-2.3-2.34m8.888,4.957q.928.959,1.872,1.9.934-.946,1.865-1.9-.9-.955-1.805-1.9-.968.946-1.932,1.9m-3.054,3.171c-3.048,3.128-6.123,6.231-9.179,9.352l0,.037c.618.616,1.222,1.247,1.839,1.862,1.6-1.611,3.187-3.238,4.782-4.856q3.292-3.323,6.567-6.665c-.622-.636-1.245-1.273-1.874-1.9q-1.072,1.083-2.138,2.173M33.733,40.465c-.213.656-.443,1.307-.66,1.961.636-.219,1.27-.444,1.905-.665l.012-.024C34.566,41.318,34.153,40.888,33.733,40.465Z" fill="#f15a24"/>
      <path id="Path_354" data-name="Path 354" d="M78.756,127.988c.431,0,.863,0,1.3,0,0,.425,0,.85,0,1.275-.431.016-.863,0-1.294.007C78.749,128.842,78.757,128.415,78.756,127.988Z" transform="translate(-55.186 -101.203)" fill="#f15a24"/>
      <path id="Path_355" data-name="Path 355" d="M128.406,128.018a.946.946,0,0,1,.3-.036q3.823,0,7.646,0a.7.7,0,0,1,.538.183.7.7,0,0,1,.075.823.624.624,0,0,1-.542.275q-3.892,0-7.783,0a.613.613,0,0,1-.6-.356A.647.647,0,0,1,128.406,128.018Z" transform="translate(-100.848 -101.199)" fill="#f15a24"/>
      <path id="Path_356" data-name="Path 356" d="M78.757,187.071c.431,0,.863,0,1.294,0-.006.426.022.862-.013,1.283-.427,0-.854,0-1.281,0C78.752,187.925,78.756,187.5,78.757,187.071Z" transform="translate(-55.187 -156.189)" fill="#f15a24"/>
      <path id="Path_357" data-name="Path 357" d="M128.5,187.052c3.026-.023,6.054,0,9.082-.01a.8.8,0,0,1,.528.133.646.646,0,0,1-.458,1.151q-4.517,0-9.032,0a.641.641,0,0,1-.12-1.273Z" transform="translate(-100.808 -156.162)" fill="#f15a24"/>
      <path id="Path_358" data-name="Path 358" d="M78.76,246.148c.431,0,.862,0,1.293,0,0,.427,0,.855,0,1.282-.431,0-.862,0-1.293,0C78.754,247,78.758,246.575,78.76,246.148Z" transform="translate(-55.189 -211.171)" fill="#f15a24"/>
      <path id="Path_359" data-name="Path 359" d="M128.5,246.116c1.641-.023,3.283,0,4.925-.01a1.413,1.413,0,0,1,.747.1.666.666,0,0,1,0,1.077.847.847,0,0,1-.48.1c-1.692,0-3.383,0-5.075,0a.641.641,0,0,1-.115-1.274Z" transform="translate(-100.858 -211.131)" fill="#f15a24"/>
      <path id="Path_360" data-name="Path 360" d="M78.759,305.228c.431,0,.862,0,1.292,0q.006.641,0,1.282c-.431,0-.862,0-1.294,0C78.754,306.082,78.756,305.655,78.759,305.228Z" transform="translate(-55.188 -266.154)" fill="#f15a24"/>
      <path id="Path_361" data-name="Path 361" d="M128.471,305.179c.561-.042,1.125-.008,1.687-.019a1.555,1.555,0,0,1,.8.107.682.682,0,0,1,.167.9.645.645,0,0,1-.57.275c-.64,0-1.279,0-1.918,0a.642.642,0,0,1-.532-.244A.653.653,0,0,1,128.471,305.179Z" transform="translate(-100.915 -266.088)" fill="#f15a24"/>
      <path id="Path_362" data-name="Path 362" d="M78.748,364.291c.42,0,.839,0,1.259,0,.043.414.009.857.018,1.283-.432,0-.864,0-1.3,0C78.74,365.147,78.705,364.706,78.748,364.291Z" transform="translate(-55.16 -321.121)" fill="#f15a24"/>
      <path id="Path_363" data-name="Path 363" d="M78.73,423.351c.424-.041.869-.01,1.3-.016,0,.427,0,.854,0,1.28h-1.3C78.73,424.192,78.737,423.771,78.73,423.351Z" transform="translate(-55.164 -375.857)" fill="#f15a24"/>
      <path id="Path_364" data-name="Path 364" d="M128.426,423.379c.889-.033,1.781,0,2.67-.014,2.637,0,5.273,0,7.91,0a.64.64,0,0,1,0,1.277q-5.24,0-10.48,0a.631.631,0,0,1-.574-.788A.6.6,0,0,1,128.426,423.379Z" transform="translate(-100.752 -375.888)" fill="#f15a24"/>
    </g>
  </g>
</svg>
