<svg xmlns="http://www.w3.org/2000/svg" width="61.036" height="61.036" viewBox="0 0 61.036 61.036">
  <g id="Group_106" data-name="Group 106" transform="translate(-743.944 -159)">
    <g id="Group_71" data-name="Group 71" transform="translate(743.944 159)">
      <path id="Path_297" data-name="Path 297" d="M30.518,0A30.518,30.518,0,1,1,0,30.518,30.518,30.518,0,0,1,30.518,0Z" fill="#fff"/>
    </g>
    <g id="_000000ff" data-name="#000000ff" transform="translate(628.976 80.345)">
      <path id="Path_298" data-name="Path 298" d="M135.558,96.018a.766.766,0,0,1,1.028.663c.013,2.138,0,4.277.008,6.416a.772.772,0,0,0,1.537-.008c.013-2.136,0-4.271.008-6.406a.719.719,0,0,1,.573-.683.8.8,0,0,1,.864.333.965.965,0,0,1,.106.532q0,3.069,0,6.138a.721.721,0,0,0,.382.7.814.814,0,0,0,1.022-.21,1.181,1.181,0,0,0,.142-.758c0-2.017-.006-4.035,0-6.052a.758.758,0,0,1,.946-.685.74.74,0,0,1,.6.779c0,2.578,0,5.155,0,7.733a2.832,2.832,0,0,1-1.87,2.649,1.033,1.033,0,0,0-.756.732,5.5,5.5,0,0,0,.04.816q.482,6.081.963,12.162a1.886,1.886,0,0,1-.983,1.877,3.05,3.05,0,0,1-2.29.04,1.882,1.882,0,0,1-1.107-1.906q.488-6.363.988-12.727a.76.76,0,0,0-.188-.629c-.28-.322-.764-.349-1.118-.57a2.749,2.749,0,0,1-1.4-2.433c-.007-2.582,0-5.164,0-7.745A.73.73,0,0,1,135.558,96.018Z" transform="translate(-2.222 -0.155)" fill="#f15a24"/>
      <path id="Path_299" data-name="Path 299" d="M230.074,96.072a4.567,4.567,0,0,1,3.251.669,4.5,4.5,0,0,1,1.755,3.3,7.59,7.59,0,0,1-1.954,5.949,3.029,3.029,0,0,0-1.067,2.239q.47,6.155.934,12.31a1.973,1.973,0,0,1-.679,1.758,2.737,2.737,0,0,1-2.1.346,1.794,1.794,0,0,1-1.369-1.09,3.224,3.224,0,0,1-.1-1.553q.441-5.929.883-11.857a3.2,3.2,0,0,0-1.1-2.2,7.231,7.231,0,0,1-1.924-4.663,5.4,5.4,0,0,1,1-3.823A3.857,3.857,0,0,1,230.074,96.072Z" transform="translate(-84.394 -0.503)" fill="#f15a24"/>
      <path id="Path_300" data-name="Path 300" d="M329.652,96.042a.6.6,0,0,1,.668.166,1.554,1.554,0,0,1,.263,1.039q0,11.823,0,23.645a2.024,2.024,0,0,1-.537,1.522,2.463,2.463,0,0,1-1.7.59,2.268,2.268,0,0,1-1.679-.507,2.219,2.219,0,0,1-.477-1.776c.492-3.021.993-6.041,1.483-9.062a.8.8,0,0,0-.512-.878,4.854,4.854,0,0,1-.922-.468,2.115,2.115,0,0,1-.917-1.78A20.336,20.336,0,0,1,328.614,97.1C328.9,96.717,329.136,96.246,329.652,96.042Z" transform="translate(-172.43 -0.183)" fill="#f15a24"/>
    </g>
  </g>
</svg>
