<svg xmlns="http://www.w3.org/2000/svg" width="61.863" height="61.863" viewBox="0 0 61.863 61.863">
  <g id="Group_94" data-name="Group 94" transform="translate(-515.985 -614.802)">
    <g id="Group_107" data-name="Group 107">
      <g id="Group_40" data-name="Group 40" transform="translate(515.985 614.802)">
        <path id="Path_297" data-name="Path 297" d="M30.932,0A30.932,30.932,0,1,1,0,30.932,30.932,30.932,0,0,1,30.932,0Z" fill="#fff"/>
      </g>
      <g id="png-transparent-delivery-service-motorcycle-courier-take-out-others-miscellaneous-food-hand-thumbnail" transform="translate(528.723 627.628)">
        <g id="_000000ff" data-name="#000000ff" transform="translate(0 0)">
          <path id="Path_368" data-name="Path 368" d="M9.661,23.959a11.348,11.348,0,0,0-4.241-.234,1.657,1.657,0,0,0,.231.653c.268.443.855.538,1.124.978a1.58,1.58,0,0,1,.15.685,13.14,13.14,0,0,1,3.33.439A14.527,14.527,0,0,1,14.7,28.612c1.61,1.089,3.067,2.384,4.682,3.463a4.959,4.959,0,0,0-1.82,1.687c-.007-.7-.007-1.389-.008-2.084a.73.73,0,0,0-.763-.759q-5.279-.008-10.557,0a.731.731,0,0,0-.775.766c.008,3.479,0,6.959,0,10.438a.7.7,0,0,0,.785.67c2.034,0,4.067.03,6.1-.015a.829.829,0,0,0-.571.665c-.016.753-.011,1.508,0,2.26a.842.842,0,0,0,.327.609,18,18,0,0,0-2.049,7.014A1.676,1.676,0,0,0,11.634,55.1c.729.024,1.461.013,2.19-.008a4.212,4.212,0,0,0,7.945.009c4.49.016,8.982,0,13.473.01a6.058,6.058,0,0,0,.849-.311A3.821,3.821,0,0,0,40.8,57.792a3.833,3.833,0,0,0,2.652-5.123,8.517,8.517,0,0,0-.441-.841q.432-.166.853-.35a5,5,0,0,0-2.13-2.686,4.819,4.819,0,0,0-2.989-.66c-1.288-2.731-2.543-5.476-3.83-8.207a2.933,2.933,0,0,0,1.444.473c-.011-1.638.005-3.276,0-4.913a2.42,2.42,0,0,0-2.419,2.185l-.094,0c-.159-.471-.412-.9-.6-1.358a1.43,1.43,0,0,0-1.3-.9,1.5,1.5,0,0,0-1.421.894,2.176,2.176,0,0,0,.224,1.652c-.176-.009-.35-.015-.526-.019a31.734,31.734,0,0,1-5.969-4.395,8.922,8.922,0,0,0,2.493-.571,2.583,2.583,0,0,0,1.548-1.437,2.762,2.762,0,0,0-.036-1.545,10.475,10.475,0,0,1-2.035,1.243,6.263,6.263,0,0,1-4.563-.016c-2.4-.868-4.268-2.662-6.277-4.161a15.883,15.883,0,0,0-5.718-3.1M25,36.763a27.631,27.631,0,0,1,4.221,2.366c.307.176.345.6.674.761a1.071,1.071,0,0,0,1.418-.313c.855,2.465,1.743,4.921,2.609,7.383a1.206,1.206,0,0,1-.063.724,4.121,4.121,0,0,1-1.569,1.806A12.156,12.156,0,0,1,28.665,51.1a39.171,39.171,0,0,0,.838-6.678,8.548,8.548,0,0,0-.018-1.087,2.181,2.181,0,0,0-1.234-1.366c-1.681-.865-3.591-1.137-5.291-1.956a2.2,2.2,0,0,1-1.1-1,2.671,2.671,0,0,1,.059-1.321,1.935,1.935,0,0,1,.848-1.338A3.883,3.883,0,0,1,25,36.763m.659,9.962c-.126,1.392-.265,2.784-.378,4.177-.405-1.481-.743-2.982-1.134-4.469a1,1,0,0,0,.522-.293c.246-.347.117-.8.148-1.194C25.573,45.166,25.642,46.065,25.656,46.725Z" transform="translate(-5.42 -23.628)" fill="#f15a24"/>
          <path id="Path_369" data-name="Path 369" d="M150.741,28.714a4.2,4.2,0,0,0-8.05,2.049,2.73,2.73,0,0,0,1.411,2.191,2.539,2.539,0,0,0,2.748-.44,2.99,2.99,0,0,0,.739-1.582c.4,0,.792,0,1.187,0,.121.43.392,1.014.921.967a1.38,1.38,0,0,0,.754-1.374,1.563,1.563,0,0,0-1.652-.1c-.02.075-.058.223-.077.3-.373-.005-.747,0-1.119-.008a5.849,5.849,0,0,0,.007-1.065c1.043-.011,2.093.048,3.132-.025C151.106,29.428,150.84,29,150.741,28.714Z" transform="translate(-127.553 -25.872)" fill="#f15a24"/>
        </g>
      </g>
    </g>
  </g>
</svg>
