<svg xmlns="http://www.w3.org/2000/svg" width="61.216" height="61.216" viewBox="0 0 61.216 61.216">
  <g id="Group_93" data-name="Group 93" transform="translate(-516.309 -253.335)">
    <g id="Group_72" data-name="Group 72" transform="translate(93.322 88.335)">
      <g id="Group_70" data-name="Group 70" transform="translate(422.987 165)">
        <path id="Path_294" data-name="Path 294" d="M30.608,0A30.608,30.608,0,1,1,0,30.608,30.608,30.608,0,0,1,30.608,0Z" transform="translate(0)" fill="#fff"/>
      </g>
    </g>
    <g id="flat-design-male-character-icon-vector-10981546" transform="translate(502.927 264.129)">
      <g id="_8c4747ff" data-name="#8c4747ff" transform="translate(31.702)">
        <path id="Path_342" data-name="Path 342" d="M113.57,0h.531a6.693,6.693,0,0,1,1.678.287c.039.166.066.334.091.5a7.126,7.126,0,0,1,5.452-.039,5.366,5.366,0,0,1,.023.676,7.075,7.075,0,0,1,4.613.457c.11.033.071.151.082.23a5.333,5.333,0,0,1-.964,2.962,6.353,6.353,0,0,1,1.5,2.081,12.862,12.862,0,0,1,.609,1.8,11.314,11.314,0,0,1,.412,3.632,4.055,4.055,0,0,1-.625,2.049,1.58,1.58,0,0,1-1.242.67,2.363,2.363,0,0,1-.935-.243l-.038-.018a5.3,5.3,0,0,1-1.56-1.24,12.015,12.015,0,0,1-1.8-2.706,11.088,11.088,0,0,1-4.737.406,22.839,22.839,0,0,1-2.685-.546,24.162,24.162,0,0,1-4.543-1.645,14.41,14.41,0,0,1-2.319,4.071,6.594,6.594,0,0,1-1.756,1.524,2.321,2.321,0,0,1-1.4.327,1.545,1.545,0,0,1-.6-.242,2.112,2.112,0,0,1-.748-1.078,5.965,5.965,0,0,1-.245-2.181,12.906,12.906,0,0,1,.7-3.443,9.889,9.889,0,0,1,.547-1.344,6.259,6.259,0,0,1,1.966-2.278,1.794,1.794,0,0,0,.4-.313,3.371,3.371,0,0,1,1.219-.879,1.477,1.477,0,0,0,.437-.382,16.64,16.64,0,0,1,1.917-1.687A7.322,7.322,0,0,1,113.57,0Z" transform="translate(-102.347)" fill="#8c4747"/>
        <path id="Path_343" data-name="Path 343" d="M392.192,261.31c1.252.28,2.509.543,3.76.825-.1.385-.2.769-.309,1.152-1.256-.267-2.509-.544-3.763-.817C391.964,262.079,392.074,261.693,392.192,261.31Z" transform="translate(-377.427 -249.555)" fill="#8c4747"/>
        <path id="Path_344" data-name="Path 344" d="M229.438,261.758c.685-.057,1.367-.151,2.054-.188.029.389.089.776.136,1.163-.939.112-1.884.192-2.826.288-.347.021-.689.084-1.037.092-.047-.39-.1-.779-.134-1.169C228.23,261.87,228.836,261.826,229.438,261.758Z" transform="translate(-221.376 -249.804)" fill="#8c4747"/>
        <path id="Path_345" data-name="Path 345" d="M255.672,608.765a18.411,18.411,0,0,0,3.509-.165q0,.872,0,1.745a2.487,2.487,0,0,0-.612.026,12.224,12.224,0,0,0-5.421,1.956,11.659,11.659,0,0,0-1.409,1.11,3.974,3.974,0,0,1-.338-1.048,19.982,19.982,0,0,1,2.117-.477c0-1.1-.006-2.2,0-3.3a4.944,4.944,0,0,0,.81.1A10.7,10.7,0,0,0,255.672,608.765Z" transform="translate(-243.959 -581.223)" fill="#8c4747"/>
      </g>
      <g id="_f7a381ff" data-name="#f7a381ff" transform="translate(31.541 9.32)">
        <path id="Path_346" data-name="Path 346" d="M106.375,207.19a24.16,24.16,0,0,0,4.543,1.645,22.835,22.835,0,0,0,2.685.546,11.088,11.088,0,0,0,4.737-.406,12.015,12.015,0,0,0,1.8,2.706,5.3,5.3,0,0,0,1.56,1.24c-.117.04.052.127.038.018a2.362,2.362,0,0,0,.935.243,2.437,2.437,0,0,1,1.452,1.471,2.168,2.168,0,0,1-.419,2.08,2.656,2.656,0,0,1-1.616.88,4.106,4.106,0,0,0-.429.052c-.037.3-.032.6-.09.9a7.661,7.661,0,0,1-2.428,4.445,9.136,9.136,0,0,1-4.626,2.236,18.424,18.424,0,0,1-3.509.166,10.719,10.719,0,0,1-1.344-.055,4.958,4.958,0,0,1-.81-.1,10.142,10.142,0,0,1-2.422-.77,8.677,8.677,0,0,1-2.4-1.664,7.487,7.487,0,0,1-2.313-5.169,3.267,3.267,0,0,1-.9-.152A2.448,2.448,0,0,1,99.241,216a2.117,2.117,0,0,1,.073-1.531,2.485,2.485,0,0,1,1.581-1.352,2.321,2.321,0,0,0,1.4-.327,6.6,6.6,0,0,0,1.756-1.524,14.41,14.41,0,0,0,2.319-4.071m7.684,2.434c-.118.383-.228.769-.312,1.16,1.254.273,2.507.55,3.763.817.108-.383.214-.766.31-1.152-1.251-.282-2.508-.545-3.76-.825m-6.7.2c-.6.068-1.208.112-1.808.187.031.39.087.779.134,1.169.347-.009.69-.072,1.037-.092.942-.1,1.887-.176,2.826-.288-.047-.387-.107-.774-.136-1.163-.686.037-1.369.131-2.054.188m.266,2.725a.976.976,0,0,0-.537.45,1.966,1.966,0,0,0-.226,1.336,1.569,1.569,0,0,0,.438.865.767.767,0,0,0,.669.2.968.968,0,0,0,.607-.474,1.948,1.948,0,0,0,.208-1.386,1.449,1.449,0,0,0-.462-.835.735.735,0,0,0-.7-.159m7.735-.007a.931.931,0,0,0-.473.33,1.9,1.9,0,0,0,.025,2.222.836.836,0,0,0,.693.324.944.944,0,0,0,.658-.449,1.933,1.933,0,0,0,.247-1.361,1.629,1.629,0,0,0-.408-.843.767.767,0,0,0-.742-.223m-7.784,6.343a3.11,3.11,0,0,0,.314,1.358,3.559,3.559,0,0,0,1.967,1.709,5.282,5.282,0,0,0,2.406.3,4.241,4.241,0,0,0,2.741-1.3,3.044,3.044,0,0,0,.789-2.067c-.263-.021-.526-.009-.788-.011h-4.793C109.328,218.88,108.449,218.855,107.571,218.885Z" transform="translate(-99.133 -207.19)" fill="#f7a381"/>
        <path id="Path_347" data-name="Path 347" d="M265.01,647.176a2.5,2.5,0,0,1,.612-.026c0,.475,0,.95,0,1.425,0,.06-.012.158.087.157a17.763,17.763,0,0,1,2.016.457,4.316,4.316,0,0,1-.926,1.992,5.02,5.02,0,0,1-2.282,1.541,5.545,5.545,0,0,1-3.157.091,4.9,4.9,0,0,1-3.181-2.57,11.678,11.678,0,0,1,1.409-1.11A12.223,12.223,0,0,1,265.01,647.176Z" transform="translate(-250.24 -627.348)" fill="#f7a381"/>
      </g>
      <g id="_4d4674ff" data-name="#4d4674ff" transform="translate(37.563 14.646)">
        <path id="Path_348" data-name="Path 348" d="M254.049,325.648a.735.735,0,0,1,.7.159,1.448,1.448,0,0,1,.462.835,1.948,1.948,0,0,1-.208,1.386.968.968,0,0,1-.607.474.766.766,0,0,1-.669-.2,1.568,1.568,0,0,1-.438-.866,1.966,1.966,0,0,1,.226-1.336A.976.976,0,0,1,254.049,325.648Z" transform="translate(-251.583 -325.614)" fill="#4d4674"/>
        <path id="Path_349" data-name="Path 349" d="M408.551,325.6a.767.767,0,0,1,.742.223,1.629,1.629,0,0,1,.408.843,1.933,1.933,0,0,1-.247,1.361.944.944,0,0,1-.658.449.836.836,0,0,1-.693-.324,1.9,1.9,0,0,1-.025-2.222A.93.93,0,0,1,408.551,325.6Z" transform="translate(-398.35 -325.577)" fill="#4d4674"/>
        <path id="Path_350" data-name="Path 350" d="M219.77,693.249a16.289,16.289,0,0,1,1.579-.543,3.975,3.975,0,0,0,.338,1.049,4.9,4.9,0,0,0,3.181,2.57,5.545,5.545,0,0,0,3.157-.091,5.021,5.021,0,0,0,2.282-1.542,4.315,4.315,0,0,0,.926-1.992q.807.237,1.585.545a6.062,6.062,0,0,1-2.861,3.779,7.218,7.218,0,0,1-4.632.923,6.737,6.737,0,0,1-4.723-2.822A5.8,5.8,0,0,1,219.77,693.249Z" transform="translate(-219.77 -676.185)" fill="#4d4674"/>
      </g>
      <g id="_219195ff" data-name="#219195ff" transform="translate(27.99 31.709)">
        <path id="Path_351" data-name="Path 351" d="M29.764,711.544a15.6,15.6,0,0,1,7.8-6.644,5.806,5.806,0,0,0,.832,1.876,16.534,16.534,0,0,0-4.514,8.7,13.511,13.511,0,0,0-.214,2.7c-1.892,0-2.069,2.393-5.71.572A15.554,15.554,0,0,1,29.764,711.544Z" transform="translate(-27.99 -704.9)" fill="#f15a24"/>
      </g>
      <g id="_46b3b8ff" data-name="#46b3b8ff" transform="translate(33.662 31.705)">
        <path id="Path_352" data-name="Path 352" d="M158.562,704.82a15.618,15.618,0,0,1,7.769,6.58c1.192,2.053,1.81,6.684,1.81,6.684s-.222.461-2.61,1.858c-1.286.752-7.318,2.383-9.3,3.03-2.311.757-6.511,0-9.327,0h0s-8.82-3.025-9.594-3.576a7.015,7.015,0,0,0-1.364-.781l5.883-3.228a16.509,16.509,0,0,1,4.514-8.688,6.739,6.739,0,0,0,4.723,2.819,7.222,7.222,0,0,0,4.632-.922A6.055,6.055,0,0,0,158.562,704.82Z" transform="translate(-141.612 -704.82)" fill="#f15a24"/>
      </g>
    </g>
  </g>
</svg>
