<svg id="Group_105" data-name="Group 105" xmlns="http://www.w3.org/2000/svg" width="62" height="62" viewBox="0 0 62 62">
  <path id="Path_296" data-name="Path 296" d="M31,0A31,31,0,1,1,0,31,31,31,0,0,1,31,0Z" fill="#fff"/>
  <path id="Icon_awesome-heartbeat" data-name="Icon awesome-heartbeat" d="M19.8,15.345l-3.073,6.146a.989.989,0,0,1-1.787-.037L11.42,13.645,9.565,18.078H3.747L15.031,29.609a1.1,1.1,0,0,0,1.589,0L27.91,18.078H21.164Zm9.491-10.5-.148-.155a8.1,8.1,0,0,0-11.587,0L15.828,6.454,14.1,4.692a8.089,8.089,0,0,0-11.587,0l-.148.148A8.49,8.49,0,0,0,1.917,16.1H8.248l2.22-5.33a.991.991,0,0,1,1.818-.025l3.6,7.995,3.03-6.053a.988.988,0,0,1,1.768,0L22.389,16.1H29.74A8.49,8.49,0,0,0,29.289,4.84Z" transform="translate(15.171 15.903)" fill="#f15a24"/>
</svg>
