<svg width="129" height="44" xmlns="http://www.w3.org/2000/svg">
    <g fill-rule="nonzero" fill="none">
        <path fill="#A7B2B9" d="M49.95 0h1v44h-1z"/>
        <path d="M18.303.26c.623-.078 1.272-.286 1.922-.13-2.364 1.197-4.78 2.628-6.234 4.918-1.402 2.16-1.142 5.074.208 7.181 1.507 2.368 3.61 4.242 5.714 6.063 2.857 2.42 5.792 4.788 8.57 7.312 2.312 2.211 4.65 4.735 5.403 7.936.208.885.182 3.174.182 2.94.571-.702 1.298-1.275 1.896-1.951 3.065-3.435 4.857-8.04 4.727-12.672.078-5.36-2.442-10.59-6.441-14.077-.104 2.108-.598 4.241-1.792 6.01-2 3.045-4.805 5.413-7.558 7.729-.805-.625-1.585-1.327-2.39-1.978 2.364-1.977 4.753-3.981 6.65-6.479 1.402-1.847 2.259-4.371 1.454-6.635-.52-1.691-1.818-2.94-3.143-4.033C26.302 1.43 24.951.754 23.653 0c5.039.39 9.973 2.55 13.583 6.14 5.22 4.919 7.74 12.594 6.416 19.646-.676 4.19-2.702 8.118-5.558 11.24-3.35 3.565-7.922 6.037-12.779 6.74-.597.078-1.22.13-1.818.234 2.442-1.249 4.987-2.706 6.493-5.1.078 0 1.61-3.174.416-5.828-1.091-2.524-3.143-4.424-5.09-6.245-3.819-3.357-7.896-6.35-11.428-9.94-2.364-2.498-4.52-5.724-4.078-9.315-1.87 1.743-3.584 3.72-4.701 6.089a18.963 18.963 0 0 0-1.896 9.627c.286 4.996 2.727 9.836 6.57 13.036-.207-2.862 1.04-5.594 2.832-7.754 1.922-2.238 4.13-4.241 6.415-6.115.78.677 1.558 1.327 2.363 1.978-2.233 1.9-4.493 3.825-6.363 6.115-1.22 1.535-2.155 3.434-1.974 5.438-.026 2.107 1.377 3.877 2.91 5.178 1.324 1.145 2.856 2.003 4.415 2.81-3.429-.286-6.805-1.301-9.766-3.096C5.083 37.573 1.109 31.718.2 25.318c-.285-1.64-.182-3.331-.182-4.996.312-4.684 2.234-9.211 5.299-12.75C8.64 3.72 13.29 1.067 18.303.26z" fill="#001E44"/>
        <path d="M27.349 6c.75 1.56.906 3.452.181 5.04-1.294 2.923-3.857 4.788-5.98 6.96-.078.027-2.304-1.615-3.21-2.617-1.295-1.337-2.641-2.729-3.34-4.566 1.683-.279 3.391 0 5.074-.223 2.175-.334 4.453-.752 6.291-2.144.75-.585 1.036-1.531.984-2.45z" fill="#FBB040"/>
        <path d="M25.701 35.413A14.185 14.185 0 0 1 21.5 26.18V26v.179a14.185 14.185 0 0 1-4.201 9.234L15 37.683c.555.97 1.585 2.169 3.382 3.317h6.236c1.797-1.173 2.827-2.347 3.382-3.316l-2.299-2.27z" fill="#F15A24"/>
        <path d="M28.914 7s1.264 3.035-5.914 8c.027 0 5.323-4.424 5.914-8zM23 31s2.063 6.582 6 8c0 0-4.914-.348-6-8z" fill="#FFF"/>
        <path d="M58.515 31c-.552 0-.972-.16-1.26-.479-.29-.32-.473-.931-.5-1.836-.026-.957-.052-1.915-.157-2.873a20.605 20.605 0 0 0-.394-2.687 16.192 16.192 0 0 0-.998-3.352c-.42-.984-.998-1.862-1.76-2.58-.13-.134-.236-.24-.315-.373a.659.659 0 0 1-.131-.399c0-.346.184-.665.525-.984.342-.32.762-.48 1.26-.48.552 0 1.051.24 1.445.746.394.479.762 1.17 1.05 2.048.342.905.604 1.89.788 2.927a32.21 32.21 0 0 1 .394 3.245c.079 1.091.105 2.155.105 3.193 0 .346.053.585.158.718.105.107.262.16.499.16.525 0 1.05-.16 1.575-.48.526-.318.998-.77 1.418-1.33a7.987 7.987 0 0 0 1.025-1.862 6.492 6.492 0 0 0 .42-2.075 5.35 5.35 0 0 0-.368-2.128 6.178 6.178 0 0 0-1.024-1.783c-.105-.133-.21-.239-.263-.345a.716.716 0 0 1-.078-.32c0-.266.105-.505.315-.771.21-.24.446-.452.735-.612.263-.16.499-.24.709-.24.394 0 .735.293 1.024.905.29.585.525 1.33.71 2.155.262 1.064.472 2.288.577 3.618.105 1.33.158 2.74.158 4.23 0 .4.052.692.13.825.08.133.263.213.526.213.578 0 1.155-.213 1.68-.639.552-.425 1.025-1.01 1.471-1.756.42-.745.762-1.596 1.024-2.554.237-.957.368-1.968.368-3.032 0-.799-.052-1.437-.184-1.943-.131-.505-.236-.85-.341-1.064-.158-.319-.236-.558-.236-.771 0-.24.105-.48.315-.692a3 3 0 0 1 .787-.559c.316-.16.578-.212.788-.212.342 0 .604.16.762.452.157.292.236.665.289 1.117.052.452.052.851.052 1.25 0 1.118-.105 2.315-.341 3.539a24.24 24.24 0 0 1-.998 3.591c-.446 1.171-.945 2.209-1.55 3.166-.603.931-1.286 1.676-2.048 2.262-.761.558-1.575.851-2.442.851-.578 0-.998-.133-1.287-.4-.262-.265-.446-.638-.525-1.09a10.321 10.321 0 0 1-.131-1.676v-1.969c-.736 1.676-1.628 2.953-2.679 3.831-.971.878-2.022 1.304-3.072 1.304zM79.392 30.973c-1.234 0-2.18-.345-2.863-1.064-.682-.718-1.024-1.702-1.024-2.98 0-1.17.263-2.208.762-3.165a5.99 5.99 0 0 1 2.022-2.262 4.976 4.976 0 0 1 2.783-.851c.972 0 1.734.24 2.311.718.578.48.867 1.118.867 1.916 0 .638-.184 1.224-.578 1.756a4.116 4.116 0 0 1-1.55 1.277 4.83 4.83 0 0 1-2.152.479c-.972 0-1.76-.213-2.364-.666.026.745.263 1.357.762 1.81.499.452 1.129.691 1.89.691.473 0 .946-.08 1.445-.266.499-.16.919-.399 1.26-.692.237-.186.447-.292.63-.292a.545.545 0 0 1 .551.559c.001.372-.314.824-.918 1.41-1.077 1.117-2.364 1.622-3.834 1.622zm.367-5.746c.578 0 1.05-.133 1.445-.373.394-.239.578-.558.578-.93 0-.32-.132-.56-.394-.719-.263-.16-.604-.266-1.05-.266-.605 0-1.104.16-1.55.479-.447.32-.762.771-.946 1.33.237.16.526.266.867.346.341.106.683.133 1.05.133zM87.9 30.92c-.472 0-.814-.133-1.05-.399-.237-.266-.342-.718-.342-1.383 0-.32.027-.719.08-1.197.052-.48.104-1.011.157-1.597.105-.691.184-1.436.262-2.208.08-.771.105-1.49.105-2.208 0-.984-.052-2.022-.13-3.086-.08-1.064-.342-1.995-.736-2.793-.158-.32-.21-.56-.21-.719 0-.213.105-.425.289-.612.183-.186.42-.372.682-.505.263-.133.552-.213.788-.213.42 0 .735.186.946.585.21.373.34.905.42 1.57.052.665.105 1.41.105 2.261 0 1.277-.053 2.395-.158 3.352-.105.958-.21 1.783-.315 2.501-.052.479-.131.931-.184 1.357a9.324 9.324 0 0 0-.079 1.144c0 .559.106.984.29 1.224.183.266.498.505.918.745.105.053.21.133.263.186.053.053.079.133.079.266s-.053.346-.184.612a2.194 2.194 0 0 1-.657.771 2.567 2.567 0 0 1-1.339.346z" fill="#001E44"/>
        <path d="M95.7 30.654a4.89 4.89 0 0 1-1.707-.292 2.326 2.326 0 0 1-1.156-1.038c-.289-.479-.42-1.144-.42-1.995V14.106h1.786V27.09c0 .532.079.958.262 1.224.184.266.42.452.71.559.288.106.603.133.918.133h5.857v1.65H95.7zM108.462 30.654v-5.48l-5.2-11.068h1.839l4.254 9.259 4.254-9.259h1.786l-5.173 11.068v5.48zM117.916 30.654V17.432c0-.639.105-1.17.289-1.596.184-.426.42-.772.735-1.011.315-.24.657-.426 1.05-.532.394-.107.762-.16 1.156-.16.657.027 1.366.027 2.127.053.762.027 1.55.027 2.364.053.814.027 1.601.054 2.363.133v1.41h-6.408c-.604 0-1.05.16-1.365.506-.315.32-.5.825-.5 1.463v4.257l7.301.106v1.384l-7.326.106v7.05h-1.786z" stroke="#F15A24" fill="#F15A24"/>
    </g>
</svg>
