<svg width="453" height="239" viewBox="0 0 453 239" xmlns="http://www.w3.org/2000/svg">
    <g fill="none" fill-rule="evenodd">
        <path d="M427.271 238.996c-25.919 0-403.476.079-403.695-.492l-.036-.073s-.037-.07-.037-.105c-.144-.286-58.174-80.49 32.04-136.326 6.213-3.846 10.17-7.46 12.626-10.942C79.667 74.77 58.274 61.451 81.4 41.412c18.534-16.058 38.04-12.683 58.087-9.31 14.844 2.5 29.986 4.998 45.246-.394 6.338-2.238 12.697-5.837 19.063-11.364 3.584-3.106 7.51-5.824 11.717-8.17.645-.36 1.295-.714 1.952-1.057a83.858 83.858 0 0 1 7.818-3.564 92.809 92.809 0 0 1 5.52-1.985h.001c2.976-.966 6.03-1.798 9.15-2.503 4.43-1 8.992-1.743 13.646-2.248 2.029-.222 4.076-.395 6.135-.526C278.51-.894 298.388 1.6 316.609 6.726c20.675 5.816 39.214 15.02 51.589 26.08 4.686 4.191 25.997 25.872 9.198 55.671-10.605 18.817 33.825 36.787 49.614 58.273 40.14 54.625.625 91.534.261 92.246" fill="#D8E3E7"/>
        <path d="M369.055 167.416c-.234-1.195.356-1.474.356-1.474s11.804-3.784 12.79-4.245c.986-.46 8.605-10.865 8.605-10.865s2.884-4.287 5.747-3.792c2.488.43 3.662 2.204 4.207 3.969a5.406 5.406 0 0 1-1.747 5.774c-3.802 3.1-11.423 9.222-13.294 10.051-4.166 1.847-15.941 2.166-15.941 2.166s-.54-.645-.723-1.584" fill="#98BAF4"/>
        <path d="M368.331 165.88c-.633-.33-2.062-1.05-2.104-.844-.032.149.07.38.26.611-.833-.193-1.665-.283-3.529.316-.373.12-.69.376-.86.724-.156.321-.18.702.345.939 1.051.473.723.152 2.19.849s3.153.71 4.066-.021l1.301-.383-.114-2.167s-.769.005-1.555-.024" fill="#ED975D"/>
        <path d="m336.82 237.294-47.52-18.79c-5.125-2.028-7.628-7.804-5.591-12.902l30.501-76.332c2.038-5.1 7.844-7.592 12.97-5.565l8.92 3.528c-.16 2.447 1.029 4.94 3.342 5.855 2.434.962 5.82.841 7.193-1.69l27.554 10.896c-.108.913.04 1.882.448 2.724.86 1.783 3.208 2.486 5.134 1.939a9.872 9.872 0 0 1 .519 8.444l-30.5 76.33c-2.037 5.1-7.844 7.591-12.97 5.563" fill="#FFA412"/>
        <path d="m353.964 199.44-50.94-20.075c-4.087-1.61-6.084-6.201-4.458-10.255l19.69-49.11 18.107 7.137c-.16 2.426 1.024 4.898 3.325 5.804 2.422.955 5.79.835 7.157-1.675l5.59 2.204a7.198 7.198 0 0 0-.22 2.778c.32 2.94 2.258 5.915 5.236 7.088 3.505 1.381 7.444-.938 9.095-4.307l7.712 3.04c-.107.905.04 1.867.445 2.701.857 1.768 3.193 2.465 5.109 1.922.237-.067.466-.153.687-.258a4.005 4.005 0 0 0 1.545-1.297l1.956.772-19.692 49.11c-1.624 4.052-6.256 6.032-10.344 4.42" fill="#FFB93E"/>
        <path d="M346.267 164.603c-2.968-1.147-4.903-4.053-5.221-6.927-.124-1.135.001-2.263.415-3.276a7.015 7.015 0 0 1 3.42-3.641l.012-.005a7.346 7.346 0 0 1 5.892-.259c3.685 1.423 6.262 5.777 4.797 9.357-1.465 3.58-5.63 6.174-9.315 4.751" fill="#FFA412"/>
        <path d="M347.858 165c-.673 0-1.35-.116-2.012-.37-2.545-.975-4.281-3.317-4.796-5.754a8.63 8.63 0 0 1-.05-.886c0-.918.162-1.818.502-2.645.73-1.771 2.08-3.126 3.714-3.924l.013-.005a6.994 6.994 0 0 1 4.867.045c3.465 1.328 5.889 5.394 4.511 8.734-1.114 2.702-3.894 4.805-6.75 4.805" fill="#FFAF28"/>
        <path d="M367.87 151.415c1.508-.754 3.35-.425 4.603.536.495.382.898.858 1.154 1.409.413.892.472 1.866.231 2.75l-.003.005a3.864 3.864 0 0 1-1.988 2.457c-1.873.935-4.518.315-5.42-1.628-.9-1.944-.45-4.594 1.422-5.53" fill="#FFA412"/>
        <path d="M370.05 157c-1.482 0-2.963-.712-3.595-2.056-.914-1.944-.458-4.595 1.44-5.528a4.126 4.126 0 0 1 1.829-.416c.881 0 1.757.26 2.488.712.58.44 1.052.99 1.352 1.626a4.6 4.6 0 0 1 .27 3.175l-.003.006a3.848 3.848 0 0 1-1.88 2.052 4.317 4.317 0 0 1-1.902.429" fill="#FFAF28"/>
        <path d="M351.588 182.559c-.998-2.044-.655-4.586.501-6.343.46-.695 1.041-1.267 1.72-1.637a4.62 4.62 0 0 1 3.431-.422l.007.003c1.31.35 2.476 1.27 3.146 2.64 1.238 2.537.56 6.193-1.838 7.504-2.396 1.31-5.729.793-6.967-1.745" fill="#FFA412"/>
        <path d="M354.847 183c-1.39 0-2.735-.66-3.377-2.023-.728-1.544-.563-3.431.172-4.857.424-.665.96-1.213 1.589-1.567a4.166 4.166 0 0 1 3.168-.404l.007.003c.88.36 1.644 1.065 2.11 2.05.989 2.103.446 5.134-1.47 6.22a4.492 4.492 0 0 1-2.2.578" fill="#FFAF28"/>
        <path d="M326.523 174.599c-2.25-1.955-2.97-5.118-2.26-7.734.28-1.033.781-1.98 1.5-2.735a6.917 6.917 0 0 1 4.306-2.09l.01-.002c1.88-.195 3.835.351 5.341 1.66 2.792 2.426 3.585 7.062 1.043 9.727-2.542 2.661-7.15 3.6-9.94 1.174" fill="#FFA412"/>
        <path d="M329.562 174c-1.242 0-2.445-.371-3.4-1.201-1.758-1.526-2.426-3.915-2.07-6.022.28-1.023.775-1.96 1.487-2.707a6.846 6.846 0 0 1 4.261-2.068l.01-.002a6.001 6.001 0 0 1 3.939 1.457c2.393 2.077 3.072 6.052.893 8.334-1.308 1.37-3.256 2.209-5.12 2.209" fill="#FFAF28"/>
        <path d="M316.686 159.958c-1.663-.279-2.992-1.596-3.482-3.07a3.674 3.674 0 0 1-.158-1.767c.16-.936.66-1.732 1.353-2.286l.005-.003a3.804 3.804 0 0 1 3.012-.778c2.064.344 3.89 2.35 3.541 4.393-.35 2.038-2.207 3.855-4.27 3.51" fill="#FFA412"/>
        <path d="M316.138 160c-.17 0-.343-.013-.516-.043-1.538-.252-2.795-1.37-3.382-2.681a4.433 4.433 0 0 1-.24-1.407c0-.213.02-.424.054-.633a4.28 4.28 0 0 1 1.586-2.64l.006-.004a3.91 3.91 0 0 1 2.717-.54c2.095.346 3.948 2.354 3.593 4.393-.326 1.872-1.938 3.555-3.818 3.555" fill="#FFAF28"/>
        <path d="M344.944 191.681c-1.55.665-3.371.236-4.576-.792a3.84 3.84 0 0 1-1.077-1.469 3.99 3.99 0 0 1-.088-2.75l.002-.006a3.839 3.839 0 0 1 2.116-2.336c1.923-.825 4.533-.06 5.333 1.927.798 1.986.21 4.601-1.71 5.426" fill="#FFA412"/>
        <path d="M343.23 191a3.602 3.602 0 0 1-2.026-.64 3.328 3.328 0 0 1-.948-1.271 3.39 3.39 0 0 1-.077-2.382l.001-.005a2.884 2.884 0 0 1 1.496-1.455 3.202 3.202 0 0 1 1.251-.247c1.178 0 2.363.6 2.81 1.69.608 1.491.16 3.452-1.303 4.071a3.086 3.086 0 0 1-1.204.239" fill="#FFAF28"/>
        <path d="M319.223 134.535c.837-2.842 3.397-4.869 6.05-5.399 1.048-.208 2.11-.184 3.085.117a6.514 6.514 0 0 1 3.66 2.869l.004.009a6.78 6.78 0 0 1 .699 5.432c-1.04 3.529-4.898 6.268-8.348 5.205-3.448-1.064-6.19-4.708-5.15-8.233" fill="#FFA412"/>
        <path d="M325.936 141c-.445 0-.89-.065-1.33-.201-2.956-.922-5.306-4.08-4.415-7.137.654-2.244 2.535-3.903 4.585-4.527.445-.09.894-.135 1.338-.135.587 0 1.164.08 1.715.252a6.459 6.459 0 0 1 3.62 2.872l.006.008a5.945 5.945 0 0 1 .306 4.156c-.759 2.603-3.27 4.712-5.825 4.712" fill="#FFAF28"/>
        <path d="M400 145.601s-3.102 3.508-7.054 2.04c0 0-.85-1.96-.861-3.402a46.45 46.45 0 0 0-.007-.515 57.035 57.035 0 0 0-.078-2.538h.003c.18-.072 6.041-2.364 6.036-2.175-.1 4.399 1.961 6.59 1.961 6.59" fill="#FFB27D"/>
        <path d="M397.996 139.044c-.621 1.079-2.756 3.187-5.91 3.956-.023-1.755-.086-2.74-.086-2.74h.004c.178-.045 6.176-1.533 5.992-1.216" fill="#ED975D"/>
        <path d="M390.97 140.718s6.232 1.53 7.084-2.535c.854-4.065 2.232-6.605-1.71-7.753-3.944-1.148-5.046.227-5.647 1.511-.6 1.285-1.327 8.276.273 8.777" fill="#FFB27D"/>
        <path d="M397.83 139.904c.087.057.599.969 3.203-4.225.409-.816 1.55-3.069.596-4.627-.952-1.559-3.933-2.452-6.74-2.985-2.806-.533-2.065 2.3-4.232 2.185-.36-.018-.466.171-.52.297-.468 1.088.316 2.544 1.496 2.628 1.03.073 1.735-.225 2.365-.027 1.01.318 1.366 1.912 1.443 2.423.075.511.19.935 1.461.48 1.27-.456.574 1.801.372 2.234 0 0-.173 1.15.556 1.617" fill="#233862"/>
        <path d="M405.12 239h3.76c.788 0 1.664-.849 1.884-2.404.22-1.558 1.84-2.406 2.19-3.68.352-1.275-1.446-3.067-1.446-3.067l-.3-.415-.312-.434-2.98.755s-.074.763-.12 1.735c-.032.703-.05 1.514-.011 2.226.087 1.7-.443 3.528-1.844 3.859-1.403.33-.822 1.425-.822 1.425M387 239h10.294c.1-.02.173-.043.219-.067.687-.368.472-3.187.39-4.056l-.027-.257s-3.621-3.099-4.118-.725a4.537 4.537 0 0 1-.054.218v.002c-.629 2.22-3.438 3.228-5.06 3.509-1.24.216-1.562.99-1.644 1.376" fill="#202F54"/>
        <path d="M389 179.942s.536 6.79 1.168 14.955c.856 11.09 1.888 24.712 1.99 27.292.177 4.482.884 11.65.884 11.65s1.679 1.702 5.037.985c0 0 2.994-10.233 3.849-21.06l.04-.535C402.762 202.21 404 179 404 179l-15 .942" fill="#2B478B"/>
        <path d="M389 178.948s.536 6.836 1.168 15.056L401.928 213l.04-.54C402.762 201.366 404 178 404 178l-15 .948" fill="#233862"/>
        <path d="M393 178.298s5.288 22.638 9.326 35.143c4.037 12.506 4.207 18.559 4.207 18.559s4.575-.928 5.072-1.853c0 0 1.568-21.418-1.544-27.539-1.758-3.46-1.462-11.475-1.462-15.126 0-6.764-2.033-13.482-2.033-13.482L393 178.298" fill="#2B478B"/>
        <path d="M411 188.592c.065.41-20.084 4.23-22.786 1.327-.053-.056-.337-8.431-.568-14.957-.103-3.035-.198-5.67-.25-6.88a25.725 25.725 0 0 0-.032-.626l-.03-.423c-.164-2.37-.283-4.704-.321-6.782-.033-1.8-.005-3.408.108-4.676.021-.261.05-.506.08-.736.41-3.117 1.92-5.308 3.334-6.956l1.168-1.294c1.328.115 2.694-.115 3.992-.948 1.403-.902 2.766-.637 3.048-.478 2.177 1.275 4.077 3.292 5.256 7.546.635 2.29 6.937 35.43 7.001 35.883" fill="#B0D0FF"/>
        <path d="M394.084 126.457s-.636-3.143 1.588-5.14c2.226-1.999 5.227-1.57 6.906.266.519.568 3.476-.006 5.157 1.776 1.683 1.782 1.39 4.61.811 5.905-.529 1.189 1.244 3.733-1.152 5.645-2.81 2.24-7.097.336-7.097.336s-2.943-8.76-6.213-8.788" fill="#739AF0"/>
        <path d="M390 130.531s10.365.866 9.803 8.469l4.197-5.645s-.308-7.255-10.012-7.355L390 130.531" fill="#AFCDFB"/>
        <path d="M400 159s-3.16 13.375-12.737 16c-.108-2.907-.208-5.43-.263-6.588L400 159" fill="#98BAF4"/>
        <path d="M371.986 172.536c-.676-.22-2.199-.697-2.204-.482-.003.154.136.369.363.568-.848-.048-1.678.005-3.392.932-.343.186-.61.5-.713.88-.096.35-.054.739.5.885 1.111.292.735.026 2.288.472 1.556.446 3.205.166 3.969-.73l1.203-.611-.492-2.161s-.75.14-1.522.247" fill="#ED975D"/>
        <path d="M372.175 173.586c-.447-1.12.102-1.496.102-1.496s11.288-5.729 12.206-6.347c.918-.619 6.802-12.057 6.802-12.057s2.165-4.668 5.153-4.686c2.595-.015 4.096 1.506 4.96 3.128 1.028 1.931.716 4.282-.756 5.916-3.304 3.674-9.944 10.95-11.694 12.082-3.893 2.518-15.761 4.874-15.761 4.874s-.66-.533-1.012-1.414" fill="#B0D0FF"/>
        <path d="M397.932 143s1.42 1.215.985 1.963c0 0-3.302 2.266-7.917 2.018 0 0 .46-.68 1.21-.996.752-.316 4.873-1.89 5.722-2.985" fill="#98BAF4"/>
        <path fill="#AFCDFB" d="M255 201h2v-51h-2zM288 216h2v-67h-2z"/>
        <path d="M234.25 71.664c.537.95 2.777-.394 3.175-.605.538-.205 1.415-.06 1.415-.06s.434-2.249-.128-2.214c-.737.045-3.262-1.022-3.872-.736-.608.286-1.186 2.594-.59 3.615" fill="#ED985F"/>
        <path d="M262.299 36.016c.079-.27 11.242 2.996 11.34 3.44.895 4.1.016 5.015-1.426 4.247-.926-.493-3.525 3.297-3.525 3.297L261 37.063l1.299-1.047" fill="#2C3A64"/>
        <path d="M238.353 67.859 238 69.725s.114.041.317.1c.645.184 2.198.65 3.988 1.087 1.953.494 4.201.973 5.856 1.07.62.037 1.154.02 1.559-.07 2.27-.495 6.567-2.97 9.797-5.834.086-.067.159-.14.234-.212 1.695-1.526 3.072-3.152 3.646-4.64.36-.907.534-1.735.586-2.49a6.682 6.682 0 0 0-.31-2.552 1.147 1.147 0 0 0-.113-.322c-.397-1.084-.945-1.679-.945-1.679-.292-.272-.725-.23-1.253.055l-.005.014c-.43.224-.947.612-1.497 1.138-.021.009-.04.018-.046.033-.115.105-.237.226-.377.357-.04.018-.069.058-.093.081-.272.28-.55.574-.833.885-3.104 3.289-7.016 8.557-9.178 9.766-.399.222-1.28.416-2.378.588-1.472.226-3.335.407-4.95.537-2.025.154-3.652.222-3.652.222" fill="#ED985F"/>
        <path d="M246.032 67.079c-.097 1.06-.05 3.055 1.217 4.902.626.038 1.165.021 1.574-.07 2.29-.497 6.628-2.983 9.889-5.859.087-.067.16-.14.236-.213 1.711-1.532 3.1-3.165 3.68-4.66.364-.91.54-1.741.592-2.5a6.68 6.68 0 0 0-.312-2.563 1.148 1.148 0 0 0-.115-.324c-.4-1.088 1.207-2.749 1.207-2.749-.294-.273-2.892.832-3.426 1.118l-.005.014c-.434.226-.956.615-1.51 1.144-.022.008-.042.018-.047.032-.117.106-.24.227-.38.36-.04.017-.07.057-.095.08-.274.282-.555.577-.84.889-3.134 3.303-7.082 8.594-9.265 9.808-.402.223-1.293.419-2.4.59" fill="#B0D0FF"/>
        <path d="m263 142.242 1.947.758s8.452-12.26 9.492-23.047c.185-1.926.123-3.792-.278-5.515l.227-1.366.243-1.459c.274-1.647.653-3.9 1.086-6.466.994-5.903 2.281-13.45 3.283-18.999l-.525-.176-5.672-1.914-1.174-3.895L267.406 79s-.943 1.93-1.787 11.051a70.446 70.446 0 0 0-.404 3.947c-.328 4.367-.352 9.784.403 15.977a86 86 0 0 0 .741 4.903c.222 1.233.256 2.913.162 4.842-.426 8.818-3.521 22.522-3.521 22.522" fill="#F99746"/>
        <path d="M265 94.966 274.982 114c.072-.406.162-.895.264-1.456.298-1.643.71-3.892 1.181-6.452 1.082-5.891 2.483-13.422 3.573-18.959l-.571-.175-6.173-1.91-1.276-3.887L267.384 80s-1.026 1.927-1.944 11.028a64.662 64.662 0 0 0-.44 3.938" fill="#ED7D2B"/>
        <path d="m270 82.679.221-1.91C273.93 81.76 283.84 78 283.84 78s3.591 3.177 3.12 10.793c-.23 3.717-.651 19.512-1.089 24.186-.16 1.694-.3 2.9-.355 3.381l-.002.005a.686.686 0 0 0 .107.414 21.785 21.785 0 0 1 1.622 3.43c4.311 11.557-.663 25.791-.663 25.791l-1.292-.524s-2.831-15.84-5.13-22.837c-.392-1.187-.765-2.12-1.109-2.677-1-1.624-1.929-4.278-2.77-7.434-1.593-5.967-2.875-13.73-3.728-19.72-.117.005-2.55-10.13-2.55-10.13" fill="#F99746"/>
        <path d="M262 59.972c1.224.546 2.704.918 4.493 1.012 6.707.354 8.229-5.304 8.507-9.058-.967-.337-1.813-.305-2.302-.28a22.05 22.05 0 0 0-1.382.12c-.82-.412-2.294-2.415-3.145-5.766l-.29.13-4.84 2.188s.515 1.516.894 2.966c.296 1.135.51 2.23.33 2.538-.38.149-.608.243-.608.243l-.002.005c-.048.119-1.102 2.699-1.655 5.902" fill="#FFB27D"/>
        <path d="M260.502 62.643c.05.13.104.255.163.384 1.663 3.522 2.498 36.038 2.498 36.038-.439 2.623 20.99 2.93 25.837-1.284 0 0-1.972-25.608-9.542-44.948l-2.175 1.824c-.36-.264-.82-.374-.786-.705.015-.155.036-.312.06-.467.255-1.639.95-3.125.95-3.125-1.76-.7-6.246-.163-6.246-.163l-3.36 2.496-3.54-.44c-2.81 1.086-4.361 2.458-4.361 2.458 1.693 1.08-.808 4.516.502 7.932" fill="#B0D0FF"/>
        <path d="M263 47.548s.532 1.763.923 3.452c2.922-.884 3.81-4.215 4.077-6l-5 2.548" fill="#ED985F"/>
        <path d="M262.241 49s6.691.106 6.69-4.322c-.004-4.429.859-7.397-3.414-7.652-4.27-.255-5.102 1.435-5.438 2.913-.339 1.478.42 8.919 2.162 9.06" fill="#FFB27D"/>
        <path d="M260.757 38.29c1.068-1.239 1.876-.968 2.33-.597 3.774-1.991 6.215.941 6.215.941.467 2.953 2.698 4.642 2.698 4.642s-1.258.746-4.164.036c-.888-.217-1.682-.819-2.357-1.549 1.18 1.882 2.783 3.237 2.783 3.237-3.474-1.528-4.876-6.14-5.014-6.627-.423.363-1.253 1.151-1.506 1.923-.343 1.049-.493 3.207-1.153 3.135 0 0-1.431-3.28.168-5.14" fill="#2C3A64"/>
        <path d="M279 147h9.946s.238-1.622-.282-2.854c-.497-1.181-1.277-1.717-1.09-3.146-.633.696-1.663 1.476-3.1 1.27-.176.304-1.137 1.94-1.726 2.393-.65.5-3.549.322-3.748 2.337M257 147h9.895s.37-1.845-.28-3.1c-.575-1.111-.354-1.744.072-2.662-.448.215-1.03.41-1.666.366-.493-.032-1.015-.293-1.473-.604-.425.567-2.249 2.982-2.818 3.461-.647.543-3.53.35-3.73 2.539" fill="#2B478B"/>
        <path d="M271.986 62.416a.534.534 0 0 0-.6-.409.467.467 0 0 0-.372.577.533.533 0 0 0 .6.409.467.467 0 0 0 .372-.577M264.987 62.416a.534.534 0 0 0-.6-.409.467.467 0 0 0-.373.577.534.534 0 0 0 .6.409.468.468 0 0 0 .373-.577M272.987 70.416a.534.534 0 0 0-.6-.409.469.469 0 0 0-.374.577.536.536 0 0 0 .601.409.468.468 0 0 0 .373-.577M265.987 70.416a.535.535 0 0 0-.601-.409.469.469 0 0 0-.373.577.535.535 0 0 0 .6.409.469.469 0 0 0 .374-.577" fill="#233862"/>
        <path d="M279 60s-.71 21.53-15.77 23l-.23-4.6 8.19-6.9L279 60" fill="#98BAF4"/>
        <path d="m256 78.83.563 2.17s.71-.132 1.836-.35c.335-.066.523-.11.523-.11.918-.198 2.002-.439 3.17-.724h.023c1.627-.416 3.443-.898 5.07-1.424.376-.11.751-.241 1.106-.373.25-.087.48-.175.709-.263L265.58 73a10.75 10.75 0 0 1-.795.548c-1.398.942-2.985 1.907-4.424 2.762-.897.548-1.754 1.03-2.463 1.446-1.147.658-1.898 1.074-1.898 1.074" fill="#FFB27D"/>
        <path d="M265 73.659c.59 2.065 1.432 3.435 2.269 4.341.354-.109.703-.22 1.038-.334 1.263-.439 2.362-.91 3.109-1.38.075-.044.137-.09.213-.15 1.783-1.288 3.9-5.077 5.544-9.139.23-.56.443-1.121.656-1.667.762-2.03 1.372-4.032 1.738-5.759.23-1.03.38-1.97.411-2.743.015-.273.032-.53.015-.773-.03-4.395-2.224-5.002-2.224-5.002-.046-.015-.092-.03-.153-.044-.38-.06-.776.196-1.187.697-.52.62-1.067 1.636-1.631 2.863-.87 1.955-1.783 4.486-2.636 7.002-.472 1.38-.93 2.76-1.386 4.032-.26.773-.519 1.5-.761 2.167-.474 1.273-.9 2.304-1.28 2.955-.246.424-.946 1.015-1.875 1.682-.55.397-1.183.82-1.86 1.252" fill="#B0D0FF"/>
        <path d="M267 33.475s.166-3.332 2.882-4.819c2.718-1.486 5.607-.29 6.828 2.014.378.713 3.473.87 4.71 3.121 1.238 2.25.243 5.073-.656 6.256-.822 1.084.316 4.137-2.55 5.493-3.36 1.588-7.169-1.443-7.169-1.443s-.787-9.77-4.045-10.622" fill="#739AF0"/>
        <path d="M263 35.508s9.107 3.207 6.819 10.492l5.094-4.547s1.426-7.142-7.267-9.453L263 35.508" fill="#B0D0FF"/>
        <path d="M272 51.187s-.958-.818-1.79-1.187c0 0-2.21 2.319-2.21 2.76 0 .443.508 1.24.508 1.24s1.7-.291 3.492-2.813" fill="#8CB8ED"/>
        <path d="M264.68 52s-1.001.912-.574 1.715c0 0 3.36 2.532 7.894 2.265 0 0-.452-.729-1.19-1.068-.738-.339-5.296-1.736-6.13-2.912" fill="#739AF0"/>
        <path d="m252 5.709-24.149 49.14-.216.438-.352.718-11.617 23.639-1.266 2.58-12.594 25.625c-.599.052-1.202.101-1.806.151l12.77-25.986 1.268-2.585 12.5-25.435.714-1.452L250.616 5l1.384.709M255 8.05c-.663.997-11.662 22.843-24.19 47.838-.843 1.688-1.698 3.39-2.554 5.1-3.185 6.357-6.43 12.84-9.591 19.163l-1.287 2.571c-.096.195-.195.389-.29.583-2.01 4.02-3.977 7.953-5.862 11.73-1.73 3.458-3.39 6.783-4.954 9.92-.491.978-.97 1.938-1.439 2.878-.607.056-1.217.113-1.833.167.355-.71.837-1.677 1.43-2.87.887-1.77 2.02-4.041 3.349-6.7.252-.502.51-1.017.774-1.548 2.03-4.063 4.45-8.905 7.096-14.196.03-.063.062-.124.094-.187.424-.85.854-1.708 1.287-2.578h.001a6163.47 6163.47 0 0 1 4.431-8.852c1.871-3.742 3.789-7.578 5.711-11.417.183-.364.365-.725.546-1.089.557-1.112 1.103-2.196 1.634-3.26C253.303 7.515 253.64 7.193 253.842 7l1.07 1.15c.053-.052.083-.095.088-.1M231 33.964l-.744.95-32.758 41.808-2.01 2.564-20.325 25.94-2.151 2.743c-.67.01-1.34.022-2.012.031l2.14-2.733 20.457-26.107 2.013-2.572L229.765 33l.95.74.285.224M223 39.116 186.306 77.45l-2.535 2.647L155.147 110c-.719-.014-1.434-.03-2.147-.046l2.586-2.703L221.876 38 223 39.116M265 66.964l-.742.95-57.246 73.056c-.67.01-1.34.022-2.012.03l22.597-28.84 2.014-2.571L263.767 66l.95.74.283.224M255 77.09 188.158 149c-.722.001-1.441-.002-2.158-.004l2.548-2.743L253.85 76l1.15 1.09" fill="#FFD6A1"/>
        <path fill="#FFD6A1" d="m207.5 98-1.5-.574L238.5 16l1.5.574L207.5 98M212.869 107.593 210 110C225.477 77.4 257.849 8.991 258.488 7l1.512.42c-.512 1.926-42.514 90.444-47.131 100.173M217.873 112.231 214 117 262.56 9l1.44.64-46.127 102.591"/>
        <path d="m208.491 106-1.491-.538C218.388 74.437 240.03 15.186 240.438 13l1.562.283c-.525 2.834-32.161 89.048-33.509 92.717M209.19 109.958 207 111l44.606-96 1.394.669-43.81 94.289" fill="#FFD6A1"/>
        <path d="M256 78.745s-.917-.386-2.211-.597c-.808-.132-1.857-.253-1.785 0 .072.251 1.774.72 1.823.83.05.11 2.173-.233 2.173-.233" fill="#FFB27D"/>
        <path d="M249.823 80.877c.349.277 3.128 1.403 4.186 1.058.59-.193 2.647-.72 3.477-.932A695.74 695.74 0 0 0 259 80.7L258.106 78s-.034.005-.108.033c-.341.122-.996.457-1.851.59-1.055.163-2.37-.525-3.056-.135-1.45.824-3.45-.012-3.911.428-.348.33-.221 1.273.643 1.96M233.305 68.189c.223-.487.687-1.293 1.834-1.178 1.366.137 3.834 1.449-.97 3.857-1.428.717-1.321-1.679-.864-2.68" fill="#FFB27D"/>
        <path d="M91.48 143H68.52c-2.486 0-4.52-2.026-4.52-4.5 0-2.476 2.034-4.5 4.52-4.5h22.96c2.486 0 4.52 2.024 4.52 4.5 0 2.474-2.034 4.5-4.52 4.5" fill="#6385DB"/>
        <path d="M252.48 143h-22.96c-2.485 0-4.52-2.026-4.52-4.5 0-2.476 2.035-4.5 4.52-4.5h22.96c2.485 0 4.52 2.024 4.52 4.5 0 2.474-2.035 4.5-4.52 4.5" fill="#739AF0"/>
        <path d="M238 105v113.79c0 10.61-8.549 19.21-19.095 19.21h-112.81C95.548 238 87 229.4 87 218.79V105h151" fill="#6385DB"/>
        <path d="M238 105v113.79c0 10.61-8.54 19.21-19.076 19.21h-86.846C121.542 238 113 229.4 113 218.79V105h125" fill="#739AF0"/>
        <path d="M239.211 110H85.79c-1.535 0-2.79-1.35-2.79-3s1.255-3 2.79-3H239.21c1.534 0 2.789 1.35 2.789 3s-1.255 3-2.789 3" fill="#4C79C9"/>
        <path d="M229.95 157.176v-30.22s.907-10.066-6.215-10.861c-7.12-.795-9.708 3.444-8.415 10.862 1.294 7.417-1.033 48.48 2.33 51.66 3.362 3.178 10.087 3.178 11.381 0 1.293-3.18.919-21.441.919-21.441" fill="#88B3FF"/>
        <path d="M201.766 164c-.004-.21-.379-21.02-.932-36.556-.6-16.907-4.23-27.135-9.958-28.064-2.468-.4-4.646.496-6.475 2.665-1.45 1.72-1.836 3.054-1.842 3.073H180c1.094-3.14 4.974-9.013 11.225-8.003 9.425 1.528 11.465 19.606 11.844 30.246.553 15.557.928 36.388.931 36.597l-2.234.042" fill="#FFD6A1"/>
        <path d="M173.003 236.832c.019.935.127 1.82.44 2.168H186c-.16-.49-.613-1.231-1.901-1.457-1.465-.255-3.51-2.047-4.843-3.571-.474-.542-1.068-.154-1.222-.9-.59-2.845-4.884.872-4.884.872s-.174 1.498-.147 2.888" fill="#182D4F"/>
        <path d="M154.003 236.832c.017.935.127 1.82.44 2.168H167c-.16-.49-.611-1.231-1.9-1.457-1.465-.255-3.748-1.018-5.081-2.544a4.178 4.178 0 0 1-.984-1.927c-.59-2.845-4.887.872-4.887.872s-.172 1.498-.145 2.888" fill="#1A2F51"/>
        <path d="M177.812 234.716c-1.34.432-3.113.384-4.742-.235-1.051-.4-7.355-15.914-7.736-23.41-.03-.546-.136-1.307-.303-2.235-.348-1.934-.956-4.594-1.658-7.526-1.882-7.863-4.428-17.698-4.372-20.84.085-4.88 14.429-1.024 14.429-1.024s.987 4.003 1.184 9.798c.389 11.5 1.46 30.928 4.372 44.421.124.572-.618.873-1.174 1.051" fill="#233862"/>
        <path d="m171 182.77-9.791 52.68s-4.209 1.238-7.133 0c0 0-1.703-28.594-1.514-35.751.188-7.155-1.62-19.148.412-20.47 2.03-1.324 18.026 3.541 18.026 3.541" fill="#2B478B"/>
        <path d="M166 144s6.354 1.139 7.804 3.487c2.074 3.359 7.11 14.549 7.195 20.168.116 7.567-7.729 10.112-8.689 7.125-.796-2.48-2.747-18.01-4.163-22.827L166 144" fill="#CFE5FF"/>
        <path d="M176 197.849s-3.082 2.508-9.297 3.074c-.7.18-12.633.18-17.685-1.562-.104-.036.264-10.77.692-21.842l.001-.053c.045-1.124.088-2.257.13-3.377l.059-1.443c.13-3.304.26-6.499.378-9.304.233-5.504.42-9.493.472-9.81.187-1.077.359-1.995.549-2.79.55-2.322 1.233-3.594 2.726-4.686.146-.111 1.338-.716 2.39-1.242.872-.433 1.647-.814 1.647-.814h.002s11.485.328 12.586 3.22c1.104 2.893 5.35 50.629 5.35 50.629" fill="#CFE5FF"/>
        <path d="M164.616 145.368c-.63.12-1.444.682-2.212.628-1.506-.105-3.075-1.083-4.404-1.927.907-2.088 1.277-3.737 1.41-4.805.008-.057.013-.11.018-.164.061-.553.052-.928.025-1.1h4.825s1.321.582 1.321.983c0 .216.002.421.005.617.009.537.031 1.003.06 1.404.093 1.308.249 1.923.249 1.923s.59 2.085-1.297 2.44" fill="#FFB27D"/>
        <path d="M166 140.81c-3.451.894-5.454-1.63-5.903-2.278-.064-.092-.097-.147-.097-.147.038-.024.075-.046.115-.068 1.285-.696 4.2-.142 5.828.655.008.703.03 1.313.057 1.839" fill="#E2915A"/>
        <path d="M157.9 136.762c.64 3.479 5.081 3.364 7 3.146.541-.061.88-.132.88-.132.61-.163.95-1.133 1.107-2.402.314-2.514-.082-6.204-.502-7.147-.631-1.42-1.823-2.956-6.297-1.848-4.472 1.11-3.008 3.925-2.188 8.383" fill="#FFB27D"/>
        <path d="M166.926 130.146c-.614-.855-1.916-1.899-3.099-2.543-2.541-1.382-5.792.044-5.805.05-3.672 1.623-1.439 9.71-.317 9.334.874-.293.296-.721.678-1.066.462-.415 1.108.09 1.316.478.179.275.503.37.805.179 1.142-.727.4-2.179 1.491-3.067 1.093-.89 3.307-.142 4.945-.852 2.144-.802.45-1.868-.014-2.513" fill="#233862"/>
        <path d="M163 138.549s.73.601 1.91.415c.7-.11 1.09-.934 1.09-.934s-1.342-.218-3 .519" fill="#CFE5FF"/>
        <path d="M160 153.5a.5.5 0 1 1 1 0 .5.5 0 0 1-1 0M166 152.5a.5.5 0 1 1 1.001 0 .5.5 0 0 1-1.001 0M160 160.5a.5.5 0 1 1 1.001 0 .5.5 0 0 1-1.001 0M166 160.5a.5.5 0 1 1 .998-.001.5.5 0 0 1-.998 0M161 167.5a.5.5 0 1 1 1 .001.5.5 0 0 1-1-.002M167 165.5a.5.5 0 1 1 1.001 0 .5.5 0 0 1-1.001 0" fill="#233862"/>
        <path d="M161.907 176.981s-2.881 1.973-12.907.429l.139-3.393.061-1.45c.14-3.319.278-6.528.403-9.346 1.594-2.447 2.925-4.221 2.925-4.221s-.127 6.719 2.86 8.804c7.904 5.515 6.519 9.177 6.519 9.177M163.924 126.497s.609-3.183-1.613-5.18c-2.223-1.999-5.22-1.57-6.896.266-.52.568-3.473-.006-5.154 1.776-1.679 1.782-1.384 4.61-.808 5.905.529 1.189-1.242 3.732 1.151 5.644 2.806 2.241 7.088.338 7.088.338s2.967-8.722 6.232-8.749" fill="#AFD1F2"/>
        <path d="M167 130.53s-9.623.865-9.103 8.47L154 133.354s.287-7.254 9.298-7.354l3.702 4.53" fill="#CFE5FF"/>
        <path d="M173 177.997s.188-19.997.773-19.997c.584 0 2.227 4.57 2.227 8.164 0 4.524-1.981 12.005-3 11.833" fill="#AFD1F2"/>
        <path d="M323.572 238H186.868c-4.156 0-7.955-2.34-9.826-6.05L169 216h171l-7.315 16.126a10.009 10.009 0 0 1-9.113 5.874" fill="#E86234"/>
        <path d="M378 214.5c0 5.246-55.292 9.5-123.5 9.5-68.207 0-123.5-4.254-123.5-9.5 0-5.247 55.293-9.5 123.5-9.5 68.208 0 123.5 4.253 123.5 9.5" fill="#F77D48"/>
        <path d="M340.58 214.547c-.034.013-.067.022-.104.032-2.796.813-6.148 1.577-9.98 2.284-.844.157-1.713.31-2.606.458-3.06.519-6.389 1-9.951 1.442-.878.111-1.77.219-2.676.322-3.227.372-6.628.713-10.188 1.021h-.001c-1.318.115-2.658.225-4.018.33l-.009.001c-5.022.385-10.32.707-15.839.958-.593.026-1.19.053-1.788.077-1.44.061-2.898.116-4.366.167l-.412.013a615.83 615.83 0 0 1-23.834.341c-17.345-.073-33.494-.838-47.178-2.108l-.587-.056h-.002a347.61 347.61 0 0 1-6.11-.63l-.089-.01h-.002l-.508-.056a300.627 300.627 0 0 1-5.373-.663c-18.41-2.447-29.945-5.96-29.945-9.861 0 0-.24-1.594 1.242-3.33 4.562-5.361 17.92-16.015 43.491-17.164 19.349-.87 33.5 3.358 42.069 7.133 6.415 2.83 9.705 5.41 9.705 5.41l.002-.002c.02-.014.128-.097.325-.239 1.001-.714 4.274-2.907 9.494-5.048 8.773-3.595 23.05-7.041 41.316-3.073 10.923 2.372 18.03 5.672 22.505 9.006 8.299 6.18 7.569 12.485 5.418 13.245" fill="#FFE6C2"/>
        <path d="M296 195.232s14.682-1.592 25.565 3.57c10.885 5.161 13.937 9.59 13.37 12.8-.564 3.21-16.442 2.27-16.442 2.27s-10.083-1.98-10.804-2.27c-.72-.29-11.689-16.37-11.689-16.37" fill="#FFE6C2"/>
        <path d="M288.948 217.892c-.3 1.547-1.854 2.515-3.02 3.035-.609.024-1.22.05-1.833.073.969-.263 3.962-1.734 4.27-3.333.123-.629-.136-1.347-.77-2.137-3.064-3.813-12.328.05-12.421.09l-.174-.815c.024-.01 2.427-1.018 5.194-1.52 3.771-.682 6.394-.14 7.8 1.608.823 1.022 1.141 2.031.954 2.999" fill="#EA9678"/>
        <path d="M323.975 212.93c-.195 1.694-1.495 3.285-3.867 4.722a19.81 19.81 0 0 1-1.963 1.035c-.885.108-1.785.212-2.698.313 2.405-.998 7.654-3.705 7.941-6.212.13-1.143-.493-2.353-1.85-3.598-3.322-3.045-11.509-5.13-20.861-5.313-11.018-.217-21.835 2.11-30.478 6.55l-.199-.813c8.707-4.474 19.606-6.82 30.685-6.6 9.453.187 17.764 2.323 21.17 5.447 1.58 1.45 2.292 2.953 2.12 4.47" fill="#EA9678"/>
        <path d="M179.946 167s1.027 9.497-5.898 14L172 178.49l3.3-9.42 4.646-2.07" fill="#CFE5FF"/>
        <path d="m134.297 163.457 1.466-1.803c.56-.69 1.72-.861 2.57-.382l53.923 30.49c.287.163.678.109.863-.119l.33-.407c1.027-1.261 2.698-2.11 4.579-2.323 1.883-.214 3.837.22 5.363 1.194l20.365 12.984c.255.163.32.453.147.663l-.357.442c-.189.232-.588.283-.875.113l-21.023-12.412c-.896-.573-2.001-.819-3.11-.692-.42.048-.819.147-1.183.292-.414.164-.442.63-.05.85l24.156 13.505c.282.157.362.462.182.684l-.394.484c-.182.224-.56.282-.846.13l-24.967-13.137c-.287-.151-.665-.094-.845.129l-.42.517c-.182.224-.1.528.185.686l24.601 13.58c.284.157.367.463.185.686l-.37.456c-.18.222-.556.28-.843.132l-24.735-12.811c-.399-.206-.911-.004-.938.37-.025.338.02.682.135 1.026.294.884 1.01 1.617 2.017 2.064l22.166 10.961c.303.152.4.47.212.702l-.226.275c-.172.21-.52.276-.804.15l-22.67-10.074c-1.71-.761-2.978-2.057-3.479-3.56-.504-1.504-.2-3.094.833-4.363.185-.23.095-.542-.2-.695l-55.376-28.712c-.871-.451-1.127-1.386-.567-2.075" fill="#2B478B"/>
        <path d="M157 175.087s1.3-.285 1.914.175c.616.46 2.152.738 2.084 1.206-.067.465-1.987.666-2.496.437-.506-.23-1.502-1.818-1.502-1.818" fill="#FFB27D"/>
        <path d="M156.574 176.171c-.693.373-.773 1.192-.16 1.654.975.739 2.239 1.684 2.549 1.87.523.317 3.312.577 4.037-.242 0 0-2.34-.841-2.673-2.146-.355-1.389-3.44-1.306-3.44-1.306l-.313.17" fill="#FFB27D"/>
        <path d="M156.345 178s-12.066-2.967-13.228-11.079c-1.024-7.153 4.96-17.894 6.532-19.696 1.836-2.104 5.186-2.842 7.036-3.096l.224-.03c.65-.08 1.067-.097 1.091-.099l-.387 1.317c-.096.321-.204.693-.324 1.108-1.136 3.898-4.688 13.375-5.832 18.592-.729 3.32 6.158 9.937 6.334 9.95L156.345 178" fill="#CFE5FF"/>
        <path d="M157 144.845s.788-1.193 1.588-1.845c0 0 3.223 1.967 3.37 2.462.148.496-.147 1.536-.147 1.536s-1.982.16-4.811-2.153" fill="#AFD1F2"/>
        <path d="M172 178.568s.24 3.069.914 3.376c.675.308 1.943-.72 2.078-1.357.137-.639-1.547-2.534-2.222-2.584-.674-.05-.77.565-.77.565" fill="#FFB27D"/>
        <path d="M166.048 143s1.19.93.909 1.911c0 0-2.971 3.4-7.957 4.089 0 0 .325-.906 1.05-1.442.724-.536 5.36-3.074 5.998-4.558" fill="#BDD8F4"/>
        <path d="M270.23 220.887a745.89 745.89 0 0 1-6.555.089c-1.943.016-3.9.024-5.874.024-.638 0-1.273-.002-1.908-.003l-.867-.003c-17.294-.07-33.394-.796-47.038-2l-.586-.054h-.001c-2.09-.187-4.122-.386-6.091-.596l-.005.014c-.028-.006-.058-.016-.085-.024h-.002l-.482-.132c-1.777-.506-3.172-1.038-4.142-1.593a5.945 5.945 0 0 1-.63-.407c-.628-.466-.954-.944-.954-1.434 0 0-.164-.988.862-2.061 1.627-1.714 4.872-4.3 10.064-6.498 4.873-2.066 11.463-3.793 20.035-4.137 1.921-.078 3.77-.09 5.543-.048l.011.001c10.575.256 18.484 2.46 23.563 4.465 4.44 1.755 6.716 3.352 6.716 3.352s12.35 7.29 8.426 11.045" fill="#FFE6C2"/>
        <path d="m256 221-.88-.003c-1.862-2.125-4.637-5.024-8.077-7.82-6.006-4.886-15.33-10.458-25.62-9.239-5.66.67-13.395 2.78-18.098 9.048a17.788 17.788 0 0 0-2.718 5.227l-.005.016c-.028-.007-.059-.017-.086-.026h-.001l-.515-.056.025-.083a18.516 18.516 0 0 1 2.861-5.575c2.661-3.568 8.027-8.082 18.486-9.316 10.452-1.237 19.897 4.406 25.982 9.358 3.79 3.084 6.78 6.292 8.646 8.469" fill="#EA9678"/>
        <path d="m264 220.99-1.092.01a80.33 80.33 0 0 0-10.075-8.235c-7.526-5.168-19.205-11.062-32.097-9.774-7.09.707-16.78 2.943-22.669 9.571a18.407 18.407 0 0 0-2.817 4.171c-.192.395-.356.768-.493 1.11-.254-.028-.506-.06-.757-.091.162-.431.366-.907.615-1.417a19.432 19.432 0 0 1 2.9-4.297c1.552-1.757 3.836-3.73 7.157-5.468 3.813-2 8.996-3.688 16.002-4.388 3.365-.335 6.647-.191 9.796.298l.012.002c9.096 1.417 17.078 5.71 22.739 9.599A81.232 81.232 0 0 1 264 220.99" fill="#EA9678"/>
        <path d="M236.555 216.916c-.958 1.664-4.117 2.564-7.192 2.911-.514.06-1.026.1-1.525.13-3.497.194-8.253-.23-11.119-2.01l.21-.683c2.318 1.439 6.474 2.18 10.85 1.935 4.225-.236 7.491-1.324 8.322-2.77.477-.829.447-1.944-.082-3.058-1.623-3.405-7.144-5.917-15.826-3.845-3.706.883-8.664 2.792-11.244 6.863-.841 1.328-1.209 2.55-1.367 3.381l-.582-.055c.153-.913.536-2.28 1.47-3.774 2.142-3.43 6.041-5.837 11.591-7.162 9.56-2.28 14.823.844 16.426 4.214.658 1.383.686 2.85.068 3.923M315.976 213.472c-.424 3.592-6.724 6.044-10.405 7.178h-.002c-1.325.121-2.67.24-4.037.35 3.324-.791 13.449-4.193 13.861-7.702.106-.891-.404-1.853-1.515-2.864-7.008-6.38-41.445 1.559-41.793 1.64l-.085-.936c.087-.02 8.82-2.045 18.32-3.244 12.797-1.617 20.822-1.04 23.852 1.72 1.353 1.23 1.96 2.53 1.804 3.858" fill="#EA9678"/>
        <path d="m279 219.973-.373.014-.411.013c-1.48-2.129-10.673-15.17-17.216-20.228l.134-.387.002-.002.134-.383.191.149c7.172 5.663 17.44 20.677 17.539 20.824" fill="#EA9678"/>
        <path d="M334.956 210.036c-.391 3.067-3.254 5.458-4.75 6.51-.857.156-1.738.307-2.644.454 1.164-.68 6.397-3.902 6.805-7.126.149-1.186-.205-2.366-1.057-3.511-3.787-5.099-22.16-17.085-44.773-8.504-15.647 5.937-21.225 9.767-21.28 9.805l-.257-.791c.056-.039 5.667-3.9 21.387-9.863 12.125-4.603 22.651-3.082 29.348-.995 7.885 2.457 13.707 6.642 15.98 9.702 1.013 1.363 1.43 2.815 1.24 4.319" fill="#EA9678"/>
        <path d="M216.737 187.465s-3.838 2.064-.104 6.675c3.735 4.612 14.591.136 19.261 2.673 4.672 2.538.884 6.29 6.24 9.57 5.355 3.28 10.514-7.739 15.77-4.607 5.254 3.134 23.179 7.548 23.479 1.23.301-6.32 8.835-8.737 12.063-10.63 3.227-1.895-8.442-4.91-14.259-5.688-4.03-.538-23.418-11.248-35.076-8.115-11.657 3.134-21.961 5.741-27.374 8.892" fill="#C65447"/>
        <path d="M251.9 180.194c.375-2.695-.385-10.672-.97-11.16-.584-.486-5.93 4.268-6.685 6.76-.755 2.49.293 5.895 2.339 7.602 2.045 1.707 4.934-.47 5.316-3.202" fill="#8FC482"/>
        <path d="M268.839 196.509c-.366-.5-2.509-1.58-2.708-1.505-.2.073-.191 1.948.173 2.447.365.5 1.227.693 1.926.434.7-.26.972-.876.609-1.376M228.945 189.675c.464-.453 1.164-2.519 1.04-2.656-.125-.135-2.161.47-2.623.922a1.22 1.22 0 0 0-.047 1.685c.438.48 1.168.5 1.63.05M247.893 195.008c-.69-.102-2.867.849-2.893 1.083-.025.234 1.888 1.793 2.58 1.897.692.104 1.324-.48 1.41-1.302.086-.825-.404-1.574-1.097-1.678" fill="#FFE6C2"/>
        <path d="M243.268 175.294c-2.58-1.52-11.095-1.516-11.265-.928-.17.587 6.452 9.54 9.032 11.06 2.58 1.52 5.246-.235 5.842-2.294.596-2.062-1.029-6.318-3.609-7.838" fill="#A8D29F"/>
        <path d="M269.627 189.947c.684-.22 2.425-2.085 2.372-2.313-.054-.228-2.366-.803-3.05-.586-.687.219-1.09 1.046-.903 1.844.186.8.894 1.273 1.58 1.055M259.57 192.708c-.48-.428-2.456-.832-2.561-.672-.104.16.758 2.276 1.237 2.702.48.429 1.165.32 1.531-.242.365-.56.273-1.36-.208-1.788M320.83 238H344l-3.83-8H317l3.83 8" fill="#FFE6C2"/>
        <path d="M340.9 234c.98 2.038 2.396 3.719 3.302 3.967.077.023.15.033.219.033.882 0 .741-1.791-.32-4s-2.638-4-3.52-4c-.07 0-.133.01-.19.033-.667.25-.469 1.932.508 3.966M320.42 238c-.405 0-.958-.38-1.54-1.003a7.075 7.075 0 0 1-.353-.405 11.668 11.668 0 0 1-.894-1.257 13.706 13.706 0 0 1-.733-1.334l-.022-.047a11.643 11.643 0 0 1-.632-1.615 5.97 5.97 0 0 1-.22-1.034 2.921 2.921 0 0 1-.026-.405c.007-.564.197-.9.58-.9.382 0 .898.336 1.444.9.12.124.244.258.365.405.258.307.519.655.77 1.034.09.131.174.267.26.405.156.257.31.528.456.804.07.134.138.268.204.406l.023.047a12.464 12.464 0 0 1 .55 1.334c.156.465.26.89.311 1.257.022.144.032.279.036.405.018.624-.172 1.003-.578 1.003" fill="#FFE6C2"/>
        <path d="M341 234v1h-23.816c-.065-.339-.127-.67-.184-1h24M317 232h24v1h-23.87l-.13-1M341 230v1h-23.974a17.872 17.872 0 0 1-.026-1h24M341 235v1h-23.76c-.081-.323-.161-.66-.24-1h24M343 236v1h-23.648a22.06 22.06 0 0 1-.352-1h24" fill="#F2B499"/>
        <path d="M340.783 234c.854 2.055 2.088 3.75 2.878 4 .58-.252.406-1.948-.445-4-.85-2.055-2.085-3.75-2.876-4-.58.252-.408 1.948.443 4" fill="#EA9678"/>
        <path d="M103.734 238a.729.729 0 0 1-.236-.039.744.744 0 0 1-.459-.94l31.532-93.518a.732.732 0 0 1 .931-.463.744.744 0 0 1 .459.941l-31.532 93.517a.734.734 0 0 1-.695.502M60.734 238a.73.73 0 0 1-.236-.039.744.744 0 0 1-.459-.94l31.532-93.518a.732.732 0 0 1 .931-.463.744.744 0 0 1 .459.941l-31.532 93.517a.734.734 0 0 1-.695.502" fill="#163560"/>
        <path d="M122.265 184h-43.53c-.406 0-.735-.448-.735-1s.329-1 .735-1h43.53c.406 0 .735.448.735 1s-.329 1-.735 1M114.26 207H70.74c-.409 0-.74-.448-.74-1s.331-1 .74-1h43.52c.409 0 .74.448.74 1s-.331 1-.74 1M159.289 70.941c-3.442-1.278-7.836-1.392-8.914.699-.944 1.829-12.464 29.43-14.518 34.36H134l15.518-37.5s3.11-4.416 10.548-1.51c7.438 2.905 2.665 5.23-.777 3.951" fill="#163560"/>
        <path d="M109.392 86.914c-1.685 3.253-12.068 13.279-11.505 14.468.512 1.08-.101 11.577-.359 15.608v.008c-.062.965-.103 1.556-.103 1.556-.34.82-1.266 1.177-1.955 1.33a4.811 4.811 0 0 1-.812.116s-.143-.535-.373-1.445c-.43-1.693-1.16-4.686-1.824-7.928-1.036-5.058-1.907-10.724-1.211-13.015 8.624-28.427 17.471-19.173 17.471-19.173s2.357 5.22.671 8.475" fill="#CFE5FF"/>
        <path d="M99 117.078v.008c-.074.974-.122 1.57-.122 1.57-.403.83-1.5 1.19-2.315 1.344a14.005 14.005 0 0 1-1.404-1.342A160.437 160.437 0 0 1 93 110.654C94.08 104.767 98.346 96 98.346 96L99 117.078" fill="#AFD1F2"/>
        <path d="M94.201 176.917s-.661 5.992.415 6.077c.143.012 6.384.002 6.384.002h7s-.18-1.82-2.163-2.189c-1.983-.37-5.302-1.863-6.504-4.67-1.264-2.954-5.132.78-5.132.78" fill="#C65447"/>
        <path d="M94 177.374s1.882.626 3.35.626c1.64 0 3.13-.445 3.13-.445s.353-3.41 2.303-10.925c1.022-3.939 2.482-9.004 4.558-15.297 5.742-17.394 7.488-27.569 7.647-28.532l.012-.076-.019-.009L97.33 115s2.182 23.971-.601 33.173c-.39 1.287-.724 2.784-1.01 4.409C93.958 162.576 94 177.374 94 177.374" fill="#F99746"/>
        <path d="m96 151.85 6.966 14.15c1.008-3.967 2.447-9.069 4.495-15.407 5.66-17.518 7.382-27.766 7.539-28.737a1.333 1.333 0 0 0-.007-.084L97.59 114s2.151 24.143-.593 33.411c-.384 1.296-.713 2.804-.996 4.44" fill="#ED7D2B"/>
        <path d="M107 176.917s.243 5.995 1.26 6.08c.135.012 5.238-.023 5.238-.023l6.502.024s-.136-1.82-2.01-2.188c-1.872-.372-5.008-1.864-6.143-4.672-1.193-2.955-4.847.78-4.847.78" fill="#C65447"/>
        <path d="M117.995 115s.232 15.668-2.5 34.906c-2.732 19.237-1.806 27.404-1.806 27.404s-1.877.603-2.635.664c-1.93.156-3.91-.448-3.91-.448s-3.91-19.245-2.789-28.875c1.121-9.629-5.355-33.04-5.355-33.04l18.995-.611" fill="#F99746"/>
        <path d="M105 77.346 108.037 80l4.963-.218a277.138 277.138 0 0 0-.202-3.816 2823.54 2823.54 0 0 0-.137-2.372L106.847 70c0 .027-.065 1.396-.076 1.595-.18 3.548-1.771 5.751-1.771 5.751" fill="#FFB27D"/>
        <path d="M117.993 115.552c-.07 8.25-.612 27.553-1.01 27.946-4.236 4.15-22.866-1.137-23.853-5.708-.987-4.57 3.753-58.6 10.987-60.758 1.501-.447 8.218 3.88 8.218 3.88s2.567 1.647 3.393 5.904c.306 1.577 1.305 12.831 1.888 20.351.154 2.005.28 3.744.354 4.963.03.504.037 1.732.023 3.422" fill="#CFE5FF"/>
        <path d="M106.082 71.887c.782 2.047 4.4 4.267 5.918 5.113l-.016-.298c-.075-1.442-.142-2.68-.142-2.68l-4.388-2.959c-1.032-.173-1.695-.019-1.372.824" fill="#FCA56B"/>
        <path d="M113.94 74.959s-8.109.779-8.5-4.445c-.392-5.223-1.703-8.64 3.458-9.359 5.16-.718 6.317 1.195 6.858 2.905.542 1.711.283 10.562-1.816 10.899" fill="#FFB27D"/>
        <path d="m114.3 64.104-2.476 3.943c-1.072-.489-1.587-.272-1.77 1.448-.184 1.72-2.926 3.56-4.21 1.776 0 0-4.932-8.961-3.623-10.492 2.07-2.419 7.067-1.777 10.592-1.452 3.675.34 4.173 4.459 1.487 4.777" fill="#163560"/>
        <path d="M118.993 116C105.744 103 105 90 105 90c7.068 3.888 11.27 3.954 13.449 11.02.157 1.974.444 10.409.52 11.61.031.496.038 1.706.024 3.37" fill="#AFD1F2"/>
        <path d="M138.665 90.46s.79-.84 1.08-1.184c.382-.494 2.12-1.026 4.286-1.276 0 0 1.646.182.648 1.49-.665.875-.59.36-1.55 1.58-.962 1.22-2.485 1.947-3.7 1.707l-1.384.223L137 91.094l1.665-.634" fill="#FFB27D"/>
        <path d="M102.554 80.479s-9.682 8.787 19.283 21.317C126.26 103.708 140 91.566 140 91.566s-.18-2.242-1.297-3.235c0 0-13.77 4.988-15.269 5.148-1.33.142-9.122-11.901-11.662-14.591-2.54-2.69-9.218 1.591-9.218 1.591M116 60.127S114.492 72.71 105.917 73L102 67.829s8.737-2.988 7.892-9.829L116 60.127" fill="#CFE5FF"/>
        <path d="M105.086 53.232s3.486-.94 5.933.963c2.447 1.903 2.497 4.97.863 6.942-.505.61.581 3.472-.995 5.438-1.577 1.966-4.567 2.125-6.01 1.756-1.325-.339-3.679 1.84-6.064-.248-2.797-2.447-1.524-7.035-1.524-7.035s1.263-7.315 7.797-7.816" fill="#739AF0"/>
        <path d="M111.812 76.806c-.099-.041-5.694-3.01-6.347-2.795-.652.215-1.465 2.2-1.465 2.2L113 80s.067-2.668-1.188-3.194" fill="#AFD1F2"/>
        <path fill="#FFE6C2" d="M46.392 238H79l-5.392-11H41l5.392 11"/>
        <path d="M73.439 232.498c1.567 2.804 3.834 5.117 5.285 5.457.123.03.24.045.349.045 1.413 0 1.185-2.462-.511-5.502-1.7-3.036-4.221-5.498-5.635-5.498a.948.948 0 0 0-.303.045c-1.066.345-.748 2.656.815 5.453M47.074 238c-.65 0-1.534-.521-2.467-1.38a11.146 11.146 0 0 1-.564-.558 16.516 16.516 0 0 1-1.43-1.725 19.418 19.418 0 0 1-1.174-1.837l-.035-.064a13.72 13.72 0 0 1-.295-.557 14.124 14.124 0 0 1-.506-1.106 12.8 12.8 0 0 1-.209-.555 7.3 7.3 0 0 1-.355-1.423 3.6 3.6 0 0 1-.039-.559c.01-.773.315-1.236.927-1.236.613 0 1.437.463 2.31 1.236.193.172.39.358.585.559.414.42.832.9 1.234 1.423a17.56 17.56 0 0 1 1.47 2.218c.014.02.025.044.037.064a15.88 15.88 0 0 1 .88 1.837c.25.637.418 1.22.5 1.725.033.2.05.386.055.559.031.858-.274 1.379-.924 1.379" fill="#FFE6C2"/>
        <path d="M75 232v1H41.26c-.093-.338-.18-.67-.26-1h34M40 230h34v1H40.184L40 230M74 228v1H40.035a13.025 13.025 0 0 1-.035-1h34M76 234v1H42.342c-.115-.325-.23-.66-.342-1h34M77 235v1H43.5a19.614 19.614 0 0 1-.5-1h34" fill="#F2B499"/>
        <path d="M73.37 232.498c1.494 2.827 3.654 5.16 5.037 5.502 1.014-.348.71-2.68-.778-5.502-1.491-2.823-3.652-5.155-5.034-5.498-1.016.348-.713 2.678.776 5.498" fill="#EA9678"/>
        <path d="M119.815 237.36c-9.54 2.338-17.318-1.846-19.815-10.66l9.075-2.225c1.54 5.439 5.502 5.14 8.348 4.443 5.984-1.467 5.428-5.87 4.911-7.693L131.41 219c1.98 6.989-.804 15.715-11.594 18.36" fill="#FFE6C2"/>
        <path d="M114.071 237c-4.816 0-8.191-2.528-10.27-4.84-2.611-2.902-3.754-6.004-3.801-6.134l.558-.21c.01.03 1.156 3.134 3.693 5.948 3.377 3.748 7.491 5.234 12.227 4.42 5.04-.868 8.714-3.515 10.92-7.866 1.83-3.614 2.197-7.666 1.93-10.254l.591-.064c.277 2.675-.102 6.863-1.994 10.595-2.263 4.468-6.187 7.299-11.348 8.187-.875.15-1.71.218-2.506.218" fill="#F2B499"/>
        <path d="M115.05 235c-2.845 0-5.588-1.25-8.069-3.705-2.564-2.537-3.924-5.416-3.981-5.538l.527-.26c.013.029 1.379 2.917 3.872 5.378 3.305 3.264 6.926 4.275 10.762 3.007 4.24-1.404 7.08-4.317 8.444-8.657 1.023-3.257.784-6.141.782-6.17l.581-.055c.011.122.254 3.018-.8 6.389-.978 3.125-3.303 7.235-8.827 9.063a10.437 10.437 0 0 1-3.29.548" fill="#F2B499"/>
        <path d="M115.266 231c-6.173 0-9.232-6.614-9.266-6.69l.53-.272c.01.02.94 2.052 2.78 3.798 2.442 2.313 5.251 3.054 8.351 2.2 7.621-2.102 6.726-10.873 6.716-10.96l.584-.076c.01.095.96 9.407-7.153 11.643a9.501 9.501 0 0 1-2.542.357" fill="#F2B499"/>
        <path d="M108.997 223.156c.086.366-1.859 1.267-4.342 2.009-2.484.742-4.567 1.046-4.652.68-.086-.368 1.859-1.267 4.343-2.01 2.483-.741 4.566-1.047 4.651-.679M130.997 218.155c.086.367-1.859 1.268-4.343 2.01-2.483.742-4.566 1.046-4.651.68-.086-.367 1.859-1.268 4.343-2.01 2.483-.742 4.566-1.046 4.651-.68" fill="#EA9678"/>
        <path d="M355.607 236.84c-9.048-3.284-12.734-11.071-9.392-19.84l8.607 3.124c-2.062 5.41 1.286 7.337 3.985 8.317 5.675 2.06 7.895-1.938 8.588-3.754l8.605 3.125c-2.649 6.951-10.163 12.741-20.393 9.028" fill="#FFE6C2"/>
        <path d="M351.633 233.226c-3.854-2.639-5.132-6.451-5.497-9.384-.455-3.682.374-6.714.41-6.842l.565.143c-.01.03-.837 3.066-.39 6.64.594 4.756 3.05 8.165 7.298 10.127 4.52 2.09 8.948 2.05 13.16-.12 3.498-1.8 6.07-4.742 7.312-6.896l.509.274c-1.283 2.226-3.941 5.268-7.554 7.128-4.323 2.227-9.056 2.272-13.684.132a14.453 14.453 0 0 1-2.129-1.202" fill="#F2B499"/>
        <path d="M353.7 231.974c-2.28-1.586-3.777-4.096-4.387-7.405-.634-3.422-.112-6.442-.09-6.569l.567.091c-.005.03-.528 3.058.091 6.38.82 4.405 3.153 7.219 6.935 8.36 4.181 1.261 8.086.558 11.607-2.088 2.643-1.987 4.065-4.385 4.08-4.409l.497.281c-.06.101-1.488 2.51-4.218 4.57-2.532 1.907-6.693 3.838-12.141 2.195-1.09-.331-2.072-.801-2.941-1.406" fill="#F2B499"/>
        <path d="M355.903 229.067c-4.901-3.728-3.802-10.985-3.789-11.067l.566.098c-.003.021-.349 2.245.183 4.784.704 3.367 2.54 5.668 5.457 6.843 7.171 2.886 11.137-4.824 11.176-4.903l.504.293c-.042.082-4.253 8.268-11.887 5.195a9.408 9.408 0 0 1-2.21-1.243" fill="#F2B499"/>
        <path d="M353.995 219.916c-.107.273-1.981-.138-4.189-.92-2.206-.782-3.908-1.638-3.801-1.911.108-.275 1.983.138 4.189.92 2.207.782 3.908 1.637 3.801 1.91M375.995 226.916c-.107.273-1.981-.138-4.189-.92-2.206-.782-3.908-1.638-3.801-1.91.107-.275 1.983.136 4.189.917 2.206.782 3.908 1.638 3.801 1.913" fill="#EA9678"/>
        <path d="M452.487 239H.513c-.282 0-.513-.192-.513-.427v-.146c0-.235.231-.427.513-.427h451.974c.282 0 .513.192.513.427v.146c0 .235-.23.427-.513.427" fill="#233862"/>
        <path d="M293.414 150h-40.828c-.875 0-1.586-.67-1.586-1.5 0-.828.71-1.5 1.586-1.5h40.828c.877 0 1.586.672 1.586 1.5 0 .83-.709 1.5-1.586 1.5" fill="#AFCDFB"/>
    </g>
</svg>
