<svg width="358" height="350" viewBox="0 0 358 350" xmlns="http://www.w3.org/2000/svg">
    <g fill="none" fill-rule="evenodd">
        <path d="M248.244 349.95c-15.352 0-31.601-12.258-46.875-27.482 4.66.859 9.032 1.267 13.185 1.267 30.04.004 48.63-21.424 81.642-49.774-3.191 37.01-9.739 64.113-38.843 74.435a27.073 27.073 0 0 1-9.11 1.554m46.852-187.973c-30.657 0-40.256-23.485-61.905-57.326-25.479-39.827-82.582-11.071-120.256-33.135-3.865-28.115-8.963-55.374 13.404-66.668C133.072 1.448 139.63 0 146.067 0c30.143 0 57.681 31.746 88.555 43.616 24.829 9.546 51.4 4.826 76.73 9.788 17.42 3.414 32.654 23.02 22.515 41.96-11.833 22.11-19.553 44.036-24.743 65.228-5.138.934-9.786 1.385-14.03 1.385" fill="#CCDBFA"/>
        <path d="M200.37 322.954c-15.078-2.76-33.171-10.172-56.57-23.522-65.578-37.422-133.002.977-141.682-42.858-10.677-53.944 43.9-76.988 44.511-118.927.482-32.972 1.347-78.655 31.907-78.655 8.609 0 19.578 3.627 33.554 12.186.283.172.567.344.85.51 2.765 20.163 4.898 40.764-4.164 56.238-10.741 18.346-39.242 50.003-52.948 73.377-29.62 50.515 45.923 43.47 89.946 65.393 12.275 6.112 32.4 34.289 54.597 56.258m95.825-47.993c2.784-32.08 3.021-71.641 13.404-114.17.67-.123 1.348-.252 2.035-.392 4.765-.964 9.19-1.422 13.256-1.422 44.615 0 46.284 55.24-16.731 106.046a551.974 551.974 0 0 0-11.964 9.938" fill="#B3CBFB"/>
        <path d="M214.191 323.952c-4.165 0-8.55-.405-13.223-1.259-22.233-21.959-42.392-50.123-54.688-56.232-44.096-21.912-119.764-14.872-90.095-65.364 13.729-23.363 42.277-55.006 53.036-73.344 9.077-15.467 6.94-36.059 4.172-56.212 37.655 22.055 94.73-6.69 120.197 33.123 21.638 33.83 31.232 57.305 61.873 57.305 4.241 0 8.887-.45 14.023-1.383-10.389 42.431-10.626 81.903-13.412 113.91-33.11 28.169-51.754 49.46-81.883 49.456" fill="#84A9F2"/>
        <g>
            <path d="M340.035 222.156v-6.395l-4.288.409-.151-.096L153.768 110.92c-5.369-3.106-13.566-3.446-18.216-.757l-99.53 57.56H30.46l.013 5.727c-.006.105-.001.21 0 .315.033 2.054 1.525 4.216 4.432 5.897L216.73 284.815c5.37 3.105 13.566 3.446 18.216.757l101.956-58.964c2.056-1.189 3.085-2.78 3.132-4.452" fill="#101111"/>
            <path d="m336.903 220.223-101.956 58.963c-4.65 2.69-12.847 2.348-18.216-.756L34.904 173.276c-5.37-3.106-5.958-7.846-1.309-10.536l101.957-58.962c4.65-2.69 12.847-2.35 18.216.755l181.828 105.154c5.369 3.106 5.958 7.846 1.307 10.536" fill="#272824"/>
            <path d="m333.678 219.508-99.7 57.864c-4.36 2.521-12.047 2.202-17.08-.71L37.103 173.093c-5.034-2.91-5.586-7.356-1.226-9.878l99.7-57.864c4.36-2.521 12.047-2.202 17.08.71l179.795 103.57c5.034 2.911 5.586 7.356 1.226 9.878" fill="#3E3F3B"/>
            <path d="M254.033 267.794c-7.896 4.613-17.012 11.194-26.975 12.304-5.807.647-10.527-2.353-15.447-5.005-4.228-2.279-8.318-4.847-12.607-7.005-.113-.056-.196.095-.097.167 4.716 3.456 9.7 6.378 14.79 9.237 4.258 2.39 8.75 4.322 13.737 3.868 8.497-.774 19.683-7.53 26.816-13.284.172-.139-.057-.376-.217-.282M70.345 193.772c-4.392-2.6-11.86-7.158-17.688-10.427-6.382-3.58-12.283-7.276-18.71-10.777-.202-.11-.37.179-.18.31 5.043 3.484 30.178 18.465 36.544 21.25.208.092.27-.216.034-.356M193.688 264.895c-4.777-2.849-15.557-9.418-23.17-13.432-.699-.368-.81.11-.258.405 7.706 4.117 15.49 9.431 23.28 13.325.262.13.433-.127.148-.298" fill="#FFF"/>
            <path d="M163.907 110.214c-5.025-3.81-14.832-10.15-22.133-8.936-3.51.584-7.842 2.882-10.831 4.698-3.354 2.039-6.465 3.643-9.7 5.895-.843.587-.45.875.395.405 5.627-3.131 12.477-8.318 19.088-9.947 6.731-1.658 16.147 4.48 22.946 8.189.181.098.422-.163.235-.304" fill="#101111"/>
            <path fill="#FEBD2E" d="m323.595 209.795-104.587 60.486L41.28 167.949l104.588-60.484 177.726 102.33"/>
            <path d="M94.722 130.89c-1.681 0-3.045.82-3.045 1.83 0 1.011 1.364 1.831 3.045 1.831 1.683 0 3.045-.82 3.045-1.83 0-1.011-1.362-1.83-3.045-1.83" fill="#FFF"/>
            <path d="M279.69 246.338c-1.236 0-2.448-.307-3.411-.864-1.195-.692-1.881-1.713-1.881-2.806 0-.986.56-1.875 1.538-2.44l6.48-3.75c.755-.434 1.718-.665 2.784-.665 1.237 0 2.45.308 3.413.865 1.195.691 1.88 1.714 1.88 2.805 0 .986-.56 1.876-1.539 2.442l-6.48 3.746c-.753.436-1.717.667-2.785.667" fill="#272824"/>
            <path d="m288.236 240.677-6.48 3.747c-1.214.703-3.356.614-4.759-.196-1.403-.812-1.557-2.051-.342-2.753l6.48-3.748c1.215-.702 3.357-.613 4.76.197 1.402.812 1.557 2.051.34 2.753" fill="#FFF"/>
            <path d="M245.154 180.87c-.01-.198-.004-.377-.037-.602-.98-6.546-5.74-13.997-5.74-13.997l-.284 1.712c-10.982-13.444-35.073-22.781-63.05-22.781-27.938 0-52.005 9.314-63.006 22.731l-.276-1.662s-4.76 7.45-5.74 13.997v.006a22.568 22.568 0 0 0-.37 4.05c0 21.608 31.069 39.122 69.393 39.122 38.326 0 69.396-17.514 69.396-39.122 0-1.165-.11-2.316-.286-3.454" fill="#101111"/>
            <path d="M242.531 177.779c0 20.701-29.767 37.482-66.487 37.482-36.718 0-66.484-16.781-66.484-37.482s29.766-37.484 66.484-37.484c36.72 0 66.487 16.783 66.487 37.484" fill="#3E3F3B"/>
            <path d="M236.15 176.652c0 18.59-26.729 33.658-59.704 33.658-32.973 0-59.702-15.068-59.702-33.658 0-18.59 26.73-33.659 59.702-33.659 32.975 0 59.705 15.07 59.705 33.66" fill="#FB6C55"/>
            <path d="M212.682 75.32c0-1.745 1.06-3.772 2.366-4.527.533-.309 1.02-.346 1.415-.177.101.043 30.658 17.675 30.658 17.675l-3.106 6.505-30.532-17.587c-.487-.297-.8-.95-.8-1.89" fill="#101111"/>
            <path d="M248.099 90.273c0 1.745-1.06 3.772-2.366 4.528-1.305.756-2.365-.047-2.365-1.79 0-1.746 1.06-3.773 2.365-4.528 1.307-.756 2.366.046 2.366 1.79" fill="#272824"/>
            <path d="m224.784 94.894 10.423-8.724.018-.015c.303-.194.704-.19 1.145.066.94.542 1.7 1.999 1.7 3.253 0 .677-.226 1.146-.577 1.358l-10.537 8.784-2.172-4.722M209.755 85.802l10.423-8.724.018-.015c.302-.195.703-.19 1.145.065.939.543 1.7 2 1.7 3.254 0 .677-.227 1.147-.578 1.359l-10.537 8.783-2.171-4.722" fill="#D3C6B6"/>
            <path d="M139.988 112.486h97.466v59.1c0 18.914-27.196 34.246-60.743 34.246-33.55 0-60.746-15.332-60.746-34.246v-59.1h24.023" fill="#F4ECE4"/>
            <path d="M176.71 205.832c-33.55 0-60.745-15.332-60.745-34.246v-59.1h24.023c1.612 3.063 2.714 5.933 3.049 8.448 2.055 15.39 13.562 46.343 52.856 49.779 16.696 1.46 30.511-2.605 41.561-8.704v9.577c0 18.914-27.196 34.246-60.743 34.246" fill="#E6DBCC"/>
            <path d="M115.965 112.486c0 18.915 27.196 34.245 60.746 34.245 33.547 0 60.743-15.33 60.743-34.245 0-18.913-27.196-34.246-60.743-34.246-33.55 0-60.746 15.333-60.746 34.246" fill="#FFF4EE"/>
            <path d="M176.71 88.877c-29.545 0-53.928 12.127-57.685 27.834a18.139 18.139 0 0 1-.518-4.225c0-17.704 26.057-32.058 58.203-32.058 32.144 0 58.203 14.354 58.203 32.058 0 1.433-.188 2.842-.52 4.225-3.755-15.707-28.14-27.834-57.683-27.834" fill="#E6DBCC"/>
            <path d="M176.71 144.544c-29.545 0-53.928-12.126-57.685-27.833 3.757-15.707 28.14-27.834 57.685-27.834 29.543 0 53.928 12.127 57.684 27.834-3.756 15.707-28.141 27.833-57.684 27.833" fill="#FC6"/>
            <path d="m109.41 144.956-2.17-4.786 11.84-5c.276-.1.61-.06.974.15.938.542 1.699 1.998 1.699 3.252 0 .73-.262 1.22-.662 1.403l-.12.05-11.56 4.93" fill="#D3C6B6"/>
            <path d="M106.581 141.623c0 1.254.762 2.71 1.7 3.254.94.543 1.7-.033 1.7-1.287s-.76-2.71-1.7-3.254c-.938-.543-1.7.033-1.7 1.287" fill="#E6DBCC"/>
            <path d="m128.388 155.945-2.17-4.785 11.838-5.001c.277-.1.611-.06.974.15.939.542 1.7 1.998 1.7 3.252 0 .73-.262 1.22-.663 1.404l-.118.05-11.561 4.93" fill="#D3C6B6"/>
            <path d="M125.559 152.613c0 1.253.76 2.71 1.7 3.253.938.543 1.699-.034 1.699-1.288 0-1.253-.761-2.71-1.7-3.252-.939-.543-1.7.033-1.7 1.287" fill="#E6DBCC"/>
            <path d="M97.767 141.128c0-1.745 1.06-3.771 2.366-4.527.534-.308 1.02-.345 1.416-.176.1.043 30.657 17.674 30.657 17.674l-3.105 6.504-30.533-17.586c-.487-.297-.8-.95-.8-1.889" fill="#101111"/>
            <path d="M133.184 156.082c0 1.745-1.06 3.772-2.366 4.526-1.305.756-2.364-.046-2.364-1.79 0-1.745 1.059-3.772 2.364-4.528 1.307-.755 2.366.047 2.366 1.792" fill="#272824"/>
            <path d="M148.845 133.307c-5 0-9.802-1.734-12.876-3.238-7.85-3.84-9.81-13.045-1.274-21.548 8.94-8.907 28.856-14.645 46.727-14.645 8.404 0 16.357 1.269 22.503 4.074 5.461 2.494 13.39 7.818 8.95 14.706-2.375 3.684-7.612 4.472-13 4.472-2.01 0-4.043-.11-5.956-.22-1.911-.11-3.703-.22-5.233-.22-.381 0-.748.008-1.094.023-7.106.314-13.73.158-21.094 4.927-5.348 3.464-4.832 8.982-12.878 11.082-1.58.413-3.187.587-4.775.587" fill="#FFD688"/>
            <path d="M184.142 101.784c0 1.89-2.718 3.421-6.07 3.421-3.352 0-6.07-1.531-6.07-3.421s2.718-3.422 6.07-3.422c3.352 0 6.07 1.532 6.07 3.422M196.446 110.51c0 .812-1.17 1.472-2.61 1.472-1.443 0-2.612-.66-2.612-1.472 0-.813 1.17-1.472 2.612-1.472 1.44 0 2.61.659 2.61 1.472M165.2 108.155c0 .597-.859 1.082-1.919 1.082-1.059 0-1.917-.485-1.917-1.082 0-.597.858-1.082 1.917-1.082 1.06 0 1.919.485 1.919 1.082M147.902 125.402c0 .814-1.17 1.473-2.611 1.473-1.442 0-2.611-.659-2.611-1.473 0-.812 1.169-1.471 2.61-1.471 1.442 0 2.612.659 2.612 1.471M144.345 114.91c0 1.376-1.979 2.492-4.42 2.492-2.439 0-4.417-1.116-4.417-2.492 0-1.375 1.978-2.49 4.418-2.49 2.44 0 4.419 1.115 4.419 2.49" fill="#FFF"/>
            <path d="M214.175 96.726c7.948 7.475 8.147 10.999 7.986 13.76-.408 7.01-6.109 10.494-11.997 11.923-7.83 1.9-16.019-.066-23.919 1.208-5.427.875-8.173 3.258-13.42 9.103-5.206 5.804-14.116 8.584-21.385 8.574 11.841 3.25 37.126 7.17 61.242-3.61 12.13-5.422 18.767-11.916 21.712-20.973-1.369-6.201-6.399-14.058-20.22-19.985" fill="#FEBD2E"/>
            <path d="M241.91 245.525c0 5.587-8.032 10.115-17.941 10.115-9.91 0-17.942-4.528-17.942-10.115 0-5.586 8.033-10.115 17.942-10.115s17.941 4.53 17.941 10.115" fill="#3E3F3B"/>
            <path d="M237.63 239.672c-.117-.143-.22-.287-.374-.427-4.066-3.667-9.009-4.2-9.009-4.2s-.033.323-.07.85a28.6 28.6 0 0 0-4.208-.317 28.62 28.62 0 0 0-4.035.292c-.036-.511-.067-.825-.067-.825s-4.943.828-9.008 4.2l-.041.043c-2.078 1.555-3.324 3.482-3.324 5.577 0 5.13 7.376 9.288 16.475 9.288 9.098 0 16.474-4.157 16.474-9.288 0-1.923-1.037-3.71-2.813-5.193" fill="#FFF"/>
            <path d="M236.535 241.74c0 3.914-5.626 7.086-12.566 7.086s-12.566-3.172-12.566-7.085 5.625-7.084 12.566-7.084c6.94 0 12.566 3.171 12.566 7.084" fill="#E6DBCC"/>
            <path d="m225.48 233.308-2.022-1.169c-1.298-.75-2.51-.958-3.55-.718l-.156.036-.253.083a9.804 9.804 0 0 0-2.285 1.126c-.461.316-.634 3.126-.65 4.563l14.137 9.981 1.673-.838c-.055-5.037-3.134-10.89-6.894-13.064" fill="#F4ECE4"/>
            <path d="M230.701 247.21c-.056-5.037-3.134-10.89-6.894-13.064l-2.022-1.169c-3.76-2.175-6.838.118-6.895 5.09l15.811 9.143" fill="#D3C6B6"/>
            <path d="M271.127 228.377c0 5.587-8.032 10.115-17.941 10.115-9.91 0-17.942-4.528-17.942-10.115 0-5.586 8.033-10.115 17.942-10.115s17.94 4.529 17.94 10.115" fill="#3E3F3B"/>
            <path d="M266.847 222.525c-.117-.143-.22-.287-.375-.427-4.064-3.668-9.008-4.2-9.008-4.2s-.033.321-.07.85a28.625 28.625 0 0 0-4.208-.318c-1.395 0-2.741.108-4.034.292-.036-.51-.068-.825-.068-.825s-4.943.828-9.009 4.2l-.04.044c-2.078 1.554-3.323 3.481-3.323 5.577 0 5.13 7.375 9.288 16.474 9.288 9.098 0 16.475-4.159 16.475-9.288 0-1.924-1.038-3.71-2.814-5.193" fill="#FFF"/>
            <path d="M265.752 224.593c0 3.913-5.626 7.085-12.566 7.085s-12.567-3.172-12.567-7.085c0-3.912 5.626-7.084 12.567-7.084 6.94 0 12.566 3.172 12.566 7.084" fill="#E6DBCC"/>
            <path d="m254.698 216.16-2.022-1.168c-1.3-.751-2.51-.958-3.551-.718l-.156.036-.252.083a9.745 9.745 0 0 0-2.285 1.126c-.462.315-.635 3.125-.651 4.562l14.137 9.982 1.673-.838c-.056-5.038-3.134-10.89-6.893-13.064" fill="#F4ECE4"/>
            <path d="M259.918 230.063c-.056-5.038-3.134-10.89-6.894-13.065l-2.021-1.168c-3.76-2.175-6.839.117-6.895 5.089l15.81 9.144" fill="#D3C6B6"/>
            <path d="M300.345 211.365c0 5.587-8.033 10.116-17.943 10.116-9.908 0-17.94-4.529-17.94-10.116 0-5.586 8.032-10.114 17.94-10.114 9.91 0 17.943 4.528 17.943 10.114" fill="#3E3F3B"/>
            <path d="M296.065 205.513c-.118-.143-.22-.287-.375-.427-4.065-3.667-9.01-4.2-9.01-4.2s-.031.322-.068.85a28.614 28.614 0 0 0-4.21-.317c-1.394 0-2.74.108-4.033.292-.036-.51-.067-.824-.067-.824s-4.943.827-9.01 4.2l-.04.042c-2.078 1.554-3.324 3.482-3.324 5.577 0 5.13 7.376 9.288 16.474 9.288 9.1 0 16.475-4.157 16.475-9.288 0-1.923-1.037-3.71-2.812-5.193" fill="#FFF"/>
            <path d="M294.97 207.582c0 3.912-5.627 7.085-12.568 7.085-6.939 0-12.566-3.173-12.566-7.085 0-3.913 5.627-7.084 12.566-7.084 6.94 0 12.568 3.171 12.568 7.084" fill="#E6DBCC"/>
            <path d="m283.915 199.149-2.023-1.169c-1.297-.75-2.51-.958-3.55-.718l-.156.036-.252.083a9.745 9.745 0 0 0-2.285 1.126c-.461.315-.634 3.126-.651 4.562l14.138 9.982 1.673-.838c-.057-5.037-3.134-10.89-6.894-13.064" fill="#F4ECE4"/>
            <path d="M289.136 213.051c-.057-5.037-3.135-10.89-6.894-13.064l-2.023-1.169c-3.759-2.175-6.837.117-6.894 5.09l15.811 9.143" fill="#D3C6B6"/>
            <path d="M131.383 53.933c-5.044 2.727-10.056 6.68-14.433 11.232-.307.32-.771.612-1.29.844-1.662.745-3.901.857-3.49-.84.921-3.824.618-9.369-.05-11.95 2.141-1.372 8.106-3.4 9.559-5.64 4.93 1.264 9.835 2.116 14.292 4.684-1.537.294-3.106.869-4.588 1.67zm16.694.055c-5.307-8.555-11.95-15.048-22.551-17.816-.426-.112-1.745-.114-3.453-.013-1.699-.663-3.47-1.323-4.893-1.78-1.89-.61-5.177-.358-8.617.158-.64-.31-1.626-.516-3.21-.516-6.165 0-20.166 2.72-23.365 2.633-2.714-.074-3.29-.182-6.166 1.137-2.62 1.203-6.54 15.659-6.948 16.74-3.373 8.965-7.664 26.78-14.795 33.158-2.276 2.037-4.17 2.903-5.058 5.312-1.268 3.44.406 6.781-1.27 14.18-1.925 8.497-11.234 44.822-13.953 56.774-4.976 21.874-9.852 42.275-14.801 64.155h.029c-.192.756-.325 1.52-.325 2.303 0 8.924 12.832 16.158 28.661 16.158 5.832 0 11.252-.988 15.778-2.674 7.758-2.892 12.883-7.848 12.883-13.484-1.306-20.159 1.29-41.354 2.474-61.562 1.103-18.818 1.666-32.67 3.347-51.422.486-5.435 2.167-8.6 3.302-9.626.796-.72 1.748-1.342 2.763-1.923 3.967-2.267 9.22-3.705 12.902-6 4.505-2.81 13.143-8.29 18.595-16.224 6.406-9.321 13.596-20.236 25.204-23.1.605-.148 1.255-.868 1.169-1.536a10.959 10.959 0 0 0-.387-1.774s.885-.25 2.134-1.15c.684-.44 1.005-1.375.55-2.108z" fill="#FFC8B5"/>
            <path d="M77.593 116.328c-3.718 10.206-9.618 76.147-10.808 91.64-1.062 13.829-2.741 28.463-3.645 35.929 7.758-2.892 12.883-7.848 12.883-13.484-1.306-20.159 1.29-41.354 2.474-61.562 1.103-18.818 1.666-32.67 3.347-51.422.486-5.435 2.167-8.6 3.302-9.626.796-.72 1.748-1.342 2.763-1.923l-.007-.018s-6.59.258-10.309 10.466M141.46 50.691c-5.49-.98-7.44-3.112-10.252-4.664-5.432-1.192-9.164-2.846-9.164-2.846s-3.834 3.115-7.063 4.398c-4.002 1.59-7.139 2.161-7.139 2.161s-.13 5.811-1.19 11.13c-.753 3.781-2.337 5.753-2.92 7.803-.866 3.034 1.08 2.708 4.651 1.407 2.875-1.048 7.248-4.008 7.248-4.008l.029-.063c-1.662.745-3.901.857-3.49-.84.921-3.824.618-9.369-.05-11.95 2.141-1.372 8.548-3.4 10.001-5.64 3.585 1.914 8.329 3.323 13.85 4.684 0 0 3.21-.627 5.497.957 2.288 1.584 3.924 4.026 3.924 4.026s.655-.206 1.607-.808c-2.162-1.471-4.024-3.656-5.538-5.747M48.555 99.616s2.826 4.78 1.528 8.905c-1.298 4.124-3.602 3.99-3.602 3.99s1.995-7.839 2.074-12.895" fill="#FFA192"/>
            <path d="M149.593 57.22c-2.382-4.667-6.745-4.568-8.125-4 2.306 1.888 3.836 3.831 4.155 5.011.422 1.558-1.023 2.425-2.523 2.804.179.258.367.508.579.737 2.705 2.925 8.978 3.575 8.978 3.575s-1.405-4.876-3.064-8.127" fill="#5FA532"/>
            <path d="M145.843 59.263c-.056-.097-.11-.176-.166-.27-.074.535-.4.962-.86 1.296.261.406.53.797.81 1.158 2.135 2.76 7.03 3.9 7.03 3.9s-4.759-2.524-6.814-6.084" fill="#509325"/>
            <path d="M146.999 77.822s5.584.69 8.768-1.705c3.183-2.395 4.474-8.58 4.474-8.58s-4.987.9-8.386 2.22c-4.88 1.892-4.856 8.065-4.856 8.065" fill="#5FA532"/>
            <path d="M148.045 77.168s4.638-1.181 7.6-3.025c2.959-1.845 4.596-6.605 4.596-6.605s-2.997 4.482-6.743 6.164c-3.746 1.682-5.453 3.466-5.453 3.466" fill="#509325"/>
            <path d="M147.089 82.91s-3.786 2.601-4.544 6.719c-.454 2.471-.65 8.508-.65 8.508s4.938-2.007 6.364-6.342c1.426-4.334-1.17-8.884-1.17-8.884" fill="#5FA532"/>
            <path d="M146.584 84.931s-.495 3.132-1.293 5.92c-.799 2.787-2.746 6.578-2.746 6.578s2.757-2.54 3.975-6.579c1.217-4.039.064-5.919.064-5.919" fill="#509325"/>
            <path d="M152.811 110.51s1.887-4.192.4-8.104c-.894-2.349-3.857-7.61-3.857-7.61s-3.179 4.284-2.15 8.73c1.029 4.445 5.607 6.984 5.607 6.984" fill="#5FA532"/>
            <path d="M152.194 108.52s-1.2-2.933-1.964-5.73c-.763-2.798-1.065-7.051-1.065-7.051s-1.04 3.605.015 7.69c1.054 4.085 3.014 5.092 3.014 5.092" fill="#509325"/>
            <path d="M163.974 118.712s-.693-2.001-2.181-3.088c-1.363-.994-3.404-2.032-3.404-2.032s.428 2.173.428 3.81c0 1.635-.428 3.336-.428 3.336s1.085 1.442 2.975.575c1.89-.867 2.61-2.6 2.61-2.6" fill="#5FA532"/>
            <path d="M159.629 115.137s1.213 2.004 1.553 3.521c.34 1.517.477 2.501.477 2.501s.812-.519 1.09-.787c.276-.268-.2-1.899-1.011-2.97-.81-1.073-2.11-2.265-2.11-2.265" fill="#509325"/>
            <path d="m219.056 61.989-.217.018c-1.106.09-1.797 1.401-.936 2.263.857.86 2.17.172 2.26-.938l.019-.216c.047-.574-.555-1.174-1.126-1.127M221.869 66.626c-1.339 0-1.34 2.083 0 2.083 1.337 0 1.34-2.083 0-2.083M222.986 62.851c-1.598-.503-2.383 1.892-.792 2.308 1.423.374 2.198-1.864.792-2.308M212.682 65.466c-1.49 0-1.493 2.32 0 2.32 1.492 0 1.494-2.32 0-2.32M223.393 98.43c-1.525 0-1.527 2.373 0 2.373 1.525 0 1.527-2.374 0-2.374M217.516 109.516c-1.278 0-1.28 1.988 0 1.988 1.278 0 1.28-1.988 0-1.988M211.918 99.542c-1.54-.425-2.333 1.937-.84 2.48 1.69.615 2.54-2.01.84-2.48M214.89 104.026c-1.516 0-1.518 2.36 0 2.36 1.517 0 1.52-2.36 0-2.36M217.055 91.707l-.172-.074c-.92-.396-2.063.048-2.063 1.185 0 1.138 1.142 1.582 2.063 1.186l.172-.075c.842-.362.842-1.859 0-2.222" fill="#101111"/>
            <path d="M225.514 33.366s9.71 15.383 15.505 16.408c3.646 7.35 20.922-9.23 20.273-11.473-.65-2.244-16.14-16.547-16.14-16.547l-19.638 11.612" fill="#FFA192"/>
            <path d="M247.193 39.846c-1.188.91-2.114 2.242-3.343 3.08-5.116 3.488-9.524 2.32-14.904 2.61-.402.022-.83.047-1.271.076 4.666-3.678 8.65-9.167 11.194-13.583 2.594.095 5.353-.265 7.927-1.039.89 2.454 2.7 4.787 4.87 6.392-1.499.385-2.857 1.226-4.473 2.464zm59.743 117.69c-2.15-18.321-14.75-102.572-16.443-114.355-2.054-14.298-12.662-16.88-22.923-26.926-9.099-8.907-10.58-10.608-15.905-8.928-1.613-3.515-3.377-4.639-7.271-3.43a7.079 7.079 0 0 0-4.246-3.284c-2.136-.6-5.047-.114-6.83 1.446-3.772-2.685-5.97-2.882-9.176.23-2.348 2.279-5.773 5.852-9.606 9.589-4.833 4.71-6.22 11.603-7.673 16.09-2.081 6.424-5.876 11.703-1.644 12.516-1.041 2.581.411 4.592 1.644 4.015 0 3.137 2.743 3.527 4.25 3.019.84 1.728 3.087 1.728 5.167.75-.773.907-2.369 7.02 3.04 7.02 5.752 0 11.992 3.174 17.515 4.88 2.633.815 15.461 1.496 24.756-1.175 3.57-1.677 11.055 3.623 11.734 13.36.566 8.119.934 76.013 1.041 98.334 2.985.804 6.314 1.267 9.841 1.267 12.646 0 22.898-5.78 22.898-12.91 0-.51-.066-1.012-.17-1.508z" fill="#FFC8B5"/>
            <path d="M261.591 58.993c5.2 8.076-.976 91.676-.281 100.052 0 5.14 5.342 9.565 13.056 11.642-.107-22.32-.475-90.215-1.041-98.334-.679-9.737-8.163-15.037-11.734-13.36" fill="#FFA192"/>
            <path d="m221.784 48.96-.057-.13c-.323-.726-1.517-.741-1.936-.092a1.14 1.14 0 0 0-.698-.237c-1.602 0-1.604 2.493 0 2.493.405 0 .706-.16.907-.4.189.14.424.232.715.232 1.018 0 1.437-1.036 1.069-1.867M225.907 46.56c-.61 0-.955.394-1.063.855a1.049 1.049 0 0 0-.71.18l-.116.08c-.752.522-.752 1.505 0 2.027l.115.08c.76.527 1.761-.108 1.88-.937 1.365-.118 1.339-2.285-.106-2.285" fill="#101111"/>
            <path d="M218.79 49.347c-2.978-.157-2.51-1.808-2.51-1.808s3.705 1.3 6.787 0c3.084-1.3 7.465-4.474 7.465-4.474s-6.39 6.566-11.743 6.282M228.362 26.3c-3.173 4.919-8.079 13.034-9.81 15.89 1.524-.963 8.337-6.813 9.81-15.89M246.068 10.969c-4.48 2.424-14.22 10.127-14.656 11.022 4.778-2.035 13.583-8.953 14.656-11.022M238.752 6.027c-7.49 4.942-14.386 9.751-16.837 15.196-3.34 7.423-6.382 13.978-10.043 21.842 3.195-3.333 7.69-12.488 10.871-18.753 4.016-7.91 14.117-14.947 16.009-18.285M225.927 9.445c1.446-1.309 2.905-2.596 4.331-3.89-1.934.472-7.98 4.445-9.461 5.916a46.476 46.476 0 0 0-2.77 3.008c2.629-1.68 5.318-3.282 7.9-5.034M211.416 29.813c.891-3.29 1.865-6.56 2.73-9.857-3.587 6.002-5.408 12.325-8.927 20.528 1.981-1.333 4.068-5.908 6.19-10.642l.007-.029" fill="#FFA192"/>
            <path d="M225.234 31.26s-6.682 8.682-8.954 11.39c-2.271 2.71-1.781 2.385-2.08 3.902-.3 1.517.636 2.222.636 2.222l1.444-.507v-.728s-.34-1.53.587-2.829c.927-1.3 4.389-4.584 5.796-6.41 1.408-1.824 2.571-7.04 2.571-7.04" fill="#FFA192"/>
        </g>
    </g>
</svg>
