<svg width="350" height="350" viewBox="0 0 350 350" xmlns="http://www.w3.org/2000/svg">
    <defs>
        <path id="a" d="M0 0h350v350H0z"/>
    </defs>
    <g fill="none" fill-rule="evenodd">
        <path d="M169.5 279C99.636 279 43 273.627 43 267c0-6.628 56.636-12 126.5-12S296 260.372 296 267c0 6.627-56.636 12-126.5 12" fill="#549DAB"/>
        <path d="m316 68-95.086 26.713 22.988 23.216c-25.496 25.87-57.377 58.354-58.227 59.889-1.421 2.567-26.162-47.905-26.162-47.905l-66.8 73.654-24.387-32.192L15 230.837l49.786-33.841L91.686 232l60.045-60.864 25.602 52.213 89.262-82.502 24.707 24.953L316 68" fill="#DA3143"/>
        <path fill="#B12E3D" d="m178 224 90-80.877-5.116-6.123L178 224M92 233l63-54.141-3.366-6.859L92 233M64.647 197 15 231l53-29.605L64.647 197"/>
        <path d="M222.931 174.485c-11.203-19.145-41.145-10.58-41.255-10.548-8.618 10.981-19.894 27.993-25.122 47.158-9.066 33.242 2.073 49.992 2.073 49.992s6.216 12.883 42.482 9.276c12.37-1.23 23.62-.794 33.119-.997 16.079-32.57-.073-75.7-11.297-94.881" fill="#393F82"/>
        <path d="M264.984 243.78c.772-29.042-26.06-80.008-45.097-92.78h-26.719s-4.872 4.806-11.168 12.849c.11-.031 29.896-8.575 41.041 10.52 11.166 19.13 27.233 62.147 11.238 94.631 18.343-.393 30.118-3.188 30.705-25.22" fill="#393D77"/>
        <path d="M193.167 149.994s-22.233-32.491-6.59-31.953c15.642.538 12.746 6.185 22.554 5.11 9.81-1.077 11.697-8.068 23.025-3.765C243.483 123.688 217.322 153 217.322 153l-24.155-3.006" fill="#393F82"/>
        <path d="M217.17 194.633c2.106 0 3.83-1.718 3.83-3.817S219.276 187 217.17 187h-30.335c-2.107 0-3.83 1.717-3.83 3.816 0 2.1 1.723 3.817 3.83 3.817h8.695a9.155 9.155 0 0 1 8.349 5.342h-17.005c-2.107 0-3.831 1.717-3.831 3.817 0 2.099 1.724 3.816 3.83 3.816h17.006c-1.455 3.13-4.634 5.343-8.35 5.343h-8.694a3.83 3.83 0 0 0-3.562 2.404c-.574 1.45-.23 3.13.919 4.198l21.679 20.417a3.84 3.84 0 0 0 2.643 1.03c1.034 0 2.03-.42 2.796-1.182a3.792 3.792 0 0 0-.153-5.381l-14.708-13.854c7.545-.42 13.789-5.8 15.474-12.937h5.247c2.106 0 3.83-1.718 3.83-3.816 0-2.1-1.724-3.817-3.83-3.817h-5.247c-.46-1.908-1.226-3.74-2.298-5.343h7.545v-.037" fill="#D5EBED"/>
        <path d="M207 269.891s-22.985 0-28.956-12.891c0 0-1.12 10.144 7.975 13.927 0 0 16.155.484 20.981-1.036M215 143.193s7.669-11.44 9.733-25.138c0 0 15.817-1.456 9.97 10.601 0 0-2.526 7.934-12.263 19.344l-7.44-4.807" fill="#393D77"/>
        <path d="M193.548 152c-.83.014-1.65-.38-2.137-1.116a2.452 2.452 0 0 1 .708-3.416c.52-.341 12.945-8.268 30.22-2.17a2.466 2.466 0 0 1 1.515 3.16c-.463 1.287-1.89 1.958-3.194 1.499-14.837-5.234-25.352 1.36-25.792 1.642a2.522 2.522 0 0 1-1.32.4" fill="#322E5D"/>
        <path d="M225.493 156c-.275 0-.554-.047-.827-.147-21.835-7.969-35.823-.252-35.96-.172-1.214.69-2.737.223-3.4-1.046-.663-1.27-.213-2.857 1.003-3.549.647-.368 16.102-8.895 40.01-.172 1.308.477 1.997 1.968 1.54 3.333-.361 1.078-1.33 1.753-2.366 1.753" fill="#312C6D"/>
        <path d="M211.41 174c-.313 0-.632-.063-.939-.197-1.226-.535-1.799-1.992-1.28-3.255 6.16-14.994.878-17.962.824-17.99l-.253-.16 2.166-4.398c.27.115 2.69 1.223 4.085 4.72 1.876 4.7 1.075 11.35-2.382 19.764a2.411 2.411 0 0 1-2.22 1.516" fill="#312C6D"/>
        <path d="M232.766 180.977c-1.412.187-2.709-.781-2.901-2.161-.006-.047-.676-4.667-3.092-9.957-3.133-6.86-7.586-11.58-13.236-14.024-1.302-.564-1.892-2.054-1.317-3.33.577-1.276 2.098-1.852 3.402-1.29 16.302 7.054 19.237 27.074 19.355 27.922.19 1.382-.8 2.654-2.211 2.84" fill="#312C6D"/>
        <path d="M68 255s39.5-2.25 79 0H68" fill="#E5CE81"/>
        <path fill="#C38C3A" d="M68 266h79v-11H68z"/>
        <g fill="#DEC353">
            <path d="M71 266h1.315v-11H71zM77.057 266h1.315v-11h-1.315zM83.113 266h1.316v-11h-1.316zM89.17 266h1.316v-11h-1.315zM95.228 266h1.315v-11h-1.315zM101.285 266h1.315v-11h-1.315zM107.342 266h1.315v-11h-1.315zM113.399 266h1.316v-11h-1.316zM131.57 266h1.316v-11h-1.316zM119.456 266h1.316v-11h-1.316zM137.627 266h1.316v-11h-1.316zM125.513 266h1.315v-11h-1.315zM143.684 266H145v-11h-1.316z"/>
        </g>
        <path d="M65 243s39.5-2.25 79 0H65" fill="#E5CE81"/>
        <path fill="#C38C3A" d="M65 254h79v-11H65z"/>
        <g fill="#DEC353">
            <path d="M68 254h1.315v-11H68zM74.057 254h1.315v-11h-1.315zM80.114 254h1.315v-11h-1.315zM86.171 254h1.315v-11h-1.315zM92.228 254h1.315v-11h-1.315zM98.285 254H99.6v-11h-1.315zM104.343 254h1.314v-11h-1.314zM110.399 254h1.316v-11h-1.316zM128.57 254h1.316v-11h-1.316zM116.457 254h1.315v-11h-1.315zM134.627 254h1.316v-11h-1.316zM122.514 254h1.315v-11h-1.315zM140.684 254H142v-11h-1.316z"/>
        </g>
        <path d="M170 234c0 19.882-16.118 36-36 36s-36-16.118-36-36 16.118-36 36-36 36 16.118 36 36" fill="#C38C3A"/>
        <path d="M168 234c0 19.882-16.118 36-36 36s-36-16.118-36-36 16.118-36 36-36 36 16.118 36 36" fill="#DEC353"/>
        <path d="M168 234c0 19.882-16.118 36-36 36s-36-16.118-36-36 16.118-36 36-36 36 16.118 36 36" fill="#DEC353"/>
        <path d="M161 234c0 16.016-12.984 29-29 29s-29-12.984-29-29c0-16.017 12.984-29 29-29s29 12.983 29 29" fill="#C38C3A"/>
        <path d="M132.644 205c-.216 0-.43.004-.644.008 15.916.338 28.712 13.188 28.712 28.992S147.916 262.654 132 262.992c.214.005.428.008.644.008C148.856 263 162 250.016 162 234c0-16.017-13.144-29-29.356-29" fill="#E5CE81"/>
        <path d="M104.948 234c0-15.69 12.473-28.468 28.052-28.982a28.169 28.169 0 0 0-.974-.018C115.996 205 103 217.983 103 234c0 16.016 12.996 29 29.026 29 .326 0 .65-.007.974-.017-15.58-.515-28.052-13.292-28.052-28.983" fill="#AD803A"/>
        <path d="M136.56 222.153a14.848 14.848 0 0 1 2.227 4.807H144l-2.024 6.205h-2.885c-.86 6.412-5.213 11.426-11.386 12.305L137.09 259h-7.39l-9.334-13.375v-6.203h5.06c3.695 0 6.833-2.638 7.592-6.205H119l2.024-6.205h11.539c-1.164-2.843-3.948-4.808-7.136-4.808H119l2.024-6.204H144l-2.024 6.204h-5.415v-.051" fill="#AD803A"/>
        <path d="M138.561 220.153a14.844 14.844 0 0 1 2.226 4.808H146l-2.024 6.204h-2.885c-.86 6.411-5.212 11.427-11.386 12.305L139.09 257H131.7l-9.335-13.375v-6.203h5.06c3.695 0 6.833-2.638 7.592-6.206H121l2.024-6.204h11.539c-1.164-2.843-3.948-4.808-7.136-4.808H121l2.024-6.204H146l-2.024 6.204h-5.415v-.051" fill="#DEC353"/>
        <path d="M181.672 326a5.663 5.663 0 0 0-.67 1.09l-.28-.181c-.041-.223-.212-.377-.4-.35-.2.03-.343.254-.32.502.025.249.205.426.405.396l.112-.038.272.175a6.48 6.48 0 0 0-.326 1.307l.452.099c.139-.979.514-1.88 1.083-2.603l-.328-.397M186.01 324.137a4.73 4.73 0 0 0-.307.01l-.046-.377a.43.43 0 0 0-.32-.767.431.431 0 0 0-.135.82l.044.375c-.432.07-.848.2-1.246.39l.198.412a4.18 4.18 0 0 1 1.812-.406c.301 0 .602.032.893.095l.097-.447a4.695 4.695 0 0 0-.99-.105M190.691 325.766a.34.34 0 0 0 .306-.377.347.347 0 0 0-.39-.295.343.343 0 0 0-.31.341l-.242.204a4.417 4.417 0 0 0-.82-.639l-.235.36c.66.4 1.177.968 1.493 1.64l.402-.175c-.146-.31-.33-.6-.549-.867l.235-.196.11.004M185.462 331.209c-.272.016-.547.024-.817.024-.62 0-1.223-.041-1.748-.12a6.326 6.326 0 0 1-.897-.195c.739 1.24 2.166 2.082 3.802 2.082 2.015 0 3.713-1.276 4.198-3-.48.3-1.062.55-1.734.748-.832.245-1.802.404-2.804.46" fill="#F5F7F6"/>
        <path d="M187.41 329.22c-.556 0-1.008-.46-1.008-1.024 0-.564.452-1.023 1.008-1.023.555 0 1.006.459 1.006 1.023 0 .565-.451 1.024-1.006 1.024zm-3.508.684a1.383 1.383 0 0 1-1.369-1.392c0-.768.615-1.393 1.369-1.393.756 0 1.37.625 1.37 1.393s-.614 1.392-1.37 1.392zM185.5 325c-2.48 0-4.5 2.007-4.5 4.474 0 .32.034.639.101.949.5.363 2.004.67 3.96.55 2.132-.13 3.921-.72 4.939-1.625a4.537 4.537 0 0 0-.033-.437c-.282-2.23-2.202-3.911-4.467-3.911zM196.999 326.502c-.215-.085-.586-.228-1.006-.175-.4.05-.613.251-.613.743v.638H197v1.267h-1.62V333h-1.405v-4.025H193v-1.267h.975v-.655c0-1.24.651-2.053 1.868-2.053.467 0 .841.09 1.156.227v1.275M200.387 329.282a1.77 1.77 0 0 0-.317-.031c-.538 0-.908.372-.908 1.096V333H198v-4.87h1.127v.533c.27-.457.685-.663 1.214-.663.25 0 .51.086.659.228l-.613 1.054M202.405 330.054h2.232c-.125-.608-.515-.951-1.097-.951-.64 0-1.015.362-1.135.95zm3.595.441c0 .147-.01.323-.026.432H202.4c.145.686.655.985 1.295.985.437 0 .911-.167 1.275-.457l.796.824c-.572.496-1.3.721-2.148.721-1.545 0-2.618-.99-2.618-2.486 0-1.495 1.041-2.514 2.55-2.514 1.452 0 2.445 1.015 2.45 2.495z" fill="#F5F7F6"/>
        <path d="M207.405 330.054h2.231c-.124-.608-.515-.951-1.097-.951-.64 0-1.015.362-1.134.95zm3.595.441c0 .147-.011.323-.026.432H207.4c.145.686.655.985 1.295.985.437 0 .91-.167 1.274-.457l.797.824c-.573.496-1.301.721-2.15.721-1.545 0-2.616-.99-2.616-2.486 0-1.495 1.04-2.514 2.549-2.514 1.451 0 2.445 1.015 2.451 2.495zM213.218 330.559c0 .768.498 1.34 1.228 1.34.76 0 1.232-.597 1.232-1.34 0-.743-.473-1.34-1.232-1.34-.73 0-1.228.572-1.228 1.34zm3.782 0c0 1.46-.996 2.559-2.312 2.559-.641 0-1.096-.256-1.406-.632V335H212v-6.87h1.257v.537c.311-.396.77-.667 1.426-.667 1.321 0 2.317 1.099 2.317 2.559zM217.222 333h1.567v-5.331h-1.567V333zm1.778-7.076c0 .518-.439.914-1.003.914-.565 0-.997-.396-.997-.914 0-.517.432-.924.997-.924.564 0 1.003.407 1.003.924zM221.375 329.967l1.923-1.677h1.686l-2.476 2.216L225 333h-1.691l-1.934-1.906V333H220v-7h1.375v3.967M129.172 331.526v-2.258c-.298-.433-.938-.804-1.6-.804-1.07 0-1.711.825-1.711 1.928s.64 1.918 1.71 1.918c.663 0 1.303-.35 1.6-.784zm0 1.35v-.742a2.296 2.296 0 0 1-1.799.866c-1.391 0-2.373-.99-2.373-2.608 0-1.588.971-2.62 2.373-2.62.717 0 1.369.331 1.799.878V326H130v6.876h-.828zM133.521 328.612c-1.095 0-1.638.858-1.68 1.587h3.372c-.01-.71-.521-1.587-1.692-1.587zM131 330.495c0-1.38 1.064-2.495 2.532-2.495 1.554 0 2.468 1.124 2.468 2.554v.188h-4.16c.064.897.745 1.647 1.852 1.647.584 0 1.18-.217 1.585-.602l.382.483c-.51.474-1.201.73-2.042.73-1.521 0-2.617-1.016-2.617-2.505zM136 332.25l.405-.532c.333.365.967.68 1.652.68.769 0 1.185-.345 1.185-.818 0-1.154-3.107-.443-3.107-2.209 0-.74.675-1.371 1.87-1.371.852 0 1.455.306 1.86.69l-.364.514c-.3-.346-.852-.602-1.496-.602-.686 0-1.111.325-1.111.75 0 1.045 3.106.355 3.106 2.208 0 .8-.675 1.44-1.973 1.44-.822 0-1.518-.236-2.027-.75M141.128 333h.744v-5.178h-.744V333zm-.128-6.453c0-.3.228-.547.495-.547.277 0 .505.247.505.547a.52.52 0 0 1-.505.535c-.267 0-.495-.235-.495-.535zM147.17 331.607v-2.138c-.287-.425-.929-.79-1.593-.79-1.073 0-1.714.78-1.714 1.864 0 1.074.641 1.864 1.714 1.864.664 0 1.306-.375 1.594-.8zm-3.871 2.664.42-.568c.442.486.973.67 1.737.67.885 0 1.715-.396 1.715-1.47v-.699a2.294 2.294 0 0 1-1.792.871c-1.394 0-2.379-.952-2.379-2.532 0-1.57.973-2.543 2.379-2.543.719 0 1.36.324 1.792.862v-.74H148v4.75c0 1.622-1.238 2.128-2.544 2.128-.907 0-1.526-.163-2.157-.729zM152.252 333v-3.192c0-.858-.43-1.13-1.078-1.13-.588 0-1.146.363-1.426.756V333H149v-4.879h.748v.708c.34-.404.997-.829 1.716-.829 1.008 0 1.536.515 1.536 1.576V333h-.748M156.521 328.612c-1.095 0-1.638.858-1.68 1.587h3.372c-.011-.71-.522-1.587-1.692-1.587zM154 330.495c0-1.38 1.064-2.495 2.532-2.495 1.553 0 2.468 1.124 2.468 2.554v.188h-4.159c.064.897.744 1.647 1.85 1.647.586 0 1.181-.217 1.586-.602l.382.483c-.51.474-1.201.73-2.042.73-1.52 0-2.617-1.016-2.617-2.505zM163.173 331.526v-2.258c-.299-.433-.939-.804-1.601-.804-1.07 0-1.71.825-1.71 1.928s.64 1.918 1.71 1.918c.662 0 1.302-.35 1.6-.784zm0 1.35v-.742a2.297 2.297 0 0 1-1.8.866c-1.39 0-2.373-.99-2.373-2.608 0-1.588.971-2.62 2.373-2.62.717 0 1.37.331 1.8.878V326H164v6.876h-.827zM170.417 332.31c1.082 0 1.722-.815 1.722-1.918s-.64-1.928-1.722-1.928c-.65 0-1.302.37-1.589.804v2.258c.287.433.938.784 1.59.784zm-2.417.566V326h.828v2.65a2.262 2.262 0 0 1 1.799-.877c1.39 0 2.373 1.03 2.373 2.619 0 1.618-.983 2.608-2.373 2.608-.75 0-1.402-.361-1.799-.866v.742H168zM173.588 334.227c.114.052.3.083.424.083.34 0 .569-.114.744-.526l.33-.753L173 328h.837l1.663 4.083 1.654-4.083H178l-2.5 5.99c-.3.72-.806 1-1.467 1.01-.165 0-.424-.03-.568-.072l.123-.7" fill="#F5F7F6"/>
    </g>
</svg>
