<svg width="409" height="247" viewBox="0 0 409 247" xmlns="http://www.w3.org/2000/svg">
    <g fill="none" fill-rule="evenodd">
        <path d="M298.227 162.006c4.243-9.914 6.613-21.317 6.613-34.357 0-72.614-24.207-111.71-58.778-123.729a90.447 90.447 0 0 1 11.521-2.335 63.651 63.651 0 0 1 8.585-.566c16.976 0 36.892 6.315 44.467 22.114 11.3 23.576-3.69 50.661 13.266 73.026 6.338 8.36 47.386 43.554 5.49 57.413-10.254 3.39-20.69 5.968-31.164 8.434M63.58 117.555c-8.192-3.714-15.78-8.222-20.27-12.895-16.869-17.558-15.85-55.9 9.634-68.15 9.794-4.708 20.433-6.392 31.439-6.392 15.738 0 32.23 3.443 48.1 6.405-22.362 17.757-43.961 41.514-62.697 70.292-2.392 3.673-4.453 7.254-6.206 10.74" fill="#D8E3E7"/>
        <path d="M176.453 220.002c-58.29 0-148.86-32.378-113.51-102.468 9.636 4.353 20.106 7.614 27.358 8.766 14.417 2.29 30.64 2.67 43.518 9.228 23.922 12.182 23.415 46.922 49.643 59.903 4.78 2.365 9.507 3.355 14.177 3.355 15.24 0 29.832-10.549 43.387-18.211 13.261-7.5 27.632-11.72 42.405-15.25 4.853-1.16 9.714-2.275 14.566-3.413-18.506 43.095-72.613 58.09-121.544 58.09M160.897 40.367c-3.381 0-6.963-.232-10.776-.732-5.903-.775-11.981-1.851-18.156-3C161.831 13.001 193.042.02 220.583.02c8.817 0 17.259 1.33 25.159 4.068-34.95 9.477-48.518 36.28-84.845 36.28" fill="#84A9F2"/>
        <path d="M197.87 199.004c-4.676 0-9.41-.992-14.196-3.36-26.264-13.001-25.756-47.792-49.71-59.991-12.895-6.568-29.14-6.948-43.577-9.242-7.261-1.154-17.746-4.42-27.395-8.78 1.758-3.484 3.826-7.065 6.226-10.737 18.793-28.773 40.46-52.525 62.89-70.28 6.183 1.15 12.269 2.229 18.18 3.004 3.818.502 7.405.734 10.79.734 36.377 0 49.963-26.842 84.96-36.333 34.677 12.016 58.96 51.104 58.96 123.705 0 13.038-2.378 24.439-6.634 34.351-4.858 1.14-9.726 2.256-14.586 3.418-14.793 3.535-29.183 7.761-42.462 15.272-13.573 7.674-28.185 18.239-43.446 18.239" fill="#84A9F2"/>
        <path d="M263.996 225.501c0-11.873-33.579-21.498-75.001-21.498-41.422 0-75.002 9.625-75.002 21.498 0 11.873 33.58 21.499 75.002 21.499s75.001-9.626 75.001-21.499" fill="#503330"/>
        <path d="M282.997 214.002c0-14.91-42.086-26.997-94.002-26.997s-94.002 12.087-94.002 26.997c0 14.911 42.086 26.998 94.002 26.998s94.002-12.087 94.002-26.998" fill="#643E38"/>
        <path d="M279.997 213.503c0-13.53-40.743-24.499-91.002-24.499-50.259 0-91.002 10.97-91.002 24.499 0 13.53 40.743 24.498 91.002 24.498 50.26 0 91.002-10.968 91.002-24.498" fill="#3A2824"/>
        <path d="M226.996 214.003c0-6.075-17.238-11-38.501-11-21.264 0-38.5 4.925-38.5 11s17.236 10.999 38.5 10.999c21.263 0 38.5-4.924 38.5-11" fill="#291E1A"/>
        <path d="M262.885 205.35c-1.126 1.897-3.177 3.323-5.367 3.053 3.159 2.012 3.752 6.883 1.562 9.926-2.19 3.035-6.237 4.015-9.814 2.896 1.317.586 1.596 2.545.75 3.718-.846 1.162-2.433 1.59-3.874 1.416-1.43-.174-2.765-.76-4.047-1.426.27 3.115-1.911 6.062-4.703 7.426-2.79 1.374-6.062 1.426-9.142.997-2.39-.332-4.911-2.203-6.212-4.25-.357 4.95-5.87 8.256-10.8 7.863-4.938-.393-8.112-3.568-11.864-6.813-.654 2.561-3.812 3.812-6.378 3.217-2.573-.585-5.137-2.22-6.917-4.18-.76 2.772-3.953 4.33-6.805 4.059-2.862-.272-6.622-1.873-8.794-3.744-2.154 3.744-6.273 6.27-10.573 6.498-4.31.228-9.107-2.343-11.647-5.842-.698 2.125-3.088 3.534-5.278 3.113-2.19-.419-4.562-4.206-4.43-6.436-3.072 2.046-6.841 3.331-10.452 2.597-3.612-.734-7.668-4.277-7.678-7.969-2.424 1.26-5.827-.086-6.726-2.684-.898-2.589.637-6.692 3.324-7.207-3.114-.7-4.763-4.62-3.708-7.637 1.048-3.017 4.119-4.985 7.268-5.518 3.14-.534 6.368.14 9.43 1.023 1.876.543 3.786 1.067 5.723 1.583 29.103 7.671 64.078 11.248 88.783-4.74 4.641-3.001 10.469-3.333 15.99-3.28 4.214.034 8.42.235 12.616.603 1.58.14 3.158.297 4.728.48 1.605.194 3.332.464 4.493 1.601.846.849 1.247 2.047 1.465 3.229.393 2.177.21 4.53-.923 6.428" fill="#4F7A3A"/>
        <path d="M257.992 201.521c-.096 1.35-1.79 1.922-3.115 1.737-1.318-.185-2.942-1.446-4.234-1.137 3.3 1.19 4.923 5.684 3.16 8.743-.769 1.33-2.024 2.723-3.308 1.894.942 1.683 1.03 4.028-.348 5.367-1.485 1.455-3.737 1.702-5.77 1.313-.148 1.57-1.885 2.618-3.447 2.468-1.553-.15-3.674-1.11-4.73-2.283.733 1.015.82 2.345.829 3.596 0 1.428-.114 2.97-1.004 4.073-1.23 1.523-3.578 1.69-5.366.907-1.79-.785-3.491-2.353-4.784-3.825.49 1.639-.829 3.56-2.522 3.684-.934.07-1.85-.344-2.61-.908-1.107-.82-2.276-2.574-2.722-3.887-.27 2.344-1.003 4.725-2.575 6.469-1.57 1.754-4.1 2.75-6.327 2.037-2.714-.874-4.433-4.046-5.568-6.69.262 1.393-.908 2.767-2.277 3.094-1.371.334-2.82-.168-4.016-.918-1.536-.968-3.09-2.387-3.909-4.027.323 2.723-2.2 5.156-4.879 5.57-2.68.405-5.227-.617-7.574-1.991-.246 1.172-1.327 2.114-2.515 2.168-1.187.06-2.583-.996-2.932-2.143.27 1.199-.89 2.336-2.095 2.486-1.195.142-2.373-.422-3.412-1.04-2.26-1.34-4.17-3.94-5.952-5.878-.628 1.63-1.335 3.26-2.417 4.627-1.074 1.365-2.584 2.459-4.294 2.715-.934.14-1.885.035-2.81-.177-3.16-.714-6.389-2.847-7.253-6.002-.069 1.472-1.63 2.592-3.08 2.415-1.45-.177-2.636-1.384-3.098-2.785-.463-1.393-.568-2.68-.14-4.09a40.866 40.866 0 0 1-2.146 2.125c-1.126 1.04-2.34 2.035-3.763 2.6-1.421.555-3.098.635-4.424-.133-1.676-.969-3.307-3.746-2.54-5.535-.541 1.041-2.312.582-2.713-.51-.411-1.093-.158-2.53.505-3.481-.977-.962-2.94-.53-3.604-1.737-.184-.326-.226-.705-.22-1.083.019-2.557 1.852-4.822 4.068-6.064 2.218-1.242 4.783-1.648 7.288-2.044a50.254 50.254 0 0 1 1.999-2.151c29.113 7.73 64.102 11.333 88.817-4.776 4.642-3.024 10.472-3.358 15.997-3.305 4.215.034 8.422.237 12.62.608 1.666 1.85 3.089 3.966 4.486 6.045.383.565.776 1.182.724 1.86" fill="#436733"/>
        <path d="M166.994 176.843c10.197-.484 20.346 1.363 30.532 2.041 10.186.679 20.866.071 29.814-4.878 3.037 2.654 5.909 7.27 4.086 10.881-1.269 2.514-4.209 3.597-6.907 4.349a103.035 103.035 0 0 1-31.955 3.675c-4.98-.212-10.033-.81-14.603-2.817-4.57-2.01-9.3-8.516-10.967-13.25M258.59 146.057c1.866-.598 2.756 4.416 1.397 5.397.98-.708 4.172-3.958 5.438-3.807 1.618.194 1.062 5.368.974 6.483a22.308 22.308 0 0 1 3.757-3.35c.475-.336 1.007-.667 1.59-.641 1.17.05 1.78 1.442 1.842 2.613.062 1.17-.111 2.457.567 3.413.885 1.25 2.454 1.144 4.088 1.039 1.12-.072 2.27-.144 3.254.219 3.105 1.146 2.877 5.634 1.676 8.72-3.239 8.314-9.54 15.262-17.219 19.727-6.035 3.51-19.407 8.708-26.28 4.659-8.018-4.722 4.236-14.87 7.268-20.01 2.358-3.998 4.31-8.303 6.224-12.524 1.354-2.984 1.996-6.262 3.345-9.259.767-1.701 1.474-2.485 2.079-2.679" fill="#511A18"/>
        <path d="M256.996 180.521c.008 3.841-2.365 9.012-3.961 12.01-5.368 10.046-13.639 16.85-24.242 21.3-28.655 12.026-62.093 12.235-90.896.564-16.336-6.622-37.958-27.895-39.904-45.354 9.302-4.293 29.615-.573 39.842.148 19.86 1.39 37.809 12.28 57.382 15.912 10.313 1.912 20.994 1.677 31.239-.522 4.597-.982 9.074-2.433 13.402-4.232 3.193-1.33 6.5-4.006 10.13-4.553 5.307-.791 7.008 1.494 7.008 4.727" fill="#A53D2B"/>
        <path d="M143.994 173.006c-4.13 11.938-14.827 21.232-27 23.46 4.173.768 7.837 2.17 11.974 1.218 4.138-.95 8.089-3.183 10.61-6.676 3.272-4.533 4.024-12.38 4.416-18.002" fill="#832A24"/>
        <path d="M101.034 171.362c-.466 3.073 3.138 8.016 4.288 9.721 2.912 4.318 6.294 9.85 11.948 10.822 1.757.302 3.559-.13 5.246-.697 8.963-3.018 16.35-10.21 19.478-18.962-.142.398-11.977-1.638-12.866-1.76-7.35-1.009-14.49-1.748-21.936-1.387-.362.018-.778.01-1.22.003-2.022-.033-4.583-.064-4.938 2.26" fill="#BB432C"/>
        <path d="M161.49 182.88c-.9-.905-2.465-1.092-3.64-.635-1.319.513-1.883 1.546-2.047 2.805.14-1.073.044-.402-.016-.152a8.61 8.61 0 0 0-.124.638l.035-.24c-.015.1-.037.2-.064.298-.045.096-.087.194-.13.283-.396.835-.696 1.717-.373 2.636a3.556 3.556 0 0 0 1.331 1.778c1.45 1.033 3.554.944 4.876-.267 1.068-.98 1.553-2.293 1.647-3.651.093-1.323-.545-2.535-1.496-3.493M158.965 199.795c-.091-.675-.37-1.372-.888-1.846a3.837 3.837 0 0 0-1.426-.827c-.863-.278-1.706-.023-2.49.324-.44.195-.86.446-1.178.816-.592.688-.989 1.445-.989 2.377 0 .824.368 1.81.99 2.377.643.588 1.489 1.026 2.39.985.934-.042 1.677-.378 2.39-.985.388-.331.619-.727.818-1.172.305-.682.486-1.288.383-2.05M162.787 206.313c-.906-.474-2.215-.446-2.933.375-.185.211-.37.436-.52.674-.785 1.248-.135 2.914 1.181 3.464 1.228.513 3.089-.112 3.33-1.582l.055-.226c.32-.964-.204-2.23-1.113-2.705M193.708 190.845c-.769-.672-1.651-1.03-2.658-.738-.895.259-1.688 1.04-1.91 2.004-.175.77-.226 1.529.043 2.28.348.972.723 1.653 1.584 2.222.747.492 1.678.495 2.465.145.84-.372 1.286-1.007 1.604-1.884.468-1.293-.155-3.18-1.128-4.029M198.165 203.236c-1.664-.69-3.394.224-3.948 1.864l-.105.308c-.32.95.047 2.062.74 2.752.598.596 1.23.727 2.032.829 1.034.129 1.939-.653 2.483-1.4l.196-.272c1.032-1.419.074-3.471-1.398-4.081M190.495 213.003c-1.998 0-2.002 3 0 3 1.998 0 2.001-3 0-3M233.986 206.027c-.065-.625-.155-1.13-.453-1.681a4.696 4.696 0 0 0-.51-.725c-.421-.52-.892-.946-1.524-1.24-.977-.46-2.04-.545-3.015 0-.837.468-1.581 1.49-1.479 2.462.084.794.22 1.431.623 2.15.322.574 1.033 1.33 1.644 1.615 1.027.48 2.14.57 3.162 0 .88-.49 1.658-1.564 1.552-2.581M239.3 187.222a31.067 31.067 0 0 0-.26-.096c-1.493-.552-3.044.87-3.044 2.378 0 1.51 1.554 2.93 3.044 2.379l.26-.096c.929-.343 1.742-1.195 1.694-2.283-.048-1.102-.696-1.914-1.694-2.282M247.526 194.727c-.32-.281-.589-.531-.99-.656-.424-.13-.845-.047-1.265.048-.713.16-1.306 1.078-1.274 1.885.032.818.51 1.714 1.274 1.885.42.094.841.178 1.265.048.401-.126.67-.376.99-.656.629-.552.624-2.006 0-2.554" fill="#8A2E25"/>
        <path d="M221.73 189.96a2.038 2.038 0 0 0-1.734-.956 2.04 2.04 0 0 0-1.735.956c-.383.628-.324 1.317 0 1.949l.106.209c.608 1.182 2.649 1.182 3.256 0l.106-.21c.325-.63.384-1.32 0-1.948M171.867 186.149c-.065-.459-.3-.861-.69-1.041-.396-.184-.977-.139-1.273.276l-.031.046c-.23.138-.43.341-.544.608-.135.316-.266.623-.307.972-.044.224-.035.45.027.674.169.437.202.536.101.296.174 1.079 1.344 1.287 2.008.713.44-.292.697-.742.802-1.38.061-.372.047-.803-.093-1.164M178.494 189.004c-1.997 0-2.001 4 0 4 1.999 0 2.003-4 0-4M140.863 199.204c-.511-1.6-3.228-1.601-3.738 0-.176.548-.167 1.03-.021 1.583.427 1.621 3.352 1.623 3.78 0 .146-.554.154-1.034-.021-1.583M149.778 179.215l-.027-.005a2.185 2.185 0 0 0-1.395-.153c-.756.17-1.397.804-1.36 1.468.064 1.195 1.576 1.784 2.694 1.323l.088-.013c.682-.082 1.244-.77 1.215-1.31-.03-.548-.485-1.222-1.215-1.31M248.496 185.005c-.784 0-1.535.69-1.499 1.5.036.813.659 1.5 1.5 1.5.782 0 1.533-.69 1.498-1.5-.037-.813-.66-1.5-1.499-1.5" fill="#B86C32"/>
        <path d="M198.718 192.004a8.427 8.427 0 0 1 .77 6.336c-.228.819-.585 1.624-.575 2.473.013 1.045.577 1.995.866 3 .98 3.406-1.507 7.11-4.815 8.439-3.307 1.329-7.108.736-10.432-.55-4.54-1.755-12.96-8.458-8.045-13.628 1.922-2.022 6.851-2.06 9.36-2.588a114.348 114.348 0 0 0 12.871-3.482M123.493 170.006c-1.829 0-3.581 1.61-3.497 3.5.085 1.896 1.537 3.5 3.497 3.5 1.83 0 3.582-1.61 3.498-3.5-.086-1.896-1.537-3.5-3.498-3.5" fill="#511A18"/>
        <path d="M164.688 182.005c.908 4.904 1.812 9.986.6 14.826-1.384 5.523-5.34 10.024-9.294 14.172 6.503-.483 11.702-5.216 13.44-11.408 1.74-6.192-.772-12.496-4.746-17.59M208.995 190.004c2.648 3.067 5.366 6.26 6.551 10.165 1.353 4.458.539 9.27-.418 13.834 4.204-3.053 5.761-8.547 4.373-13.621-1.39-5.076-5.704-8.457-10.506-10.378M227.996 188.005c2.363 2.133 4.795 4.359 6.075 7.272 1.458 3.324 1.233 7.116.872 10.726 3.064-2.732 3.819-7.115 2.277-10.913-1.542-3.798-5.254-6.028-9.224-7.085" fill="#2E1513"/>
        <path d="M182.64 223.002c-6.21 0-12.417-.473-18.551-1.42-8.97-1.384-17.779-3.781-26.192-7.193-4.39-1.78-9.16-4.619-13.83-8.159-12.705-9.632-24.652-24.449-26.074-37.224 0 0 1.035 1.493 2.975 3.948.511 3.03 3.246 6.869 4.217 8.336 2.893 4.372 6.254 9.973 11.871 10.957.397.07.796.101 1.195.101.334 0 .67-.022 1.004-.062.865.767 1.752 1.53 2.662 2.294a33.667 33.667 0 0 1-5.341 1.417c3.13.56 5.976 1.466 8.947 1.5 12.756 9.938 29.09 18.655 47.143 18.656 1.414 0 2.835-.053 4.27-.163 3.91-.301 7.74-.744 11.476-1.31.127.696.65 1.308 1.57 1.308 1.139 0 1.67-.945 1.591-1.823 8.708-1.507 16.865-3.684 24.288-6.305-.21 1.771-.56 3.54-.933 5.273 2.303-1.63 3.812-3.977 4.477-6.578 2.446-.94 4.805-1.927 7.067-2.951a1.954 1.954 0 0 0-.036.591c.079.777.206 1.401.585 2.106.302.56.969 1.301 1.542 1.58.502.245 1.027.387 1.55.387.48 0 .958-.12 1.416-.386.825-.481 1.555-1.532 1.455-2.528-.06-.612-.145-1.106-.425-1.646a4.603 4.603 0 0 0-.479-.71c-.394-.508-.836-.925-1.428-1.214a4.603 4.603 0 0 0-.176-.082 110.714 110.714 0 0 0 4.631-2.44c.196 2.1.032 4.27-.18 6.379 2.3-2.05 3.29-5.034 2.976-7.998 9.24-5.549 15.88-11.616 19.093-17.15v.023c0 3.84-2.368 9-3.961 11.995l-.297.546c-5.373 9.753-13.535 16.396-23.945 20.767-11.186 4.699-23.106 7.594-35.19 8.685-3.644.328-7.304.493-10.964.493m62.669-29.237a4.37 4.37 0 0 0-.844.108c-.756.15-1.384 1.01-1.35 1.768.034.767.54 1.608 1.35 1.769.281.056.562.108.844.108.165 0 .33-.018.497-.064.425-.117.71-.352 1.05-.614.666-.519.661-1.882 0-2.397-.34-.263-.625-.498-1.05-.615a1.886 1.886 0 0 0-.497-.063" fill="#8D3327"/>
        <path d="M125.994 198.004c-2.99-.035-5.851-.967-9-1.543a33.27 33.27 0 0 0 5.372-1.457 130.514 130.514 0 0 0 3.628 3" fill="#712420"/>
        <path d="M118.006 193.004a6.5 6.5 0 0 1-1.176-.104c-5.53-1.015-8.838-6.79-11.686-11.299-.956-1.513-3.648-5.471-4.15-8.595 3.407 4.522 9.657 12.209 18 19.934-.33.04-.66.064-.988.064" fill="#A03A2B"/>
        <path d="M190.48 216.002c-.87 0-1.365-.671-1.485-1.436 1.005-.177 2.003-.365 2.993-.563.075.963-.428 2-1.507 2M230.924 209.003c-.557 0-1.116-.151-1.652-.412-.611-.297-1.322-1.087-1.644-1.685-.404-.751-.54-1.417-.623-2.245-.02-.21-.006-.421.038-.63a128.66 128.66 0 0 0 4.268-2.028c.064.028.126.057.188.088.632.307 1.103.752 1.523 1.295.186.24.371.484.51.756.299.576.389 1.103.454 1.754.106 1.063-.672 2.183-1.552 2.695a2.96 2.96 0 0 1-1.51.412M246.067 198.004c-.266 0-.531-.056-.796-.115-.764-.172-1.242-1.068-1.274-1.885-.032-.807.56-1.726 1.274-1.885.265-.06.53-.115.796-.115.155 0 .312.02.47.068.4.124.67.374.99.655.623.548.628 2.002 0 2.554-.32.28-.59.53-.99.655a1.587 1.587 0 0 1-.47.068" fill="#762721"/>
        <path d="M215.995 214.003c.333-1.844.647-3.726.835-5.611 1.074-.452 2.127-.913 3.165-1.389-.594 2.768-1.941 5.265-4 7M234.996 206.003c.209-2.108.371-4.28.178-6.38a103.79 103.79 0 0 0 2.766-1.62c.31 2.965-.67 5.95-2.944 8" fill="#2E1513"/>
        <path d="M278.997 162.006c-3.8 9.038-11.046 16.646-20 20.999 5.707-.674 11.572-3.706 14.857-8.314 2.403-3.372 3.9-8.759 5.143-12.685M247.996 173.863c5.355-4.501 9.417-10.387 11.634-16.856.783 2.288.205 5.241-.746 7.47-.953 2.23-2.45 4.204-3.972 6.124-.816 1.028-1.655 2.061-2.728 2.847-1.073.785-2.843.554-4.188.415M256.996 175.005c5.579-5.484 9.167-12.662 11.814-19.998.586 4.052-.229 8.183-2.189 11.784-1.96 3.601-5.888 6.478-9.625 8.214" fill="#621B1C"/>
        <path d="M132.994 192.33a6.723 6.723 0 0 1 3.953-1.326c.366 0 .754.037 1.047.267a4.974 4.974 0 0 0-.096 1.739c-1.306.07-2.694.789-3.332 1.994-.711-.768-1.31-1.636-1.572-2.674M169.419 179.382c-.695.177-1.503-.173-2.19-.377.1.563.015 1.164-.235 1.668.961.417 2.096.488 3-.06-.307-.244-.549-.815-.575-1.231M162.994 195.85c-.467-.41-.703-1.215-.956-1.846-.257.407-.633.7-1.044.813.282.957.846 1.841 1.628 2.187-.028-.371.158-.889.372-1.155M222.996 197.848c-.467-.408-.704-1.214-.957-1.844-.257.407-.632.7-1.044.812.282.957.846 1.842 1.63 2.188-.03-.372.156-.89.37-1.156M160.458 210.516c-.108-.704.287-1.485.536-2.157a2.424 2.424 0 0 1-1.548-.356c-.472.928-.635 2.056-.193 3 .255-.29.812-.49 1.205-.487M126.076 201.004c-.563.41-1.4.415-2.082.497.273.44.393.982.334 1.502.995-.005 2.034-.369 2.666-1.17-.355-.094-.758-.488-.918-.83M204.624 209.3c-.72-.034-1.468.408-2.119.703a2.127 2.127 0 0 0-.51-1.395c.889-.525 2.007-.783 3-.468-.266.264-.412.797-.37 1.16M141.93 202.003c-.468-.447-1.286-.608-1.936-.805.356-.318.582-.748.628-1.194.972.19 1.917.688 2.372 1.478-.365.011-.839.265-1.063.521M201.025 182.106l-1.03 2.367s4.363-1.478 7.514 1.532l.486-1.984s-2.641-2.549-6.97-1.915M175.198 193.467l-.203 1.537s2.46-1.546 5-.294l-.066-1.229s-2.134-1.064-4.731-.014M246.246 199.004l1.75-.612s-2.84-1.434-2.71-4.388l-1.289.696s-.123 2.489 2.25 4.304M152.994 181.251l-1.52-1.246s.27 3.525-2.48 5.232l1.344.768s2.323-1.428 2.656-4.754M240.595 189.962l1.4.042s-1.567-1.858-.613-4l-1.104.15s-.81 1.802.317 3.808M192.672 212.519l-2.212-.516s1.823 3.135-.465 5.85l1.81.15s1.939-2.281.867-5.484M208.879 193.842l.116 2.162s-2.837-2.345-6-.786l.182-1.713s2.66-1.326 5.702.337" fill="#74B943"/>
        <path d="M238.482 222.826c-22.105 6.878-25.487-18.655-25.487-18.655a81.183 81.183 0 0 0 33.928-8.167s10.93 20.795-8.44 26.822" fill="#EDA92D"/>
        <path d="M246.498 212.272c-.823 2.63-2.752 4.851-5.114 6.303-2.364 1.452-5.126 2.177-7.897 2.373-2.758.196-5.591-.124-8.123-1.23-3.193-1.402-5.754-4.003-7.562-6.972-1.666-2.732-2.18-5.902-2.807-9.039a82.128 82.128 0 0 0 28.845-6.703c1.032 1.974 1.756 4.106 2.32 6.259.77 2.947 1.251 6.102.338 9.009" fill="#F2BF5D"/>
        <path d="M227.663 204.303c.106.098.195.224.26.384.35.845-.656 2.177-1.1 2.832-.75 1.107-1.742 2.038-2.776 2.9-.68.568-1.402 1.12-2.249 1.404-.847.283-1.85.258-2.566-.267-.392-.286-.668-.696-.927-1.102-1.184-1.847-2.467-4.614.566-5.215a74.459 74.459 0 0 1 5.82-.91c.817-.095 2.274-.667 2.972-.026M224.64 213.222c-.366.794-.726 1.645-.628 2.519.119 1.053.904 1.923 1.816 2.405.913.481 1.947.638 2.96.788.483.07 1 .138 1.439-.08.624-.309.886-1.074 1.055-1.769a25.15 25.15 0 0 0 .414-9.818c-.428-2.737-2.212-2.988-3.543-.775-1.3 2.163-2.454 4.433-3.512 6.73M235.044 203.15c-.042.127-.058.271-.042.435.083.862 1.432 1.553 2.055 1.914 1.054.608 2.222.965 3.395 1.246.772.185 1.57.338 2.351.212.783-.126 1.557-.582 1.895-1.333.186-.41.229-.876.26-1.33.146-2.07-.017-4.955-2.643-4.153a62.675 62.675 0 0 0-4.936 1.746c-.68.272-2.06.42-2.335 1.262M241.707 211.868c.57.7 1.151 1.459 1.268 2.36.141 1.087-.444 2.166-1.257 2.887-.814.72-1.832 1.149-2.831 1.563-.474.199-.984.399-1.488.296-.715-.146-1.17-.845-1.518-1.496a25.433 25.433 0 0 1-2.863-9.736c-.242-2.856 1.519-3.574 3.428-1.702 1.865 1.828 3.61 3.801 5.261 5.828" fill="#ECA02D"/>
        <path d="M238.931 213.29c-.153-.383-.718-.384-.871 0-.038.095-.049.184-.06.284-.075.57 1.066.572.992 0-.013-.1-.022-.19-.06-.284M240.532 213.007l-.095-.004c-.476-.024-.588.625-.23.862l.082.054c.634.42 1.091-.87.243-.912M239.852 216.174l-.059-.056a.44.44 0 0 0-.594 0l-.06.056c-.313.296-.076.828.357.828s.67-.532.356-.828M226.965 215.396l-.034-.082c-.122-.29-.475-.43-.733-.188l-.06.058c-.268.253-.137.709.219.804.33.089.757-.24.608-.592M227.496 213.003c-.667 0-.668 1 0 1 .665 0 .667-1 0-1M229.496 208.003c-.667 0-.668 1 0 1 .666 0 .667-1 0-1M229.496 217.002c-.667 0-.667 1 0 1 .666 0 .667-1 0-1M218.929 207.313l-.043-.094c-.13-.288-.65-.288-.782 0l-.042.094c-.417.92 1.285.92.867 0M219.74 208.074c-.341-.2-.83.134-.694.535l.045.13c.056.168.234.297.418.238l.119-.038c.38-.123.475-.653.112-.865M225.496 205.003c-.667 0-.668 1 0 1 .665 0 .667-1 0-1M239.496 203.003c-.666 0-.668 1 0 1 .666 0 .667-1 0-1M241.676 201.064l-.135-.046c-.304-.085-.627.22-.526.554l.02.064c.046.154.164.309.324.341l.074.015c.582.117.793-.71.243-.928M243.496 204.003c-.664 0-.665 1 0 1 .663 0 .664-1 0-1" fill="#F2BF5D"/>
        <g>
            <path d="M391 66c0-11.597-32.46-21-72.5-21S246 54.403 246 66c0 11.598 32.46 21 72.5 21S391 77.598 391 66" fill="#503330"/>
            <path d="M409 55c0-14.36-40.518-26-90.5-26S228 40.64 228 55s40.518 26 90.5 26S409 69.36 409 55" fill="#643E38"/>
            <path d="M406 55c0-13.254-39.399-24-88-24s-88 10.746-88 24c0 13.255 39.399 24 88 24s88-10.745 88-24" fill="#3A2824"/>
            <path d="M356 55c0-6.075-16.79-11-37.5-11S281 48.925 281 55s16.79 11 37.5 11S356 61.075 356 55" fill="#291E1A"/>
            <path d="M389.918 44.786c-1.096 1.812-3.093 3.173-5.224 2.914 3.074 1.92 3.652 6.571 1.52 9.477-2.13 2.897-6.071 3.832-9.554 2.763 1.282.56 1.554 2.43.731 3.549-.825 1.11-2.37 1.52-3.772 1.353-1.392-.167-2.692-.727-3.94-1.361.263 2.972-1.86 5.786-4.578 7.088-2.717 1.311-5.901 1.361-8.9.952-2.327-.317-4.78-2.104-6.047-4.058-.348 4.726-5.715 7.882-10.514 7.507-4.807-.376-7.897-3.407-11.549-6.505-.637 2.447-3.711 3.64-6.209 3.073-2.505-.56-5.001-2.12-6.734-3.991-.739 2.647-3.848 4.133-6.624 3.874-2.786-.259-6.447-1.787-8.56-3.573-2.1 3.573-6.108 5.986-10.294 6.203-4.196.217-8.867-2.237-11.338-5.577-.68 2.029-3.007 3.373-5.138 2.972-2.132-.4-4.441-4.016-4.315-6.145-2.988 1.954-6.658 3.181-10.173 2.48-3.517-.702-7.465-4.083-7.474-7.607-2.36 1.203-5.673-.083-6.547-2.563-.875-2.472.619-6.388 3.235-6.88-3.032-.668-4.637-4.409-3.61-7.29 1.02-2.88 4.009-4.759 7.075-5.268 3.057-.51 6.2.134 9.18.977 1.827.518 3.686 1.019 5.572 1.511 28.33 7.323 62.379 10.738 86.43-4.525 4.518-2.864 10.19-3.182 15.566-3.131a158.6 158.6 0 0 1 12.28.576c1.539.133 3.075.284 4.604.459 1.562.184 3.244.442 4.373 1.528.824.81 1.215 1.954 1.427 3.08.382 2.08.204 4.326-.9 6.138" fill="#4F7A3A"/>
            <path d="M384.995 41.3c-.092 1.314-1.736 1.872-3.023 1.692-1.279-.18-2.855-1.408-4.109-1.108 3.202 1.16 4.778 5.54 3.067 8.52-.746 1.296-1.965 2.653-3.21 1.845.914 1.64 1 3.925-.339 5.23-1.44 1.417-3.626 1.658-5.6 1.28-.143 1.528-1.83 2.55-3.345 2.404-1.507-.146-3.566-1.082-4.591-2.224.711.988.797 2.285.804 3.504 0 1.391-.109 2.894-.974 3.967-1.193 1.486-3.473 1.65-5.208.885-1.737-.764-3.388-2.293-4.643-3.727.475 1.597-.805 3.47-2.447 3.59-.907.068-1.797-.335-2.533-.885-1.075-.799-2.21-2.508-2.643-3.787-.262 2.284-.974 4.603-2.499 6.303-1.525 1.71-3.98 2.68-6.141 1.984-2.634-.85-4.302-3.942-5.404-6.518.255 1.357-.881 2.696-2.21 3.014-1.33.326-2.737-.163-3.897-.893-1.491-.945-2.999-2.327-3.794-3.924.313 2.653-2.136 5.023-4.735 5.427-2.602.395-5.074-.601-7.354-1.94-.236 1.141-1.286 2.06-2.44 2.112-1.15.06-2.506-.97-2.844-2.087.261 1.168-.865 2.276-2.034 2.422-1.16.137-2.303-.413-3.312-1.014-2.194-1.305-4.049-3.838-5.777-5.728-.61 1.589-1.295 3.178-2.346 4.509-1.042 1.33-2.507 2.396-4.168 2.645-.906.137-1.83.034-2.726-.172-3.067-.696-6.201-2.774-7.04-5.848-.068 1.434-1.584 2.525-2.99 2.353-1.405-.172-2.558-1.348-3.007-2.714-.448-1.357-.55-2.61-.136-3.984a39.415 39.415 0 0 1-2.083 2.07c-1.093 1.012-2.27 1.983-3.651 2.532-1.38.542-3.006.619-4.295-.128-1.626-.945-3.21-3.65-2.465-5.393-.524 1.013-2.243.566-2.633-.498-.399-1.065-.153-2.465.491-3.392-.948-.937-2.854-.516-3.498-1.692-.178-.318-.221-.687-.213-1.057.017-2.49 1.796-4.697 3.948-5.908 2.151-1.21 4.642-1.606 7.073-1.992a49.955 49.955 0 0 1 1.94-2.095c28.257 7.53 62.215 11.043 86.203-4.655 4.507-2.945 10.164-3.272 15.526-3.22 4.092.034 8.175.232 12.249.592 1.617 1.804 2.998 3.865 4.354 5.891.372.55.753 1.151.702 1.812" fill="#436733"/>
            <path d="M401.955 21.85c-.326-2.447-2.213-3.793-4.533-4.044-.21-.032-.425-.033-.637-.043-.082-.302-.156-.557-.176-.629a6.995 6.995 0 0 0-1.866-3.13c-1.608-1.527-4.365-1.33-5.497.715-1.059 1.911-1.161 4.274-.58 6.432a129.912 129.912 0 0 0-4.602 3.434c-1.952 1.534-4.031 2.928-4.938 5.327-.566 1.495.878 3.105 2.326 3.088 2.353-.03 4.48-1.562 6.517-2.634 2.1-1.106 4.22-2.172 6.364-3.193 1.431.365 2.964.331 4.316-.206 2.163-.857 3.632-2.658 3.306-5.117" fill="#F8CFAB"/>
            <path d="M369.538 56.072c-1.972 1.54-4.45 2.252-6.875 2.864-8.385 2.11-16.98 4.572-25.633 4.605-13.5.042-27.84 1.064-41.137-.084-11.443-.996-25.397-2.554-34.565-10.123-3.605-2.973-5.342-6.917-3.715-12.159.219-.711.471-1.406.758-2.085 2.957-7.083 9.117-12.526 15.277-17.282C290.668 8.636 311.48-2.584 332.833.522c17.282 2.52 32.466 15.282 38.534 31.468a44.394 44.394 0 0 1 2.224 8.214c.952 5.66.488 12.334-4.053 15.868" fill="#B94A2C"/>
            <path d="m323 63.522.001-.007.996-.037.003.007-1 .037" fill="#4E6832"/>
            <path d="M310.114 63.462H310c3.969-.002 7.971-.111 11.955-.232l-.002.007c-3.946.119-7.909.225-11.84.225m13.07-.262-.004-.007c2.28-.07 4.554-.14 6.812-.193l.009.005c-2.26.054-4.535.125-6.817.195" fill="#43592C"/>
            <path d="M310.48 64c-3.75-.002-7.468-.08-11.123-.3a19.637 19.637 0 0 0 2.105-.757c3.025-1.294 5.762-3.589 6.844-6.69.48-1.376.755-2.607.85-3.702 4.49-.194 8.967-.64 13.408-1.334-.007.189-.011.375-.011.56-.005 5.812 3.53 9.562 8.447 11.835-2.318.044-4.652.103-6.992.162l-1.257.031c-4.089.102-8.197.193-12.27.195m-40.195-5.519c-3.262-1.316-6.302-3.002-8.945-5.186-3.616-2.983-5.357-6.942-3.726-12.202.22-.715.474-1.412.76-2.093.989.983 1.876 1.924 2.536 2.462 5.238 4.212 11.443 6.776 17.908 8.384-.331.193-.629.382-.89.567-2.155 1.52-4.335 3.075-5.965 5.143a11.355 11.355 0 0 0-1.678 2.925" fill="#A2452C"/>
            <path d="M308.123 56.31c-1.068 3.025-3.771 5.263-6.758 6.526-2.988 1.262-6.268 1.672-9.496 2.024 1.276 1.951 5.04 1.73 5.481 4.009.209 1.074-.575 2.14-1.576 2.623-.994.483-2.145.508-3.246.508-3.922 0-7.885-.27-11.682-1.205a31.66 31.66 0 0 1-2.737-.803c-3.572-1.222-7.21-3.566-7.969-7.197-.526-2.509.484-5.14 2.095-7.165 1.61-2.016 3.762-3.533 5.89-5.016 2.779-1.935 9.73-4.435 16.338-5.304 8.97-1.172 17.306.664 13.66 11M385.847 37.216c-3.953 4.292-7.045 8.06-9.873 12.951-2.64 4.57-5.12 9.224-9.73 12.183-3.628 2.32-7.947 3.297-12.198 4.04-11.628 2.031-35.175-.33-31.7-17.521.077-.414.18-.827.29-1.257 2.411-9.03 10.58-12.79 19.424-14.78 7.718-1.745 17.608-.65 24.662-3.642 5.094-2.167 13.681-8.853 19.287-5.034.997.675 1.72 1.484 2.199 2.378 1.813 3.33.297 7.79-2.361 10.682" fill="#C3502C"/>
            <path d="M273.324 36c-.238 0-.478-.01-.72-.028-2.332-.18-4.103-2.178-3.477-4.602 1.476-5.72 7.978-9.106 12.528-12.243 4.592-3.164 9.364-6.246 14.322-8.796 5.073-2.61 10.498-4.681 16.135-5.592 2.385-.386 5.086-.739 7.768-.739 3.341 0 6.655.549 9.291 2.271 5.206 3.4 2.641 10.282-2.947 10.973-.429.053-.856.075-1.282.075-1.997 0-3.979-.48-6.004-.49h-.14c-2.369 0-4.672.296-6.978.848-4.525 1.085-8.78 2.96-12.91 5.083-4.363 2.244-8.561 4.788-12.779 7.292C282.178 32.4 278.081 36 273.324 36M351.352 25c-1.011 0-2.055-.25-3.061-.709-1.602-.732-3.029-1.95-4.579-2.812-1.986-1.106-3.728-2.2-5.024-4.137-1.733-2.59.025-6.313 2.849-7.071.7-.189 1.383-.271 2.052-.271 2.022 0 3.923.75 5.846 1.59 2.115.924 4.17 1.912 5.893 3.487 2.156 1.97 2.138 5.5.455 7.703-1.177 1.54-2.76 2.22-4.43 2.22" fill="#BF5A2E"/>
            <path d="M346.443 67c-.416 0-.835-.005-1.257-.016-4.233-.102-8.743-.73-12.65-2.12a25.567 25.567 0 0 1-2.02-.813c-4.956-2.254-8.521-5.974-8.516-11.737 0-1.014.112-2.092.347-3.237.596.192 1.346.517 2.291.925 5.418 2.326 11.186 3.95 17.098 4.393 1.053.08 2.113.12 3.172.12 6.581 0 13.185-1.561 18.747-4.98 5.759-3.541 10.13-8.85 14.176-14.2 1.235-1.643 2.47-3.31 4.038-4.651 1.857-1.584 4.114-2.642 6.339-3.684.548.997.793 2.096.792 3.223 0 2.597-1.3 5.344-3.153 7.336a148.35 148.35 0 0 0-1.723 1.88 85.994 85.994 0 0 0-3.248 3.81c-.19.24-.38.479-.566.72a58 58 0 0 0-4.336 6.392c-2.307 3.947-4.492 7.957-8.08 10.858a17.758 17.758 0 0 1-2.905 1.913c-2.627 1.396-5.546 2.21-8.503 2.81-.813.165-1.627.314-2.44.454-.28.048-.566.094-.859.137-.99.146-2.054.261-3.168.341a50.426 50.426 0 0 1-3.576.126" fill="#AA492C"/>
            <path d="M281.084 72c-.86-.22-1.705-.47-2.543-.76l-.254-.091c-3.65-1.294-7.369-3.778-8.144-7.625a7.24 7.24 0 0 1-.143-1.456c0-2.192.936-4.378 2.284-6.134 1.645-2.137 3.845-3.743 6.02-5.315 2.839-2.05 9.942-4.698 16.696-5.619-3.616 1.937-7.333 3.509-10.752 5.923-2.763 1.946-5.424 4.22-7.027 7.234-1.603 3.005-1.98 6.887-.205 9.796 1.006 1.641 2.566 2.822 4.068 4.047" fill="#C86033"/>
            <path d="M377.798 64.866C356.291 71.498 353 46.876 353 46.876A79.543 79.543 0 0 0 386.01 39s10.635 20.053-8.212 25.866" fill="#BF242B"/>
            <path d="M385.519 55.27c-.8 2.631-2.667 4.85-4.957 6.303-2.287 1.452-4.965 2.177-7.649 2.373-2.671.196-5.416-.124-7.868-1.23-3.094-1.403-5.574-4.002-7.325-6.972-1.614-2.732-2.112-5.902-2.72-9.04A77.533 77.533 0 0 0 382.942 40c1.001 1.974 1.702 4.107 2.247 6.26.749 2.947 1.212 6.103.33 9.01" fill="#D54239"/>
            <path d="M373.904 50.008c2.418-1.455 4.166-3.776 6.408-5.484.49-.373 1.167-.723 1.684-.391.233.15.369.405.478.658 1.457 3.35-.27 7.45-3.238 9.616-2.966 2.167-6.85 2.72-10.536 2.57-1.125-.045-2.255-.15-3.333-.473-1.707-.508-3.208-1.535-4.576-2.666-.73-.605-1.468-1.301-1.695-2.216-.875-3.521 4.473-.476 5.865-.23 3.036.539 6.269.223 8.943-1.384" fill="#A5262A"/>
            <path d="M366 53.016a1.313 1.313 0 0 0-.217-.723c-.148-.25-.456-.332-.69-.277-.318.075-.549.369-.71.696-.125.259-.258.536-.337.82-.155.551.095 1.246.57 1.416.514.181.956-.124 1.166-.695.08-.219.12-.469.164-.702.035-.186.057-.348.054-.535M368.917 53.558c-.128-.287-.399-.553-.828-.558-.434-.005-.725.183-.908.476-.14.22-.16.46-.18.702-.03.405.395.815.933.822.539.007 1.019-.294 1.052-.729.02-.24.034-.481-.069-.713M371.956 52.683c-.104-.848-1.585-.934-1.796-.103-.142.559-.237 1.209-.076 1.771.234.813 1.384.88 1.72.098.233-.54.222-1.194.152-1.766M374.9 52.035c-.5-.172-.987.313-.887.953.043.284.151.538.25.797l.026.069.024.089c.04.18.085.357.147.53.315.89 1.54.582 1.54-.388 0-.797-.428-1.82-1.1-2.05M379.61 50.79c-.21-.128-.477-.206-.698-.33-.172-.096-.382-.262-.654-.365-.294-.11-.604-.145-.895.007-.242.127-.434.388-.338.617.153.36.42.587.803.823.276.17.645.377.998.435.434.071.877-.016 1.082-.338.201-.318.058-.634-.297-.85M382.344 48.376c-.547-.223-1.078-.438-1.702-.36-.48.06-.814.612-.548.972.375.51.995.722 1.618.959.467.177 1.102-.114 1.24-.518.165-.474-.112-.852-.608-1.053" fill="#EC952D"/>
        </g>
        <g>
            <path d="M171 65c0-12.15-34.026-22-76-22s-76 9.85-76 22 34.026 22 76 22 76-9.85 76-22" fill="#503330"/>
            <path d="M190 53.5C190 38.312 147.467 26 95 26 42.532 26 0 38.312 0 53.5S42.532 81 95 81c52.467 0 95-12.312 95-27.5" fill="#643E38"/>
            <path d="M187 53c0-13.807-41.19-25-92-25S3 39.193 3 53c0 13.808 41.19 25 92 25s92-11.192 92-25" fill="#3A2824"/>
            <path d="M134 53.5c0-6.351-17.462-11.5-39-11.5-21.54 0-39 5.149-39 11.5S73.46 65 95 65c21.538 0 39-5.149 39-11.5" fill="#291E1A"/>
            <path d="M159.92 50.998c-1.123 2.234-5.25 3.97-7.135 4.935a42.611 42.611 0 0 1-6.744 2.774 40.852 40.852 0 0 1-10.928 1.839c.29-.244.578-.49.852-.749.534-.28 1.076-.541 1.604-.84l.107-.06c6.295-.365 14.013-.88 18.056-7.564 1.279-2.114 1.244-3.965.494-5.511.604-.835.859-1.908.568-3.29-.352-1.672-1.165-3.108-2.251-4.354.408.203.812.419 1.202.67.883.563 1.656 1.151 2.416 1.94.877.759 1.578 1.719 2.104 2.88l-.345 7.33m-30.38 9.33a35.814 35.814 0 0 1-3.787-.59c-.688-.15-1.15-.237-1.49-.353a235.93 235.93 0 0 0 8.019-.212c-.9.406-1.812.794-2.741 1.154m-21.848 2.914c.644.051 1.296.076 1.956.063 2.52-.052 8.303-.812 11.047-2.969.977.777 2.165 1.351 3.477 1.758-5.441 1.463-11.117 2-16.48 1.148m-19.654 2.655c-2.648-.681-6.832-1.522-10.201-3.05 2.18.056 4.325.077 6.395.097 4.24.041 8.691-.168 12.97-1.16.696.433 1.356.795 1.875 1.066 3.832 2.006 8.052 2.66 12.197 2.789 2.97.092 5.94-.125 8.886-.585a58.48 58.48 0 0 1-32.122.843M68.69 62.3c1.736.18 3.48.31 5.214.399.427.253.855.49 1.272.713a50.802 50.802 0 0 0 6.716 2.955c-4.618.49-10.08-.747-13.202-4.067m-7.574-3.74c1.101-.057 2.2-.151 3.3-.248.07.304.152.602.245.893a66.33 66.33 0 0 1-3.545-.645m9.596 1.388a98.76 98.76 0 0 1-3.828-.424 9.114 9.114 0 0 1-.453-1.411 94.437 94.437 0 0 0 3.23-.391c.062.224.136.451.221.681.213.577.5 1.082.83 1.545m-16.945-3.555c-1.98-.906-3.764-2.266-3.483-4.286.377-2.72 7.628-5.108 9.153-5.525a27.564 27.564 0 0 1 4.95-.864c3.478.5 7.131.743 10.838.789.094.193.197.38.303.566-3.107 1.905-6.047 4.745-6.15 8.405a91.829 91.829 0 0 1-15.61.915m-5.855-2.97c.158 1.072.795 1.982 1.637 2.75a88.298 88.298 0 0 1-12.165-1.76c-2.589-.563-6.812-.283-.613-4.811 1.027-.751 2.54-1.01 3.699-1.388 3.06-.999 6.169-1.788 9.287-2.475 2.674-.59 5.361-1.08 8.056-1.505.157.09.326.16.492.237-2.48.774-4.833 1.956-6.927 3.665-1.33 1.086-3.81 2.944-3.466 5.287M41.296 41.67c-.348-2.343 1.425-4.44 3.248-5.604 1.823-1.163 4.09-1.92 6.338-2.183-.519.588-1.01 1.21-1.431 1.906-2.2 3.634-.016 5.657 3.428 6.776a90.564 90.564 0 0 0-9.043 2.136c-1.355-.298-2.319-1.545-2.54-3.031m33.153 2.252c-.126.003-.252.01-.378.013a43.899 43.899 0 0 0-3.156-.452 41.175 41.175 0 0 0 3.483-.56c-.005.338.01.673.05 1m-13.545-7.359c2.8-2.979 8.2-4.732 11.852-4.346 1.312.137 3.21.534 4.542 1.507-2.043 2.005-3.45 4.266-2.665 6.27-4.974.42-10.045.85-15.098 1.52-.107-.01-.216-.02-.328-.033-.64-2.497-.08-4.14 1.697-4.918m17.886-.991c-.55.404-1.058.842-1.534 1.304.255-.603.688-1.195 1.275-1.77.097.16.182.315.259.466m2.573 8.05c-.416.019-.835.038-1.25.06-1.169.061-2.34.117-3.512.166-.075-.51-.069-1 .01-1.477l.237-.066c1.262.72 2.843 1.111 4.515 1.316m16.522-16.327c2.058-.082 5.02-.275 7.342.455-.569.115-1.136.239-1.701.38-.58.143-1.53.407-2.67.777-3.778.287-7.533.825-11.21 1.875-2.262.645-5.723 1.726-8.778 3.452a11.43 11.43 0 0 0-.437-.63c5.423-3.601 15.554-6.234 17.454-6.31m11.572 8.653c-5.327.996-10.673 1.722-16.038 2.311-.683-1.278-.45-2.783 1.592-4.492 1.17-.978 2.666-1.73 4.284-2.318 1.284-.193 2.307-.305 2.929-.342 2.313-.138 4.64-.242 6.976-.31 1.44 1.966 1.253 3.693.257 5.15m2.975 1.819c3.534-.754 7.726-2.417 11.869-3.416-.396 2.379-4.235 3.53-5.483 3.91-3.412 1.037-7.074 1.552-10.751 1.902 1.008-.628 1.95-1.324 2.752-2.084.536-.107 1.076-.197 1.613-.312m10.336-6.847c.585.61.993 1.178 1.241 1.702-1.85.386-3.4.798-4.316 1.04-2.268.6-4.541 1.114-6.817 1.593.575-1.375.601-2.888-.192-4.524 3.362-.037 6.73.022 10.084.189m4.283 2.885c2.613-.397 5.143-.38 7.401.476-.651.126-1.296.258-1.924.402-.675.154-.792.92-.56 1.509-.774.607-1.394 1.339-1.779 2.211a19.667 19.667 0 0 0-5.58-.17c1.512-1.102 2.475-2.538 2.442-4.428m3.576-2.283c.395.043.793.097 1.189.144-1.66.012-3.392.193-5.032.447l-.005-.02a5.514 5.514 0 0 0-.386-.949c1.416.106 2.829.227 4.234.378m10.298 1.935c-.692.04-1.381.09-2.065.161a5.795 5.795 0 0 0-1.715-1.096c1.268.26 2.53.57 3.78.935m9.06 7.676c-.095-.032-.191-.066-.285-.094-3.153-.933-6.543-1-9.894-.48a8.29 8.29 0 0 0 .408-1.497c.22-1.268.184-2.332-.05-3.225.294-.021.556-.03.766-.027 2.832.03 7.928 1.699 9.055 5.323m4.051 2.1a12.122 12.122 0 0 0-2.044-1.286c-.176-1.774-.9-3.247-1.94-4.44 2.231 1.444 4.747 3.568 3.984 5.726m-2.42 2.403c.121-.42.22-.865.293-1.336.316.167.61.35.878.551a8.323 8.323 0 0 1-1.171.785m-4.423 2.978c-.755.574-1.615.97-2.524 1.246a6.858 6.858 0 0 0-.334-1.334c.688.049 1.698.1 2.858.088m-3.766-2.428a26.42 26.42 0 0 1-.385-.044c-.798-1.089-1.764-2.031-2.64-2.813-.156-.138-.321-.256-.48-.388a30.429 30.429 0 0 1 2.182-.248c1.63-.122 5.154-.032 8.023.878-.14.85-.47 1.774-1.042 2.777-1.914.221-4.12.008-5.658-.162m-6.986-1.511c.413-.275.81-.565 1.17-.891a17.714 17.714 0 0 1 2.216 1.836c-1.131-.235-2.325-.546-3.386-.945m-3.6-5.639c.666-1.39 2.507-2.23 4.322-2.703.923 1.364 1.04 3.083-.03 4.616a20.496 20.496 0 0 0-4.292-1.913m.938 2.675c.164.065.327.156.491.227-.343.117-.684.242-1.023.37a5.697 5.697 0 0 1-.449-.938c.328.11.659.212.981.34m-28.373 16.86c1.122.103 2.235.2 3.333.291 2.818.236 5.641.364 8.465.443-.925.389-1.854.935-2.795 1.196-2.067.57-4.32.833-6.46.7a15.633 15.633 0 0 1-5.205-1.254 27.525 27.525 0 0 0 2.662-1.375m-9.922-1.272c.7.74 1.45 1.405 2.232 2.016l-.118.033c-.138.035-.28.06-.418.094-.897-.619-1.624-1.332-1.905-2.13l-.012-.049.22.036m6.808-16.666c-1.42.107-2.83.214-4.204.348-.438.042-.877.078-1.315.118a14.262 14.262 0 0 1-1.227-.724c3.44-.378 6.872-.83 10.295-1.39a25.89 25.89 0 0 1-3.55 1.648m12.646 1.667a50.909 50.909 0 0 0-7.841 2.145 57.044 57.044 0 0 1-5.25-1.352c.282-.1.572-.207.87-.321 1.85-.22 3.701-.448 5.548-.664 1.405-.165 4.726-.332 8.192-.955-.531.354-1.042.738-1.52 1.147m3.89 10.079c-.104-.037-.211-.057-.315-.097-2.058-.771-4.796-1.915-4.457-4.55 2.027.157 4.06.208 6.09.149.81-.023 1.783-.041 2.858-.081-1.723 1.29-3.304 2.826-4.176 4.579m-23.532 2.382c.966-2.682 4.723-4.602 6.496-5.574.7-.384 1.412-.744 2.13-1.084.081.048.165.082.244.13 2.905 1.78 5.866 3.657 2.227 7.116a10.03 10.03 0 0 1-1.115.897c-3.34-.362-6.671-.84-9.982-1.485m4.91 3.825a17.23 17.23 0 0 1-1.024-.716c.766.103 1.532.207 2.296.295-.425.156-.848.286-1.271.421m6.125-11.523c.268-.106.54-.196.811-.297 1.513.305 3.034.553 4.56.734-.197 1.893.717 3.843 3.413 5.567.994.636 2.012 1.12 3.046 1.5a5.903 5.903 0 0 0 .168 2.221c.028.103.065.196.096.295-3.363-.073-6.725-.25-10.08-.538 4.107-3.5 1.463-7.056-2.014-9.482m13.953-5.447.029-.012c3.034-1.195 6.288-1.493 9.45-.986.014.575.123 1.11.31 1.606-3.166-.666-6.48-.831-9.79-.608m8.109 2.745.239.034c-.257.133-.532.276-.823.43a53.587 53.587 0 0 1-12.889.688c.185-.306.403-.626.654-.96a46.19 46.19 0 0 1 4.635-.5 42.985 42.985 0 0 1 8.184.308M91.79 41.433c-1.316.054-2.63.085-3.947.057-.417-.01-1.006.006-1.694.02-.823.019-1.787.037-2.766.013 2.581-.216 5.161-.442 7.74-.69l.036.04c.2.194.411.38.63.56m-9.826-4.856c3.039-1.652 6.931-2.9 10.536-3.784-2.285 1.621-3.752 3.602-2.89 5.857-2.684.268-5.371.516-8.063.751.507-.789.685-1.723.417-2.824m10.995 17.684c-.477-.104-.956-.194-1.432-.306-2.487-.58-5.177-1.22-7.655-2.357.29-1.762-.824-3.316-2.388-4.544a43.133 43.133 0 0 1 3.26-.875 99.76 99.76 0 0 0 6.956-.838c3.254-.055 6.564.315 9.648 1.524-3.542 1.76-7.38 4.294-8.389 7.396m-10.036.61c.485-.14.68-.588.664-1.046 2.935 1.32 6.042 2.261 9.218 2.958.05.248.11.5.2.754.306.872.956 1.686 1.744 2.415-5.199.924-10.518.815-15.751.546-1.685-.087-3.39-.18-5.104-.297l-.158-.165c-.811-.947-1.374-1.84-1.725-2.684 3.66-.62 7.3-1.445 10.912-2.482M78.828 48l.37-.15c1.41.686 2.6 1.592 2.737 2.722A14.066 14.066 0 0 1 78.828 48m2.326 4.532a5.484 5.484 0 0 1-.307.33c-.098.094-.166.199-.218.306a97.495 97.495 0 0 1-9.07 1.975c.034-2.67 2.32-4.72 5.27-6.234 1.256 1.468 2.827 2.697 4.325 3.623m19.695 8.77c-.25-.1-.508-.204-.778-.32l.08-.03c.227.128.466.232.698.35m35.982-7.855c-.046 1.746-.239 2.48-1.01 3.28-4.342.24-8.69.386-13.038.392-.124-.334-.266-.72-.44-1.167l-.179-.462c4.802.52 9.83-.786 14.667-2.043m-11.352-.188a21.339 21.339 0 0 1-4.136-.257c-.13-1.06.617-1.29 2.509-2.84a34.4 34.4 0 0 1 2.623-1.935c.41-.276.832-.53 1.252-.786 2.103-.26 4.263-.705 6.193-1.468.534.273 1.096.518 1.673.738.927.859 1.207 2.089 1.246 4.42-3.762.98-7.53 2.007-11.36 2.128m16.128-.656c-.545.932-1.335 1.777-2.217 2.507a8.38 8.38 0 0 0 .653-2.355 29.052 29.052 0 0 0 1.564-.152m-1.674-2.248a8.578 8.578 0 0 0-1.046-2.658c1.06.246 2.083.427 2.99.557a4.63 4.63 0 0 1 .438 1.59 55.13 55.13 0 0 0-2.382.511m13.497.72c-2.328 3.971-7.354 4.972-11.79 5.33 1.404-1.119 2.596-2.527 2.972-4.4 2.2-.62 4.256-1.702 5.653-3.587 1.482-.185 2.954-.527 4.137-1.125.173 1.03-.09 2.275-.972 3.781m3.817-13.85c-2.687-1.841-5.732-2.91-8.898-3.433-2.736-1.29-5.57-2.136-7.592-2.703-5.503-1.544-11.156-2.104-16.814-2.323-1.711-.873-3.804-1.103-5.412-1.347a38.21 38.21 0 0 0-9.22-.266c-2.515-1.448-5.722-1.854-8.2-2.062-5.498-.464-11.074.884-16.186 3.279-1.087.51-3.569 1.945-5.849 3.78-5.358-4.68-14.143-1.158-19.123 2.453-1.73 1.256-4.571 3.412-4.356 6.264-3.492-.865-6.495-2.622-2.33-5.964 6.262-5.026 14.178-5.489 21.46-5.48 1.211.003 1.213-2.268 0-2.27-6.07-.008-15.392.176-21.465 4.565-5-.287-11.603 1.984-13.553 6.932-.987 2.501-.29 5.303 1.435 6.9a64.031 64.031 0 0 0-3.41 1.248c-2.202.88-8.16 3.196-6.42 7.372 1.304 3.13 8.72 3.09 11.053 3.453a90.54 90.54 0 0 0 11.322 1.026c.32.14.618.264.878.372 3.57 1.48 7.438 2.378 11.393 2.94 3.948 6.059 13.31 7.967 19.881 5.669a66.9 66.9 0 0 0 3.288.842 60.397 60.397 0 0 0 27.107-.024c4.293-.991 10.306-2.547 15.295-5.42 2.708.006 5.214-.252 6.824-.429 7.06-.775 17.841-3.262 22.895-9.995 4.043-5.386.394-12.368-4.003-15.38" fill="#84682E"/>
            <path d="M41.575 42.658c-4.429 3.774-5.629 7.944-1.897 11.818 1.335 1.387 3.325 2.63 5.802 3.72-6.897-.882-12.403-2.673-14.466-5.616-2.816-4.018 2.187-7.513 10.561-9.922m14.52-4.9c3.058-1.23 6.56-2.32 10.379-3.242-2.627 1.006-4.934 2.106-6.853 3.283a146.44 146.44 0 0 0-4.633.418c.364-.156.733-.31 1.107-.46m90.437-2.84c7.806 2.485 13.329 5.557 13.222 9.273a5.726 5.726 0 0 1-.303 1.62c-1.899-.856-4.212-1.624-6.76-2.321-.165-1.085-.886-2.159-2.276-3.174-2.55-1.862-7.141-3.257-11.632-4.584-4.873-1.44-9.942-2.842-15.555-3.943-4.999-.98-10.312-1.643-15.743-2.014 14.283-.101 28.583 1.814 39.047 5.143m12.155 18.821c-5.413 6.531-21.54 11.537-39.72 14.042-1.146.158-2.305.304-3.471.444 12.894-2.112 24.39-5.512 32.585-9.127 4.325-1.91 8.375-4.168 11.431-6.582a6.967 6.967 0 0 1-.825 1.223m-98.326 9.78c-1.343-.625-2.48-1.282-3.438-1.96 9.67 1.884 21.693 2.461 32.9 1.455 9.454-.848 18.007-2.72 24.672-5.131 12.75-1.35 24.5-3.987 31.775-7.398 3.149-1.476 5.344-3.235 6.134-5.046 2.193.682 4.139 1.454 5.501 2.343.138.09.262.182.385.274-1.429 2.039-3.788 4.025-6.58 5.84-15.155 9.852-64.834 21.97-91.349 9.623M82.375 39.45c-.741.1-1.478.206-2.211.318-2.545.386-4.987.837-7.308 1.344a81.507 81.507 0 0 0-6.476.228c-2.59.197-2.437 1.243-.76 1.661-2.672.823-5.094 1.73-7.223 2.707-.029-.726.13-1.47.51-2.23.72-1.44 2.077-2.816 3.946-4.104 6.448-.364 13.056-.282 19.522.076m46.026 7.54c-1.387-3.937-12.107-5.662-21.809-6.99-1.149-.158-2.31-.31-3.478-.459 5.477-.104 11.005.035 16.37.417 10.044.716 19.64 2.159 28.016 4.163-.047 1.062-.693 2.125-1.804 3.105-3.634 3.211-12.144 5.502-20.746 7.144-1.261.24-2.549.468-3.854.684 4.743-2.393 8.304-5.227 7.305-8.064M93.968 57.21a117.276 117.276 0 0 1-6.417-.243c2.79-.819 5.203-1.773 7.056-2.86 5.209-3.057 4.663-6.91-1.721-9.728-3.21-1.417-7.586-2.377-12.411-2.874a142.58 142.58 0 0 1 11.046-1.368 316.861 316.861 0 0 1 14.905 1.765c4.534.641 9.417 1.343 12.862 2.568 7.925 2.82 2.473 7.011-2.912 9.764a48.051 48.051 0 0 1-4.824 2.114c-5.683.602-11.606.927-17.584.862M65.53 60.383c5.826-.34 11.714-1.06 16.877-2.142.302.03.602.062.904.09 6.588.597 13.715.682 20.82.344a94.86 94.86 0 0 1-8.634 1.78c-10.437 1.665-23.164 1.702-33.51.095 1.194-.045 2.38-.1 3.543-.167m-7.404-8.36c3.955 2.38 10.337 4.208 17.615 5.37-6.595 1.08-14.362 1.62-21.606 1.434-1.835-2.756-1.077-5.686 1.846-8.366a14.353 14.353 0 0 0 2.145 1.562m14.96-9.037c8.45.086 16.147 1.892 18.703 4.776 3.033 3.422-2.581 6.64-10.738 8.582-10.978-1.41-19.252-4.422-21.825-8.241 1.537-.91 3.344-1.77 5.405-2.556 2.55-.971 5.391-1.825 8.455-2.561m13.459-11.49c7.81-.562 16.015-.504 24.01.312 10.38 1.062 19.014 3.449 26.905 5.879 3.875 1.191 7.624 2.483 9.178 4.222l.107.147c-16.016-3.456-35.602-4.986-54.04-3.669-8-.743-16.26-1.16-24.546-.996-.665.013-1.33.03-1.996.053 5.063-2.533 12.214-4.6 20.382-5.948m-36.68 9.31c2.215-.38 4.53-.695 6.899-.945-.329.285-.644.57-.928.861-2.276 2.335-3.015 4.9-1.787 7.338-4.055 2.631-6.126 5.599-5.548 8.666a20.876 20.876 0 0 1-1.348-.731c-7.844-4.712-5.006-10.567 2.712-15.19M34.54 58.164c4.54 1.398 10.229 2.112 16.182 2.373 5.283 5.209 19.22 9.298 35.619 9.813-.268.287.171.65 1.344.65 24.382-.002 48.758-3.088 64.188-9.67 6.824-2.912 12.716-6.715 12.703-10.516-.003-.843-.393-1.625-1.066-2.36 2.679-3.874 2.065-7.868-4.487-11.28-12.147-6.322-35.503-10.009-57.626-9.013-5.827.262-11.495.852-16.776 1.714-9.623.727-18.764 2.3-26.312 4.605-4.62 1.41-8.708 3.1-12.018 4.961-11.47 2.042-20.325 5.525-21.22 10.177-.596 3.093 2.585 6.428 9.469 8.546" fill="#CEA131"/>
            <path d="M154 54.133c-1.68 1-3.545 1.724-5.396 2.326-2.553.83-5.158 1.315-7.798 1.526 2.13-.974 4.126-2.15 5.893-3.607 2.347-1.935 4.61-5.003 5.116-7.98a14.76 14.76 0 0 0 2.285-1.716c.067.041.12.092.203.121 5.546 1.96 3.678 6.957-.304 9.33m-16.681 3.228c-.083.03-.17.056-.253.087-.41-.144-.887-.07-1.181.4-5.795 1.934-11.994 2.97-18.063 3.765-5.085.665-10.367 1.191-15.572 1.19-.31-.213-.705-.256-1.066-.013a64.195 64.195 0 0 1-4.545-.211c-1.822-.156-3.66-.402-5.446-.805a139.8 139.8 0 0 0 12.685-2.83c1.845-.502 3.835-1.143 5.762-1.957 5.577 2.93 12.475 3.188 18.603 2.326 6.611-.93 11.034-4.065 14.718-9.4 2.353-.61 4.579-1.364 6.523-2.271-.846 2.143-2.7 4.193-4.253 5.457-2.311 1.883-5.033 3.212-7.912 4.262m-23.848 6.703c3.463-.4 6.874-.928 10.128-1.496 3.331-.579 6.84-1.219 10.248-2.138-5.022 5.012-13.923 6.51-20.376 3.634m-17.235 4.57c-.208-.004-.422-.012-.633-.019 2.457-.912 4.684-2.182 6.464-3.87 2.512.02 5.048-.099 7.576-.304-3.71 3.209-8.353 4.29-13.407 4.194m-6.707-.718c-3.413-.734-6.674-2.148-8.815-4.748a131.43 131.43 0 0 0 6.444-.75 28.188 28.188 0 0 0 4.267 1.277c2.41.505 4.906.803 7.445.947-2.584 1.761-5.865 2.832-9.341 3.274M70.965 63.7l.177-.003a115.86 115.86 0 0 0 7.174-.321c1.282 1.933 3.014 3.484 5.039 4.668-4.648-.392-9.147-1.854-12.39-4.344m-3.658-1.84c-3.453-.089-7.372-.164-10.755-.932-3.8-.862-5.547-2.555-5.863-4.51a1.16 1.16 0 0 0-.05-.906c.041-.734.26-1.493.63-2.247 1.566 2.985 6.24 4.517 9.157 5.072 6.315 1.2 13.016.23 19.172-1.489.865 1.72 2.665 3.161 4.746 4.286-5.768.641-11.553.869-17.037.727M48.29 54.907c-5.267-.082-12.156.076-15.205-4.737-1.735-2.74-1.373-4.846.058-6.45 2.543 4.327 11.306 4.615 16.068 4.962.996.073 2.001.123 3.01.162-2.031 1.73-3.57 3.773-3.93 6.063m-4.625-8.746c-4.014-.678-7.65-1.836-8.916-3.787 2.719-1.772 6.833-2.678 9.762-3.036-1.397 2.17-2.064 4.626-.846 6.823m-7.132-9.442c4.866-4.902 14.586-7.3 21.423-8.757 5.063-1.078 10.2-1.576 15.336-1.573a32.432 32.432 0 0 0-6.279 3.412c-6.784-.54-13.508 1.29-18.876 5.586-.637.51-1.278 1.099-1.884 1.743l-.092-.014c-3.296.205-8.245.935-11.8 2.963.23-.978.913-2.093 2.172-3.36m45.25-15.362a32.95 32.95 0 0 0-3.373 3.356l-.058.013a79.73 79.73 0 0 0-13.088.28c5.192-2.313 10.75-3.278 16.518-3.649m3.218-.21c4.765-.304 9.875-.497 14.46.65-2.101 1.002-3.987 2.388-5.532 4.245-2.362-2.351-7.017-2.71-11.344-2.137-.344.046-.69.104-1.037.16a30.01 30.01 0 0 1 3.453-2.918m26.889-1.411c-3.206-.184-6.389.068-9.309.896-4.395-1.634-9.25-1.866-14.03-1.713 7.415-3.975 16.485-4.86 23.339.817m4.258 5.49a42.48 42.48 0 0 0-6.347 1.796l-.023-.039a21.113 21.113 0 0 0-4.847-4.83c2.944-.56 6.122-.563 9.253-.161.897 1.074 1.542 2.156 1.964 3.234m4.369-1.897c.213.323.59.523 1.074.378l.088-.023c.637.206 1.264.42 1.869.649-1.826.07-3.73.254-5.651.57a13.156 13.156 0 0 0-1.315-2.528c1.345.257 2.662.583 3.935.954m15.123 5.105.046.06c.225.32.54.451.851.454l.192.143c-1.324.154-2.629.35-3.883.572-1.274.225-1.151 2.041.137 1.814 1.757-.31 3.666-.608 5.603-.776.145.161.268.331.4.498-3.259.116-6.425.51-8.701.648-4.096.248-8.186.58-12.269.984.736-2.172.833-4.292.391-6.279.92-.136 1.828-.245 2.707-.325 4.807-.444 10.335-.135 14.526 2.207m-3.327-3.261a22.156 22.156 0 0 0-1.809-.427 24.617 24.617 0 0 0-1.892-.265.955.955 0 0 0-.366-.323 36.866 36.866 0 0 0-2.194-1.02c2.254.092 4.395.782 6.261 2.035m7.86 8.02c.674 1.602.83 3.335.566 5.066a84.67 84.67 0 0 0-3.056-.02c-5.306.033-11.205.733-16.139 2.691-1.095.434-2.191 1.156-3.112 2.025-1.23-1.35-3.383-2.058-6.073-2.274 1.238-1.066 2.366-2.233 3.335-3.524.607-.81 1.113-1.62 1.527-2.425a324.509 324.509 0 0 1 19.048-1.37c1.278-.055 2.59-.136 3.904-.169m9.098 7.168c-1.769-1.235-4.06-1.749-6.4-1.967.08-.602.13-1.212.12-1.839a10.279 10.279 0 0 0-.616-3.356c1.308.046 2.6.182 3.845.492 4.808 1.196 5.244 4.307 3.782 7.267a7.261 7.261 0 0 0-.73-.597m.613 4.373c.029.178.046.355.053.534-.438.232-.9.45-1.372.657.458-.38.9-.778 1.319-1.191m-8.388 3.372a70.588 70.588 0 0 1-4.644.845c-.353.053-.71.088-1.064.134 3.294-2.392 5.844-5.528 6.792-9.19 1.773.263 3.388.729 4.69 1.48.698.404 1.24.848 1.648 1.322a14.26 14.26 0 0 1-3.272 3.124c-1.3.89-2.694 1.64-4.15 2.285m-12.844 4.674c3.803-.23 7.56-.852 11.114-2.056-3.622 4.25-8.163 6.367-14.138 6.77-4.33.292-8.861.112-12.934-1.42 5.516-.46 10.99-1.467 15.958-3.294m-44.13-1.739c3.75-.504 7.4-1.294 10.676-2.167a66.317 66.317 0 0 0 5.012-1.549c3.165 3.403 8.77 4.417 13.866 4.938-1.009.847-2.162 1.568-3.38 2.19-9.352.633-19.128-.4-26.174-3.412m-7.344-5.042a61.926 61.926 0 0 0 3.163-1.013c4.015-1.418 8.32-3.589 11.316-6.614 2.085-.382 4.175-.743 6.268-1.084-.462 1.607-.53 3.362-.1 5.272-6.197 1.69-12.168 4.246-15.523 6.75-.342.029-.684.055-1.028.078-1.619-.982-3.005-2.11-4.096-3.389m-22.93 3.654c.306-.256.622-.502.944-.738a85.807 85.807 0 0 0 7.572-.293c.937.64 2.045 1.182 3.35 1.588 4.244 1.318 9.099 1.595 13.971 1.274l-.118.177c-.687 1.136-.948 2.201-.904 3.195-4.175 1.161-8.444 1.9-12.794 1.902-3.505.001-13.478-.67-13.472-5.71.43-.481.916-.95 1.45-1.395m6.603-2.747a90.77 90.77 0 0 1-2.58.123c.65-.334 1.32-.642 2.002-.931.175.277.365.548.578.808m.453-11.515c-2.106 3.054-2.735 6.324-1.792 9.089-1.592.685-3.305 1.557-4.905 2.596a85.46 85.46 0 0 1-7.909-.492l-.053-.067c-5.76-4.814 4.613-11.211 8.273-12.787 3.107-1.338 6.314-1.94 9.616-1.956-1.224 1.104-2.323 2.305-3.23 3.617m11.32 4.948c-3.891.967-7.715 2.088-11.383 3.452-.26-.813-.36-1.732-.241-2.785.41-3.619 3.398-6.816 6.459-9.12.476.013.764-.263.866-.626 2.251-1.57 5.176-3.141 8.315-4.291-2.953 4.16-4.594 8.857-4.016 13.37m3.414 4.094a10.917 10.917 0 0 1-1.132-2.528 317.545 317.545 0 0 1 13.058-2.838c-2.083 1.556-4.538 2.759-6.967 3.718a52.18 52.18 0 0 1-4.959 1.648m-12.675 2.285a6.568 6.568 0 0 1-1.307-1.326c3.539-1.295 7.338-2.15 10.877-3.02l.098-.024c.252.882.594 1.751 1.039 2.603-3.496.86-7.106 1.436-10.707 1.767m11.708-.138c.49.7 1.04 1.389 1.684 2.055.301.311.615.609.94.896a59.989 59.989 0 0 1-5.9-.194c-1.839-.159-3.762-.492-5.475-1.094a72.3 72.3 0 0 0 8.751-1.663m23.988-.803c-.305.11-.61.217-.91.315a70.283 70.283 0 0 1-11.167 2.65l.023-.012c3.537-1.836 7.384-3.317 11.354-4.389.194.515.434.988.7 1.436m2.676-10.926c3.044-4.542 9.07-6.896 14.888-7.996.407 2.129 0 4.225-.986 6.217a324.55 324.55 0 0 0-13.902 1.78m6.995 5.806c-2.722.15-5.731.636-8.755 1.354-.312-1.562-.108-3.302.69-5.166a322.696 322.696 0 0 1 13.795-1.813c-1.442 2.054-3.449 3.959-5.73 5.625m-7.48 4.252a8 8 0 0 1-.663-1.135c1.518-.345 3.05-.61 4.586-.826a40.505 40.505 0 0 1-3.923 1.96m15.426 4.251c-.301.55-.657 1.07-1.027 1.528a88.118 88.118 0 0 1-5.467-.823c-3.081-.566-5.725-1.768-7.575-3.448 2.642-1.078 5.182-2.384 7.458-3.962 1.155-.097 2.471-.206 3.41.022 1.894.458 2.991 1.225 3.551 2.135-.999 1.527-1.329 3.208-.35 4.548m3.996.142v-5.967c1.088-.559 2.227-1 3.42-1.324 4.103-1.32 10.73-2.657 16.338-2.34-.76 2.681-2.467 5.26-4.798 7.203-1.156.963-2.556 1.843-4.142 2.64-2.039.13-4.082.174-6.116.117-.296-.009-.681 0-1.108.009-1.24.025-2.829.05-3.594-.338m-2.736 1.627c.11-.161.22-.323.319-.49.272.14.569.273.9.394.252.09.528.174.818.254a80.081 80.081 0 0 1-2.037-.158m3.927 1.906c-2.221.514-4.56.922-6.963 1.219a15 15 0 0 0 1.76-1.553c.167.014.34.03.504.042 1.547.13 3.118.232 4.7.292m-26.76-24.976c1.816-2.439 4.279-4.032 7.075-4.99 2.201 1.261 4.123 2.905 5.653 4.952-4.058 1.801-7.427 4.293-9.12 7.496-1.744.278-3.486.567-5.224.873l-.031.005c.888-1.305 1.542-2.734 1.852-4.302.323-1.625.209-2.946-.205-4.034m-10.913-2.572-.204-.025c1.772-.146 3.5-.073 5.098.31 1.84.441 3 1.198 3.678 2.127-.146.485.148.915.568 1.112.785 2.497-.904 5.728-2.792 7.9-5.31.936-10.72 1.933-16.037 3.182-.323-3.106.596-6.74 3.14-10.945a23.631 23.631 0 0 1 1.62-2.325c1.511.114 3.02.256 4.521.454 1.291.17 1.7-1.62.408-1.79M81.24 54.885c-.048-.769.143-1.601.698-2.503 4.715 2.414 10.473 3.407 15.766 3.763 2.69.18 5.481.273 8.312.246-5.733 2.015-11.985 3.436-18.338 4.326l-.18-.067c-2.118-.85-5.28-2.48-6.08-4.847.07-.316.009-.658-.178-.918m71.848-19.43c2.56 3.822 1.424 6.609-1.282 8.64a5.352 5.352 0 0 0-.347-1.156c1.8-2.44 2.49-5.21.604-7.917-2.054-2.946-6.28-3.772-10.693-3.845-.134-.209-.284-.406-.432-.605 4.806-.103 9.482.903 12.15 4.884m2.398 7.615c1.607-2.376 1.666-5.252-.715-8.664-3.423-4.901-9.416-5.893-15.394-5.548a14.409 14.409 0 0 0-1.976-1.491c-3.68-5.167-9.594-7.376-15.689-5.826a43.45 43.45 0 0 0-7.074-1.548c-4.593-4.635-12.44-7.183-19.963-5.446-3.419.79-6.841 2.41-9.951 4.556-.952.058-1.896.12-2.826.178-7.55.473-14.882 1.903-21.427 5.877a.957.957 0 0 0-.442.583c-2.36.412-4.704.923-7.027 1.562-6.622 1.822-20 5.48-20.554 13.216-.023.318-.016.618.003.91-1.791 1.596-2.813 3.75-2.333 6.653 1.38 8.333 11.345 8.674 18.178 8.878a7.1 7.1 0 0 0 .21.947c1.794 5.933 12.487 6.01 19.418 5.859v.002c4.726 4.85 12.973 7.053 20.637 6.387 7.902 2.072 17.578.267 23.04-4.734 7.985 4.26 19.66 2.005 25.137-5.258 6.94.147 16.135-1.173 21.154-6.401 3.816-3.975 2.113-8.737-2.406-10.692" fill="#F3C445"/>
            <path d="M100.35 23c.653 1.776.82 3.782.473 5.669-.09.49-.23 1-.557 1.331a4.834 4.834 0 0 0-1.897-.604c.25-1.771-.197-3.831-1.369-5.017 1.027-.744 2.137-1.31 3.35-1.379M46 42.326A6.732 6.732 0 0 1 49.954 41c.365 0 .753.037 1.046.268a4.969 4.969 0 0 0-.096 1.737c-1.306.07-2.695.79-3.333 1.995-.71-.768-1.308-1.637-1.571-2.674M111.834 28.255c-.032.736-.505 1.45-.834 2.08.465.046.914.285 1.247.665.562-.848.898-1.958.692-3-.267.243-.773.336-1.105.255M82.424 29.377c-.693.178-1.502-.172-2.189-.377.1.564.015 1.165-.235 1.668.96.416 2.097.489 3-.06-.307-.244-.549-.815-.576-1.23M76 45.846c-.466-.41-.703-1.215-.956-1.846-.257.407-.633.7-1.044.812.281.958.845 1.842 1.628 2.188-.029-.372.158-.89.372-1.154M136 47.846c-.467-.41-.703-1.215-.956-1.846-.257.408-.634.7-1.044.813.282.958.846 1.841 1.628 2.187-.028-.371.157-.888.372-1.154M73.463 60.514c-.11-.706.287-1.487.537-2.158A2.438 2.438 0 0 1 72.451 58c-.471.929-.634 2.057-.192 3 .255-.289.811-.489 1.204-.486M38.083 52c-.563.41-1.4.415-2.083.498.273.44.393.982.334 1.502.996-.007 2.036-.369 2.666-1.171-.354-.093-.757-.486-.917-.829M117.63 59.297c-.72-.033-1.469.408-2.12.703a2.128 2.128 0 0 0-.51-1.395c.889-.525 2.009-.784 3-.467-.265.263-.412.796-.37 1.159M54.937 52c-.469-.447-1.287-.608-1.937-.806.355-.317.582-.748.629-1.194.972.19 1.916.689 2.371 1.478-.366.011-.839.265-1.063.522M125.629 38.297c-.72-.032-1.468.408-2.119.703a2.13 2.13 0 0 0-.51-1.395c.889-.525 2.008-.784 3-.467-.266.263-.412.796-.371 1.159M114.029 32.101 113 34.468s4.363-1.478 7.514 1.532l.486-1.984s-2.642-2.548-6.971-1.915M88.203 43.464 88 45s2.461-1.545 5-.295l-.066-1.228s-2.134-1.064-4.731-.013M150.25 55l1.75-.61s-2.84-1.435-2.71-4.39l-1.289.696s-.123 2.49 2.25 4.304M119.974 21l-1.974.54s2.95 1.987 2.493 5.46l1.482-.686s.397-2.925-2-5.314M66 31.246 64.48 30s.27 3.526-2.48 5.232l1.344.768s2.323-1.427 2.656-4.754M141.6 48.958 143 49s-1.567-1.857-.613-4l-1.105.15s-.811 1.802.318 3.808M108.677 57.515 106.466 57s1.821 3.135-.466 5.851l1.81.149s1.939-2.281.867-5.485M122.882 44.838 123 47s-2.838-2.345-6-.785l.18-1.714s2.66-1.326 5.702.337" fill="#4F7A3A"/>
            <path d="M111 17a4.283 4.283 0 0 1-1.116-.48c-1.212-.739-1.077-2.576-.203-3.52.393 1.361.83 2.699 1.319 4" fill="#F9D8BA"/>
            <path d="M101.04 12.41c-2.008 1.352-3.733 2.485-6.37 1.979-2.052-.394-3.44-1.528-5.24-2.358-.222-.103-.483.065-.42.302.604 2.25 4.295 3.395 6.488 3.635 2.233.243 5.247-.912 6.42-2.737.315-.488-.342-1.184-.879-.822" fill="#3D5E30"/>
            <path d="M107.409 12.785c-.49-.353-.998-.653-1.518-.925.82-.87 1.357-1.902 1.206-3.103-.117-.923-1.261-1.933-2.296-1.216-.657.455-1.459 1.034-2.142 1.698a4.607 4.607 0 0 0-1.081-1.733c-.67-.675-2.003-.674-2.674 0-1.688 1.698-.747 5.147.666 6.684 1.526 1.66 4.688 2.15 6.983 1.585 1.284-.316 2.04-2.136.856-2.99" fill="#4F7A3A"/>
        </g>
    </g>
</svg>
